<svg width="667" height="783" viewBox="0 0 667 783" fill="none" xmlns="http://www.w3.org/2000/svg">
<path d="M118.723 360.14C130.363 357.512 135.896 344.155 129.524 334.066C139.613 340.438 152.969 334.905 155.598 323.265C158.227 334.905 171.584 340.438 181.673 334.066C175.301 344.155 180.834 357.512 192.473 360.14C180.834 362.769 175.301 376.126 181.673 386.215C171.584 379.843 158.227 385.376 155.598 397.015C152.969 385.376 139.613 379.843 129.524 386.215C135.896 376.126 130.363 362.769 118.723 360.14Z" fill="url(#paint0_linear_2446_455)"/>
<path d="M295.94 201.191C309.337 202.439 319.936 190.052 316.629 177.009C325.22 187.365 341.473 186.1 348.358 174.54C347.11 187.937 359.497 198.535 372.54 195.229C362.183 203.819 363.449 220.072 375.009 226.957C361.612 225.709 351.014 238.096 354.32 251.139C345.73 240.783 329.477 242.048 322.592 253.609C323.84 240.211 311.453 229.613 298.41 232.92C308.766 224.329 307.501 208.076 295.94 201.191Z" fill="url(#paint1_linear_2446_455)"/>
<path d="M342.899 47.4728C320.899 50.0143 303.384 67.9565 300.903 90.4941C298.422 67.9565 280.907 50.0143 258.906 47.4728C280.905 44.9313 298.42 26.989 300.901 4.45279C303.382 26.989 320.898 44.9313 342.897 47.4728L342.899 47.4728Z" fill="url(#paint2_linear_2446_455)"/>
<path d="M660.902 23.2955C649.859 27.6951 643.324 39.6183 645.233 51.8843C640.752 40.3074 629.131 33.2491 617.368 34.9602C628.41 30.5606 634.945 18.6374 633.037 6.37212C637.517 17.9483 649.138 25.0066 660.901 23.2956L660.902 23.2955Z" fill="url(#paint3_linear_2446_455)"/>
<path d="M73.1633 197.625C62.5097 198.875 54.0278 207.696 52.8264 218.776C51.6249 207.696 43.143 198.875 32.4888 197.625C43.1424 196.376 51.6243 187.555 52.8257 176.475C54.0271 187.555 62.509 196.376 73.1626 197.625L73.1633 197.625Z" fill="url(#paint4_linear_2446_455)"/>
<path d="M139.151 603.844C128.498 605.094 120.016 613.915 118.814 624.995C117.613 613.915 109.131 605.094 98.4767 603.844C109.13 602.595 117.612 593.773 118.814 582.694C120.015 593.773 128.497 602.595 139.151 603.844L139.151 603.844Z" fill="url(#paint5_linear_2446_455)"/>
<path d="M301.945 355.74C289.067 357.252 278.814 367.932 277.362 381.348C275.91 367.932 265.657 357.252 252.779 355.74C265.656 354.227 275.909 343.547 277.361 330.133C278.814 343.547 289.066 354.227 301.944 355.74L301.945 355.74Z" fill="url(#paint6_linear_2446_455)"/>
<path d="M109.376 141.873C152.397 149.136 212.468 328.249 273.265 321.766C331.65 315.54 314.237 177.058 379.792 132.442C404.375 114.688 430.392 79.9979 473.003 79.1785C515.614 78.359 565.19 51.1809 571.336 44.3522" stroke="url(#paint7_linear_2446_455)" stroke-width="11.8738" stroke-linecap="round"/>
<path d="M174.931 203.119C172.882 274.479 197.466 385.444 237.413 354.716C277.361 323.988 281.521 123.086 321.469 107.722C349.922 96.7785 377.522 128.528 391.521 133.991" stroke="url(#paint8_linear_2446_455)" stroke-width="10.7772" stroke-linecap="round"/>
<path d="M94.3631 148.186C83.1194 141.925 1.0406 98.1043 40.3935 46.7709C79.7463 -4.56239 130.343 75.5677 155.079 78.0717" stroke="url(#paint9_linear_2446_455)" stroke-width="11.8738" stroke-linecap="round"/>
<path d="M58.6158 595.709C54.8195 591.371 48.3658 579.277 52.9213 565.61C57.4769 551.944 67.2928 540.392 71.6314 536.325" stroke="url(#paint10_linear_2446_455)" stroke-width="9.43003" stroke-linecap="round"/>
<ellipse cx="73.2709" cy="749.833" rx="39.1391" ry="12.581" transform="rotate(-36.0334 73.2709 749.833)" fill="url(#paint11_linear_2446_455)"/>
<path d="M56.989 719.36C66.7509 698.751 83.3461 649.725 71.6318 618.487C56.989 579.439 21.1954 578.626 30.1438 529.003C37.3025 489.305 60.7852 469.076 71.6318 463.924" stroke="url(#paint12_linear_2446_455)" stroke-width="9.43003" stroke-linecap="round"/>
<path d="M58.1014 695.078C55.3897 670.673 54.2223 579.602 88.7143 583.507C123.206 587.412 136.168 547.171 138.337 526.562" stroke="url(#paint13_linear_2446_455)" stroke-width="9.43003" stroke-linecap="round"/>
<path d="M97.8248 164.354C90.6041 166.379 219.774 279.809 136.335 362.182C69.5839 428.079 68.4072 446.354 76.1627 447.254" stroke="url(#paint14_linear_2446_455)" stroke-width="9.43003" stroke-linecap="round"/>
<ellipse cx="38.775" cy="684.822" rx="88.5079" ry="18.792" transform="rotate(-93.2517 38.775 684.822)" fill="url(#paint15_linear_2446_455)"/>
<ellipse cx="77.6306" cy="698.688" rx="81.349" ry="18.7103" transform="rotate(-68.2796 77.6306 698.688)" fill="url(#paint16_linear_2446_455)"/>
<path d="M54.7347 353.579C51.5914 323.268 69.0146 277.465 96.4963 282.854" stroke="url(#paint17_linear_2446_455)" stroke-width="8.08288"/>
<path d="M124.769 154.923C81.885 148.412 12.956 148.188 25.0803 205.441C40.7846 279.6 136.893 369.119 130.831 416.943C124.769 464.767 71.5569 420.985 61.4533 433.109" stroke="url(#paint18_linear_2446_455)" stroke-width="8.08288"/>
<path d="M73.7077 272.73C80.2154 270.581 81.7636 261.806 76.429 257.315C82.9493 259.542 89.1958 253.433 87.4056 246.579C91.4467 252.335 100.008 251.221 102.445 244.623C102.465 251.708 110.068 256.016 115.802 252.195C111.793 257.901 115.534 265.988 122.375 266.402C115.867 268.551 114.319 277.326 119.654 281.817C113.134 279.59 106.887 285.699 108.677 292.553C104.636 286.797 96.0753 287.911 93.6382 294.509C93.6183 287.424 86.0148 283.116 80.281 286.937C84.2896 281.231 80.5487 273.144 73.7077 272.73Z" fill="url(#paint19_linear_2446_455)" stroke="url(#paint20_linear_2446_455)" stroke-width="1.69625" stroke-miterlimit="10"/>
<path d="M43.5107 148.362C77.5873 142.044 91.0894 100.475 67.2383 75.3379L60.9443 68.7041L69.1992 72.6387C100.481 87.5501 135.831 61.8698 131.318 27.5088L130.127 18.4394L134.491 26.4785C151.022 56.9311 194.73 56.9319 211.274 26.4775L215.641 18.4394L214.446 27.5088C209.921 61.8686 245.282 87.5503 276.565 72.6387L284.82 68.7041L278.526 75.3379C254.676 100.475 268.178 142.044 302.254 148.362L311.249 150.03L302.254 151.698C268.178 158.017 254.676 199.586 278.526 224.723L284.82 231.355L276.565 227.421C245.283 212.51 209.933 238.191 214.446 272.552L215.638 281.62L211.273 273.582C194.742 243.129 151.034 243.128 134.49 273.582L130.124 281.62L131.318 272.551C135.843 238.191 100.482 212.509 69.1992 227.421L60.9443 231.355L67.2383 224.723C91.0894 199.586 77.5873 158.016 43.5107 151.698L34.5156 150.03L43.5107 148.362ZM136.008 150.88C155.326 153.119 170.704 168.925 172.883 188.779C175.061 168.925 190.44 153.119 209.757 150.88L209.756 150.88C190.439 148.641 175.06 132.834 172.882 112.98C170.703 132.834 155.324 148.641 136.008 150.88Z" fill="url(#paint21_linear_2446_455)"/>
<path d="M332.656 102.786C359.243 97.8563 369.777 65.423 351.168 45.8105C375.575 57.4449 403.156 37.408 399.635 10.5988C412.533 34.3595 446.635 34.3595 459.543 10.5988C456.012 37.408 483.603 57.4449 508.01 45.8105C489.401 65.423 499.935 97.8563 526.523 102.786C499.935 107.716 489.401 140.149 508.01 159.761C483.603 148.127 456.022 168.164 459.543 194.973C446.645 171.212 412.543 171.212 399.635 194.973C403.166 168.164 375.575 148.127 351.168 159.761C369.777 140.149 359.243 107.716 332.656 102.786Z" fill="url(#paint22_linear_2446_455)" stroke="url(#paint23_linear_2446_455)" stroke-width="1.69625" stroke-miterlimit="10"/>
<path d="M613.825 38.226C594.397 45.7718 582.663 65.9244 585.693 86.5469C578.147 67.117 557.994 55.3837 537.372 58.4132C556.801 50.8674 568.534 30.7148 565.505 10.0936C573.05 29.5222 593.203 41.2556 613.824 38.2264L613.825 38.226Z" fill="url(#paint24_linear_2446_455)"/>
<ellipse cx="41.9665" cy="323.821" rx="16.1658" ry="63.3159" transform="rotate(-10.0721 41.9665 323.821)" fill="url(#paint25_linear_2446_455)"/>
<path d="M20.8295 440.748C35.0683 436.045 38.4557 416.845 26.7838 407.019C41.0502 411.893 54.7174 398.526 50.8005 383.529C59.6423 396.123 78.3735 393.687 83.7059 379.25C83.7494 394.751 100.386 404.177 112.931 395.816C104.161 408.301 112.346 425.996 127.314 426.901C113.075 431.604 109.688 450.805 121.359 460.631C107.093 455.757 93.4258 469.123 97.3428 484.121C88.5009 471.527 69.7697 473.963 64.4374 488.4C64.3938 472.899 47.7573 463.472 35.2119 471.833C43.9827 459.349 35.7975 441.653 20.8295 440.748Z" fill="url(#paint26_linear_2446_455)" stroke="url(#paint27_linear_2446_455)" stroke-width="1.69625" stroke-miterlimit="10"/>
<path d="M101.275 494.614C116.162 494.339 126.295 479.413 121.054 465.476C131.775 475.809 149.494 472.418 155.644 458.858C155.919 473.745 170.845 483.877 184.782 478.637C174.449 489.358 177.84 507.077 191.4 513.227C176.513 513.502 166.381 528.428 171.621 542.365C160.9 532.032 143.181 535.422 137.031 548.983C136.756 534.095 121.83 523.963 107.893 529.204C118.226 518.483 114.835 500.764 101.275 494.614Z" fill="url(#paint28_linear_2446_455)"/>
<ellipse cx="75.3786" cy="348.123" rx="11.1155" ry="43.5359" transform="rotate(33.7739 75.3786 348.123)" fill="url(#paint29_linear_2446_455)"/>
<path d="M56.1738 546.902C60.9442 539.348 56.802 529.347 48.0873 527.379C56.802 525.412 60.9442 515.411 56.1738 507.857C63.7276 512.628 73.7281 508.485 75.696 499.771C77.6638 508.485 87.6644 512.628 95.2182 507.857C90.4478 515.411 94.59 525.412 103.305 527.379C94.59 529.347 90.4478 539.348 95.2182 546.902C87.6644 542.131 77.6638 546.273 75.696 554.988C73.7281 546.273 63.7276 542.131 56.1738 546.902Z" fill="url(#paint30_linear_2446_455)"/>
<defs>
<linearGradient id="paint0_linear_2446_455" x1="118.723" y1="360.14" x2="192.473" y2="360.14" gradientUnits="userSpaceOnUse">
<stop stop-color="#000B32"/>
<stop offset="1" stop-color="#4C30A1"/>
</linearGradient>
<linearGradient id="paint1_linear_2446_455" x1="295.94" y1="201.191" x2="375.009" y2="226.957" gradientUnits="userSpaceOnUse">
<stop stop-color="#000B32"/>
<stop offset="1" stop-color="#4C30A1"/>
</linearGradient>
<linearGradient id="paint2_linear_2446_455" x1="258.906" y1="47.4735" x2="342.899" y2="47.4735" gradientUnits="userSpaceOnUse">
<stop stop-color="#000B32"/>
<stop offset="1" stop-color="#4C30A1"/>
</linearGradient>
<linearGradient id="paint3_linear_2446_455" x1="617.368" y1="34.9606" x2="660.902" y2="23.2958" gradientUnits="userSpaceOnUse">
<stop stop-color="#000B32"/>
<stop offset="1" stop-color="#4C30A1"/>
</linearGradient>
<linearGradient id="paint4_linear_2446_455" x1="32.4888" y1="197.626" x2="73.1633" y2="197.626" gradientUnits="userSpaceOnUse">
<stop stop-color="#000B32"/>
<stop offset="1" stop-color="#4C30A1"/>
</linearGradient>
<linearGradient id="paint5_linear_2446_455" x1="98.4767" y1="603.844" x2="139.151" y2="603.844" gradientUnits="userSpaceOnUse">
<stop stop-color="#000B32"/>
<stop offset="1" stop-color="#4C30A1"/>
</linearGradient>
<linearGradient id="paint6_linear_2446_455" x1="252.779" y1="355.74" x2="301.945" y2="355.74" gradientUnits="userSpaceOnUse">
<stop stop-color="#000B32"/>
<stop offset="1" stop-color="#4C30A1"/>
</linearGradient>
<linearGradient id="paint7_linear_2446_455" x1="109.376" y1="183.145" x2="571.336" y2="183.145" gradientUnits="userSpaceOnUse">
<stop stop-color="#000B32"/>
<stop offset="1" stop-color="#4C30A1"/>
</linearGradient>
<linearGradient id="paint8_linear_2446_455" x1="174.812" y1="232.709" x2="391.521" y2="232.709" gradientUnits="userSpaceOnUse">
<stop stop-color="#000B32"/>
<stop offset="1" stop-color="#4C30A1"/>
</linearGradient>
<linearGradient id="paint9_linear_2446_455" x1="29.7944" y1="88.9111" x2="155.079" y2="88.9111" gradientUnits="userSpaceOnUse">
<stop stop-color="#000B32"/>
<stop offset="1" stop-color="#4C30A1"/>
</linearGradient>
<linearGradient id="paint10_linear_2446_455" x1="51.3545" y1="566.017" x2="71.6314" y2="566.017" gradientUnits="userSpaceOnUse">
<stop stop-color="#000B32"/>
<stop offset="1" stop-color="#4C30A1"/>
</linearGradient>
<linearGradient id="paint11_linear_2446_455" x1="73.2709" y1="737.252" x2="73.2709" y2="762.414" gradientUnits="userSpaceOnUse">
<stop stop-color="#000B32"/>
<stop offset="1" stop-color="#4C30A1"/>
</linearGradient>
<linearGradient id="paint12_linear_2446_455" x1="28.727" y1="591.642" x2="75.6608" y2="591.642" gradientUnits="userSpaceOnUse">
<stop stop-color="#000B32"/>
<stop offset="1" stop-color="#4C30A1"/>
</linearGradient>
<linearGradient id="paint13_linear_2446_455" x1="56.8874" y1="610.82" x2="138.337" y2="610.82" gradientUnits="userSpaceOnUse">
<stop stop-color="#000B32"/>
<stop offset="1" stop-color="#4C30A1"/>
</linearGradient>
<linearGradient id="paint14_linear_2446_455" x1="118.707" y1="164.354" x2="118.707" y2="447.254" gradientUnits="userSpaceOnUse">
<stop stop-color="#000B32"/>
<stop offset="1" stop-color="#4C30A1"/>
</linearGradient>
<linearGradient id="paint15_linear_2446_455" x1="38.775" y1="666.03" x2="38.775" y2="703.613" gradientUnits="userSpaceOnUse">
<stop stop-color="#000B32"/>
<stop offset="1" stop-color="#4C30A1"/>
</linearGradient>
<linearGradient id="paint16_linear_2446_455" x1="77.6306" y1="679.978" x2="77.6306" y2="717.398" gradientUnits="userSpaceOnUse">
<stop stop-color="#000B32"/>
<stop offset="1" stop-color="#4C30A1"/>
</linearGradient>
<linearGradient id="paint17_linear_2446_455" x1="75.433" y1="282.418" x2="75.433" y2="353.579" gradientUnits="userSpaceOnUse">
<stop stop-color="#000B32"/>
<stop offset="1" stop-color="#4C30A1"/>
</linearGradient>
<linearGradient id="paint18_linear_2446_455" x1="77.3889" y1="152.018" x2="77.3889" y2="439.878" gradientUnits="userSpaceOnUse">
<stop stop-color="#000B32"/>
<stop offset="1" stop-color="#4C30A1"/>
</linearGradient>
<linearGradient id="paint19_linear_2446_455" x1="73.7077" y1="272.73" x2="122.375" y2="266.402" gradientUnits="userSpaceOnUse">
<stop stop-color="#000B32"/>
<stop offset="1" stop-color="#4C30A1"/>
</linearGradient>
<linearGradient id="paint20_linear_2446_455" x1="73.7077" y1="272.73" x2="122.375" y2="266.402" gradientUnits="userSpaceOnUse">
<stop stop-color="#000B32"/>
<stop offset="1" stop-color="#4C30A1"/>
</linearGradient>
<linearGradient id="paint21_linear_2446_455" x1="34.5156" y1="150.03" x2="311.249" y2="150.03" gradientUnits="userSpaceOnUse">
<stop stop-color="#000B32"/>
<stop offset="1" stop-color="#4C30A1"/>
</linearGradient>
<linearGradient id="paint22_linear_2446_455" x1="332.656" y1="102.786" x2="526.523" y2="102.786" gradientUnits="userSpaceOnUse">
<stop stop-color="#000B32"/>
<stop offset="1" stop-color="#4C30A1"/>
</linearGradient>
<linearGradient id="paint23_linear_2446_455" x1="332.656" y1="102.786" x2="526.523" y2="102.786" gradientUnits="userSpaceOnUse">
<stop stop-color="#000B32"/>
<stop offset="1" stop-color="#4C30A1"/>
</linearGradient>
<linearGradient id="paint24_linear_2446_455" x1="537.372" y1="58.4138" x2="613.826" y2="38.2267" gradientUnits="userSpaceOnUse">
<stop stop-color="#000B32"/>
<stop offset="1" stop-color="#4C30A1"/>
</linearGradient>
<linearGradient id="paint25_linear_2446_455" x1="41.9665" y1="260.505" x2="41.9665" y2="387.137" gradientUnits="userSpaceOnUse">
<stop stop-color="#000B32"/>
<stop offset="1" stop-color="#4C30A1"/>
</linearGradient>
<linearGradient id="paint26_linear_2446_455" x1="20.8295" y1="440.748" x2="127.314" y2="426.901" gradientUnits="userSpaceOnUse">
<stop stop-color="#000B32"/>
<stop offset="1" stop-color="#4C30A1"/>
</linearGradient>
<linearGradient id="paint27_linear_2446_455" x1="20.8295" y1="440.748" x2="127.314" y2="426.901" gradientUnits="userSpaceOnUse">
<stop stop-color="#000B32"/>
<stop offset="1" stop-color="#4C30A1"/>
</linearGradient>
<linearGradient id="paint28_linear_2446_455" x1="101.275" y1="494.614" x2="191.4" y2="513.227" gradientUnits="userSpaceOnUse">
<stop stop-color="#000B32"/>
<stop offset="1" stop-color="#4C30A1"/>
</linearGradient>
<linearGradient id="paint29_linear_2446_455" x1="75.3786" y1="304.587" x2="75.3786" y2="391.659" gradientUnits="userSpaceOnUse">
<stop stop-color="#000B32"/>
<stop offset="1" stop-color="#4C30A1"/>
</linearGradient>
<linearGradient id="paint30_linear_2446_455" x1="56.1738" y1="546.902" x2="95.2182" y2="507.857" gradientUnits="userSpaceOnUse">
<stop stop-color="#000B32"/>
<stop offset="1" stop-color="#4C30A1"/>
</linearGradient>
</defs>
</svg>
