<svg id="e6cJEaOB5ZT1" xmlns="http://www.w3.org/2000/svg" xmlns:xlink="http://www.w3.org/1999/xlink" viewBox="0 0 315 315" shape-rendering="geometricPrecision" text-rendering="geometricPrecision" project-id="f180a2d0d71e4adf8cd5d41455c82a24" export-id="01c9f59a7d514ff885cd6868c0339503" cached="false">
<style><![CDATA[
#e6cJEaOB5ZT2_to {animation: e6cJEaOB5ZT2_to__to 12000ms linear infinite normal forwards}@keyframes e6cJEaOB5ZT2_to__to { 0% {transform: translate(69.5px,51.5px)} 25% {transform: translate(69.5px,70px)} 50% {transform: translate(69.5px,51.5px)} 75% {transform: translate(69.5px,70px)} 100% {transform: translate(69.5px,51.5px)}} #e6cJEaOB5ZT3_to {animation: e6cJEaOB5ZT3_to__to 12000ms linear infinite normal forwards}@keyframes e6cJEaOB5ZT3_to__to { 0% {transform: translate(28px,106px)} 25% {transform: translate(28px,120px)} 50% {transform: translate(28px,106px)} 75% {transform: translate(28px,120px)} 100% {transform: translate(28px,106px)}} #e6cJEaOB5ZT4_to {animation: e6cJEaOB5ZT4_to__to 12000ms linear infinite normal forwards}@keyframes e6cJEaOB5ZT4_to__to { 0% {transform: translate(268.5px,255.5px)} 25% {transform: translate(268.5px,240px)} 50% {transform: translate(268.5px,255.5px)} 75% {transform: translate(268.5px,240px)} 100% {transform: translate(268.5px,255.5px)}} #e6cJEaOB5ZT5_to {animation: e6cJEaOB5ZT5_to__to 12000ms linear infinite normal forwards}@keyframes e6cJEaOB5ZT5_to__to { 0% {transform: translate(244px,237px)} 25% {transform: translate(244px,210px)} 50% {transform: translate(244px,237px)} 75% {transform: translate(244px,210px)} 100% {transform: translate(244px,237px)}} #e6cJEaOB5ZT8_tr {animation: e6cJEaOB5ZT8_tr__tr 12000ms linear infinite normal forwards}@keyframes e6cJEaOB5ZT8_tr__tr { 0% {transform: translate(156.559998px,158.479996px) rotate(0deg)} 50% {transform: translate(156.559998px,158.479996px) rotate(180deg)} 100% {transform: translate(156.559998px,158.479996px) rotate(360deg)}}
]]></style>
<defs><linearGradient id="e6cJEaOB5ZT8-fill" x1="156.56" y1="58" x2="156.56" y2="258.96" spreadMethod="pad" gradientUnits="userSpaceOnUse" gradientTransform="translate(0 0)"><stop id="e6cJEaOB5ZT8-fill-0" offset="0%" stop-color="#000b32"/><stop id="e6cJEaOB5ZT8-fill-1" offset="100%" stop-color="#4c30a1"/></linearGradient></defs><g id="e6cJEaOB5ZT2_to" transform="translate(69.5,51.5)"><path d="M69.5007,93C67.049,71.2604,49.7409,53.9523,28,51.5007C49.7409,49.049,67.049,31.7409,69.5007,10C71.9523,31.7396,89.2604,49.0477,111,51.4993C89.2604,53.951,71.9523,71.2591,69.5007,92.9987v.0013Z" transform="translate(-69.5,-51.5)" fill="#e9ff5c"/></g><g id="e6cJEaOB5ZT3_to" transform="translate(28,106)"><path d="M28.0003,126C26.8188,115.523,18.4776,107.182,8,106c10.4776-1.181,18.8188-9.5224,20.0003-20C29.1818,96.4769,37.5231,104.818,48,106c-10.4769,1.181-18.8182,9.522-19.9997,19.999v.001Z" transform="translate(-28,-106)" fill="#e9ff5c"/></g><g id="e6cJEaOB5ZT4_to" transform="translate(268.5,255.5)"><path d="M268.501,297c-2.452-21.74-19.76-39.048-41.501-41.499c21.741-2.452,39.049-19.76,41.501-41.501c2.451,21.74,19.759,39.048,41.499,41.499-21.74,2.452-39.048,19.76-41.499,41.5v.001Z" transform="translate(-268.5,-255.5)" fill="#e9ff5c"/></g><g id="e6cJEaOB5ZT5_to" transform="translate(244,237)"><g transform="translate(-244,-237)"><path d="M204,299c-1.181-10.477-9.522-18.818-20-20c10.478-1.181,18.819-9.522,20-20c1.182,10.477,9.523,18.818,20,20-10.477,1.181-18.818,9.522-20,19.999v.001Z" fill="#e9ff5c"/><path d="M286.5,210c-1.034-9.167-8.332-16.466-17.5-17.5c9.168-1.034,16.466-8.332,17.5-17.5c1.034,9.167,8.333,16.466,17.5,17.5-9.167,1.034-16.466,8.332-17.5,17.499v.001Z" fill="#e9ff5c"/></g></g><g id="e6cJEaOB5ZT8_tr" transform="translate(156.559998,158.479996) rotate(0)"><path d="M156.56,58c5.11,27.56,38.73,38.48,59.06,19.19-12.06,25.3,8.71,53.89,36.5,50.24-24.63,13.37-24.63,48.72,0,62.1-27.79-3.66-48.56,24.94-36.5,50.24-20.33-19.29-53.95-8.37-59.06,19.19-5.11-27.56-38.73-38.48-59.06-19.19c12.06-25.3-8.71-53.89-36.5-50.24c24.63-13.37,24.63-48.72,0-62.1c27.79,3.66,48.56-24.94,36.5-50.24c20.33,19.29,53.95,8.37,59.06-19.19Z" transform="translate(-156.559998,-158.479996)" fill="url(#e6cJEaOB5ZT8-fill)" stroke="#4c30a1" stroke-width="3" stroke-miterlimit="10"/></g><path d="M156.5,90c4.812,21.306,29.262,31.434,47.73,19.77-11.664,18.468-1.536,42.918,19.77,47.73-21.306,4.812-31.434,29.262-19.77,47.73-18.468-11.664-42.918-1.536-47.73,19.77-4.812-21.306-29.262-31.434-47.73-19.77c11.664-18.468,1.536-42.918-19.77-47.73c21.306-4.812,31.434-29.262,19.77-47.73c18.468,11.664,42.918,1.536,47.73-19.77Z" fill="#000b32"/><path d="M121.04,178.766v-38.784c0-1.689-.358-3.148-1.075-4.377s-1.613-1.843-2.688-1.843v-1.69c.358-.051,3.149-1.613,8.371-4.685.358.103.794.256,1.306.461.512.154,1.177.64,1.996,1.459.871.819,1.306,1.767,1.306,2.842.307-.154,1.178-.64,2.611-1.459c3.789-2.151,6.119-3.226,6.989-3.226.922,0,1.92.461,2.995,1.382c1.127.922,1.971,2.023,2.535,3.303.102-.051,1.152-.589,3.148-1.613c3.994-2.048,6.4-3.072,7.22-3.072c1.638,0,3.174,1.075,4.608,3.226c1.433,2.15,2.15,4.121,2.15,5.913v38.631c0,2.816,1.254,4.48,3.763,4.992v1.689l-8.371,4.685c-1.126-.461-2.176-1.203-3.149-2.227-.973-1.075-1.459-2.074-1.459-2.995v-37.632c0-3.072-.512-5.197-1.536-6.375-.973-1.229-2.765-1.894-5.376-1.997v39.86c0,2.816,1.254,4.48,3.763,4.992v1.689l-8.371,4.685c-1.126-.461-2.176-1.203-3.149-2.227-.973-1.075-1.459-2.074-1.459-2.995v-37.632c0-3.226-.486-5.428-1.459-6.605-.922-1.178-2.739-1.767-5.453-1.767v39.399c0,1.894.205,3.251.614,4.07.41.819,1.255,1.229,2.535,1.229v2.381l-15.744,6.605-1.229-2.458c1.126,0,2.202-.666,3.226-1.997.921-1.28,1.382-3.225,1.382-5.837Z" fill="#fff"/><path d="M183.298,179.534c.973,0,1.971-.409,2.995-1.228v-9.908c0-3.123-1.05-4.889-3.149-5.299v-1.689l7.757-4.378c1.075.461,2.125,1.229,3.149,2.304c1.024,1.024,1.536,1.997,1.536,2.918v17.204c0,.409-2.816,1.715-8.448,3.916-5.581,2.151-9.011,3.226-10.291,3.226-1.229,0-2.663-1.101-4.301-3.302-1.587-2.202-2.381-4.839-2.381-7.911v-40.857c0-.359,2.918-1.613,8.755-3.764c5.888-2.201,9.267-3.302,10.138-3.302.307,0,.665.742,1.075,2.227s.87,3.277,1.382,5.376c.564,2.099,1.127,3.661,1.69,4.685.614.973,1.741,1.459,3.379,1.459v1.536c-1.126.512-3.046,1.434-5.76,2.765-2.662,1.28-4.096,1.92-4.301,1.92-.768,0-1.74-2.074-2.918-6.221-1.178-4.198-2.125-6.297-2.842-6.297-.512,0-.972.256-1.382.768v38.169c0,3.789,1.306,5.683,3.917,5.683Z" fill="#fff"/><path d="M156.987,89.8896c4.736,20.9694,28.8,30.9374,46.976,19.4584l.689.689c-11.479,18.176-1.511,42.24,19.458,46.976v.974c-20.969,4.736-30.937,28.8-19.458,46.976l-.689.689c-18.176-11.479-42.24-1.511-46.976,19.458h-.974c-4.736-20.969-28.8-30.937-46.976-19.458l-.689-.689c11.479-18.176,1.511-42.24-19.4584-46.976v-.974c20.9694-4.736,30.9374-28.8,19.4584-46.976l.689-.689c18.176,11.479,42.24,1.511,46.976-19.4584h.974Z" fill="none" stroke="#4c30a1"/></svg>
