<svg width="440" height="725" viewBox="0 0 440 725" fill="none" xmlns="http://www.w3.org/2000/svg">
<path d="M332.081 104.314C329 76.9921 307.247 55.2393 279.923 52.1581C307.247 49.0768 329 27.324 332.081 0C335.162 27.3223 356.915 49.0751 384.238 52.1564C356.915 55.2376 335.162 76.9904 332.081 104.313V104.314Z" fill="#FFE4B1"/>
<path d="M75.047 285.176C72.8303 265.52 57.1808 249.87 37.5232 247.654C57.1808 245.437 72.8303 229.787 75.047 210.13C77.2637 229.786 92.9132 245.436 112.57 247.652C92.9132 249.869 77.2637 265.519 75.047 285.175V285.176Z" fill="#FFE4B1"/>
<path d="M351.967 269.342C357.971 237.072 293.131 197.297 282.925 269.342" stroke="#ABBDFF" stroke-width="10.5065" stroke-linecap="round"/>
<path d="M187.991 332.242C210.957 282.682 245.754 277.52 271.112 292.744C341.301 334.88 266.395 570.419 220.169 682.922" stroke="url(#paint0_linear_2355_686)" stroke-width="10.5065" stroke-linecap="round"/>
<path d="M197.366 285.748C195.561 301.015 211.887 312.463 226.044 305.863C215.353 317.015 221.824 335.497 237.416 338.34C221.92 341.113 216.07 359.575 227.14 370.772C212.757 364.112 196.822 375.499 199.139 390.773C191.367 377.224 171.427 377.182 164.11 390.702C165.915 375.435 149.589 363.986 135.432 370.587C146.123 359.434 139.652 340.953 124.059 338.11C139.556 335.337 145.406 316.875 134.336 305.677C148.719 312.338 164.654 300.951 162.336 285.677C170.109 299.225 190.049 299.268 197.366 285.748Z" fill="#FF8FEC"/>
<path d="M384.982 211.452C383.177 226.719 399.503 238.167 413.66 231.567C402.969 242.72 409.44 261.201 425.032 264.044C409.535 266.817 403.685 285.279 414.755 296.476C400.373 289.816 384.437 301.203 386.755 316.477C378.982 302.928 359.042 302.886 351.726 316.406C353.53 301.139 337.204 289.691 323.047 296.291C333.739 285.138 327.268 266.657 311.675 263.814C327.172 261.041 333.022 242.579 321.952 231.382C336.335 238.042 352.27 226.655 349.952 211.381C357.725 224.93 377.665 224.972 384.982 211.452Z" fill="#FF8FEC"/>
<path d="M236.31 131.331C344.651 143.995 233.804 509.511 200.933 691.177" stroke="url(#paint1_linear_2355_686)" stroke-width="15.0093" stroke-linecap="round"/>
<path d="M209.589 71.303C208.093 91.8704 230.662 106.226 249.234 96.5262C235.581 112.117 245.369 136.491 266.436 139.359C245.837 144.012 239.113 169.105 254.624 183.441C234.948 175.384 214.282 191.606 218.311 211.935C207.076 194.248 180.353 195.396 171.365 213.956C172.861 193.388 150.292 179.033 131.72 188.733C145.373 173.142 135.585 148.768 114.518 145.9C135.117 141.247 141.841 116.154 126.33 101.818C146.006 109.875 166.672 93.6525 162.643 73.3242C173.878 91.0107 200.601 89.8629 209.589 71.303Z" fill="#FF8FEC"/>
<path d="M154.408 476.545C188.472 528.391 209.127 617.221 215.196 655.155" stroke="url(#paint2_linear_2355_686)" stroke-width="10.5065" stroke-linecap="round"/>
<ellipse cx="127.431" cy="583.709" rx="42.5315" ry="148.078" transform="rotate(-39.7793 127.431 583.709)" fill="url(#paint3_linear_2355_686)"/>
<ellipse cx="314.183" cy="534.905" rx="31.021" ry="191.593" transform="rotate(31.2124 314.183 534.905)" fill="url(#paint4_linear_2355_686)"/>
<path d="M166.856 429.881C165.461 441.682 178.08 450.531 189.023 445.429C180.759 454.05 185.761 468.335 197.813 470.532C185.835 472.676 181.313 486.946 189.87 495.601C178.753 490.453 166.436 499.254 168.227 511.061C162.219 500.588 146.806 500.555 141.151 511.006C142.546 499.205 129.927 490.356 118.984 495.457C127.248 486.837 122.246 472.552 110.194 470.355C122.172 468.211 126.694 453.941 118.137 445.286C129.254 450.434 141.571 441.632 139.78 429.826C145.788 440.299 161.201 440.332 166.856 429.881Z" fill="#FF8FEC"/>
<defs>
<linearGradient id="paint0_linear_2355_686" x1="243.901" y1="285.176" x2="243.901" y2="682.922" gradientUnits="userSpaceOnUse">
<stop stop-color="#AABDFF"/>
<stop offset="1" stop-color="#FEA6EF"/>
</linearGradient>
<linearGradient id="paint1_linear_2355_686" x1="241.834" y1="131.331" x2="241.834" y2="691.177" gradientUnits="userSpaceOnUse">
<stop stop-color="#AABDFF"/>
<stop offset="1" stop-color="#FEA6EF"/>
</linearGradient>
<linearGradient id="paint2_linear_2355_686" x1="184.802" y1="476.545" x2="184.802" y2="655.155" gradientUnits="userSpaceOnUse">
<stop stop-color="#AABDFF"/>
<stop offset="1" stop-color="#FEA6EF"/>
</linearGradient>
<linearGradient id="paint3_linear_2355_686" x1="127.431" y1="435.631" x2="127.431" y2="731.787" gradientUnits="userSpaceOnUse">
<stop stop-color="#ABBDFF"/>
<stop offset="1" stop-color="#CFABFB"/>
</linearGradient>
<linearGradient id="paint4_linear_2355_686" x1="314.183" y1="343.312" x2="314.183" y2="726.498" gradientUnits="userSpaceOnUse">
<stop stop-color="#ABBDFF"/>
<stop offset="1" stop-color="#CFABFB"/>
</linearGradient>
</defs>
</svg>
