<svg width="440" height="725" viewBox="0 0 440 725" fill="none" xmlns="http://www.w3.org/2000/svg">
<path d="M332.081 104.314C329 76.9921 307.247 55.2393 279.923 52.1581C307.247 49.0768 329 27.324 332.081 0C335.162 27.3223 356.915 49.0752 384.237 52.1564C356.915 55.2376 335.162 76.9904 332.081 104.313V104.314Z" fill="#E9FF5C"/>
<path d="M75.047 285.176C72.8303 265.52 57.1808 249.87 37.5232 247.654C57.1808 245.437 72.8303 229.787 75.047 210.13C77.2637 229.786 92.9132 245.436 112.57 247.652C92.9132 249.869 77.2637 265.519 75.047 285.175V285.176Z" fill="#E9FF5C"/>
<path d="M351.967 269.342C357.971 237.072 293.131 197.297 282.925 269.342" stroke="#3A2787" stroke-width="10.5065" stroke-linecap="round"/>
<path d="M187.991 332.242C210.957 282.682 245.754 277.52 271.112 292.744C341.301 334.88 266.395 570.419 220.169 682.922" stroke="url(#paint0_linear_2355_687)" stroke-width="10.5065" stroke-linecap="round"/>
<path d="M197.366 285.748C195.561 301.015 211.887 312.463 226.044 305.863C215.353 317.015 221.824 335.497 237.416 338.34C221.919 341.113 216.07 359.575 227.139 370.772C212.757 364.112 196.821 375.499 199.139 390.773C191.366 377.224 171.426 377.182 164.11 390.702C165.914 375.435 149.589 363.986 135.431 370.587C146.123 359.434 139.652 340.953 124.059 338.11C139.556 335.337 145.406 316.875 134.336 305.677C148.719 312.338 164.654 300.951 162.336 285.677C170.109 299.225 190.049 299.268 197.366 285.748Z" fill="#D0B1FF"/>
<path d="M384.982 211.452C383.177 226.719 399.503 238.167 413.66 231.567C402.969 242.72 409.44 261.201 425.032 264.044C409.535 266.817 403.685 285.279 414.755 296.476C400.373 289.816 384.437 301.203 386.755 316.477C378.982 302.928 359.042 302.886 351.726 316.406C353.53 301.139 337.204 289.691 323.047 296.291C333.739 285.138 327.268 266.657 311.675 263.814C327.172 261.041 333.022 242.579 321.952 231.382C336.335 238.042 352.27 226.655 349.952 211.381C357.725 224.93 377.665 224.972 384.982 211.452Z" fill="#D0B1FF"/>
<path d="M236.31 131.331C344.651 143.995 233.804 509.511 200.933 691.177" stroke="url(#paint1_linear_2355_687)" stroke-width="15.0093" stroke-linecap="round"/>
<path d="M209.589 71.303C208.093 91.8704 230.662 106.226 249.234 96.5262C235.581 112.117 245.369 136.491 266.436 139.359C245.837 144.012 239.113 169.105 254.624 183.441C234.948 175.384 214.282 191.606 218.311 211.935C207.076 194.248 180.353 195.396 171.365 213.956C172.861 193.388 150.292 179.033 131.72 188.733C145.373 173.142 135.585 148.768 114.518 145.9C135.117 141.247 141.841 116.154 126.33 101.818C146.006 109.875 166.672 93.6525 162.643 73.3242C173.878 91.0107 200.601 89.8629 209.589 71.303Z" fill="#D0B1FF"/>
<path d="M154.408 476.545C188.472 528.391 209.127 617.221 215.196 655.155" stroke="url(#paint2_linear_2355_687)" stroke-width="10.5065" stroke-linecap="round"/>
<path d="M34.6066 472.216C37.9545 469.429 43.6324 468.731 52.0253 471.144C60.3 473.524 70.4599 478.733 81.8621 486.481C104.632 501.952 131.775 527.144 157.811 558.417C183.847 589.689 203.702 620.948 214.791 646.144C220.344 658.762 223.626 669.698 224.466 678.266C225.319 686.958 223.603 692.415 220.256 695.202C216.908 697.99 211.23 698.687 202.838 696.274C194.563 693.894 184.403 688.685 173.001 680.937C150.231 665.466 123.088 640.274 97.0523 609.001C71.0163 577.729 51.1607 546.47 40.0719 521.274C34.519 508.656 31.2367 497.72 30.3965 489.152C29.5444 480.461 31.2588 475.004 34.6066 472.216Z" fill="url(#paint3_linear_2355_687)" stroke="#4C30A1" stroke-width="6.00371"/>
<path d="M411.913 373.612C412.591 374.023 413.463 375.131 413.821 377.987C414.171 380.781 413.941 384.669 413.04 389.644C411.243 399.562 406.92 413.072 400.367 429.28C387.277 461.652 365.507 504.27 338.147 549.425C310.787 594.58 283.088 633.605 260.452 660.193C249.119 673.505 239.144 683.592 231.185 689.775C227.192 692.877 223.852 694.88 221.213 695.864C218.517 696.869 217.131 696.609 216.452 696.198C215.774 695.787 214.903 694.679 214.546 691.824C214.196 689.029 214.426 685.142 215.327 680.166C217.123 670.249 221.447 656.738 228 640.53C241.09 608.158 262.86 565.54 290.22 520.385C317.58 475.23 345.279 436.205 367.915 409.617C379.248 396.305 389.222 386.219 397.181 380.036C401.175 376.934 404.514 374.93 407.153 373.947C409.849 372.942 411.235 373.201 411.913 373.612Z" fill="url(#paint4_linear_2355_687)" stroke="#4C30A1" stroke-width="6.00371"/>
<path d="M166.856 429.881C165.461 441.682 178.08 450.531 189.023 445.429C180.759 454.05 185.761 468.335 197.813 470.532C185.835 472.676 181.313 486.946 189.87 495.601C178.753 490.453 166.436 499.254 168.227 511.061C162.219 500.588 146.806 500.555 141.151 511.006C142.546 499.205 129.927 490.356 118.984 495.457C127.248 486.837 122.246 472.552 110.194 470.355C122.172 468.211 126.694 453.941 118.137 445.286C129.254 450.434 141.571 441.632 139.78 429.826C145.788 440.299 161.201 440.332 166.856 429.881Z" fill="#D0B1FF"/>
<defs>
<linearGradient id="paint0_linear_2355_687" x1="243.901" y1="285.176" x2="243.901" y2="682.922" gradientUnits="userSpaceOnUse">
<stop stop-color="#4C30A1"/>
<stop offset="1" stop-color="#000B32"/>
</linearGradient>
<linearGradient id="paint1_linear_2355_687" x1="241.834" y1="131.331" x2="241.834" y2="691.177" gradientUnits="userSpaceOnUse">
<stop stop-color="#4C30A1"/>
<stop offset="1" stop-color="#000B32"/>
</linearGradient>
<linearGradient id="paint2_linear_2355_687" x1="184.802" y1="476.545" x2="184.802" y2="655.155" gradientUnits="userSpaceOnUse">
<stop stop-color="#4C30A1"/>
<stop offset="1" stop-color="#000B32"/>
</linearGradient>
<linearGradient id="paint3_linear_2355_687" x1="32.6861" y1="469.909" x2="222.176" y2="697.509" gradientUnits="userSpaceOnUse">
<stop stop-color="#000B32"/>
<stop offset="1" stop-color="#4C30A1"/>
</linearGradient>
<linearGradient id="paint4_linear_2355_687" x1="413.469" y1="371.045" x2="214.897" y2="698.766" gradientUnits="userSpaceOnUse">
<stop stop-color="#000B32"/>
<stop offset="1" stop-color="#4C30A1"/>
</linearGradient>
</defs>
</svg>
