<svg width="387" height="300" viewBox="0 0 387 300" fill="none" xmlns="http://www.w3.org/2000/svg">
<path d="M121.906 239.799C126.816 265.393 159.115 275.534 178.646 257.62C170.58 273.977 177.801 291.815 191.942 300H51.878C66.0141 291.813 73.2312 273.975 65.1664 257.62C84.6978 275.534 116.997 265.393 121.906 239.799Z" fill="#150844"/>
<path d="M354.682 141.472C357.343 158.456 371.609 168.545 386.288 168.745V300H265.495C273.319 281.902 262.892 258.812 240.803 255.351C268.434 251.022 277.818 215.978 256.058 198.411C282.147 208.476 307.807 182.816 297.742 156.727C315.31 178.487 350.353 169.103 354.682 141.472Z" fill="#150844"/>
<path d="M157.023 104.348C160.001 119.897 179.593 126.058 191.439 115.174C184.412 129.448 196.515 145.578 212.709 143.519C198.356 151.062 198.356 171.006 212.709 178.555C196.515 176.49 184.412 192.625 191.439 206.899C179.593 196.016 160.001 202.177 157.023 217.726C154.046 202.177 134.454 196.016 122.607 206.899C129.635 192.625 117.532 176.495 101.338 178.555C115.69 171.012 115.69 151.068 101.338 143.519C117.532 145.584 129.635 129.448 122.607 115.174C134.454 126.058 154.046 119.897 157.023 104.348Z" fill="#150844"/>
<path d="M310.034 88.2943C308.137 71.4752 294.747 58.0846 277.926 56.1878C294.747 54.2911 308.137 40.9004 310.034 24.0803C311.931 40.8994 325.321 54.29 342.14 56.1868C325.321 58.0835 311.931 71.4741 310.034 88.2933V88.2943Z" fill="#150844"/>
<path d="M44.1476 217.726C42.5472 203.535 31.2489 192.236 17.0569 190.636C31.2489 189.036 42.5472 177.737 44.1476 163.545C45.748 177.736 57.0463 189.035 71.2375 190.635C57.0463 192.235 45.748 203.535 44.1476 217.726Z" fill="#150844"/>
<path d="M44.1479 88.2943C41.5398 65.168 23.1277 46.7559 0 44.1479C23.1277 41.5398 41.5398 23.1277 44.1479 0C46.7559 23.1263 65.168 41.5384 88.2943 44.1464C65.168 46.7545 46.7559 65.1666 44.1479 88.2929V88.2943Z" fill="#150844"/>
<path d="M264.382 149.498C263.107 138.198 254.11 129.201 242.809 127.927C254.11 126.652 263.107 117.656 264.382 106.355C265.656 117.655 274.653 126.652 285.953 127.926C274.653 129.2 265.656 138.198 264.382 149.498Z" fill="#150844"/>
</svg>
