<svg width="315" height="315" viewBox="0 0 315 315" fill="none" xmlns="http://www.w3.org/2000/svg">
<path d="M69.5007 93C67.049 71.2604 49.7409 53.9523 28 51.5007C49.7409 49.049 67.049 31.7409 69.5007 10C71.9523 31.7396 89.2604 49.0477 111 51.4993C89.2604 53.951 71.9523 71.2591 69.5007 92.9987V93Z" fill="#ABBDFF"/>
<path d="M28.0003 126C26.8188 115.523 18.4776 107.182 8 106C18.4776 104.819 26.8188 96.4776 28.0003 86C29.1818 96.4769 37.5231 104.818 48 106C37.5231 107.181 29.1818 115.522 28.0003 125.999V126Z" fill="#ABBDFF"/>
<path d="M268.501 297C266.049 275.26 248.741 257.952 227 255.501C248.741 253.049 266.049 235.741 268.501 214C270.952 235.74 288.26 253.048 310 255.499C288.26 257.951 270.952 275.259 268.501 296.999V297Z" fill="#ABBDFF"/>
<path d="M204 299C202.819 288.523 194.478 280.182 184 279C194.478 277.819 202.819 269.478 204 259C205.182 269.477 213.523 277.818 224 279C213.523 280.181 205.182 288.522 204 298.999V299Z" fill="#ABBDFF"/>
<path d="M286.5 210C285.466 200.833 278.168 193.534 269 192.5C278.168 191.466 285.466 184.168 286.5 175C287.534 184.167 294.833 191.466 304 192.5C294.833 193.534 287.534 200.832 286.5 209.999V210Z" fill="#ABBDFF"/>
<path d="M156.56 58C161.67 85.56 195.29 96.48 215.62 77.19C203.56 102.49 224.33 131.08 252.12 127.43C227.49 140.8 227.49 176.15 252.12 189.53C224.33 185.87 203.56 214.47 215.62 239.77C195.29 220.48 161.67 231.4 156.56 258.96C151.45 231.4 117.83 220.48 97.5 239.77C109.56 214.47 88.79 185.88 61 189.53C85.63 176.16 85.63 140.81 61 127.43C88.79 131.09 109.56 102.49 97.5 77.19C117.83 96.48 151.45 85.56 156.56 58Z" fill="#FEA6EF"/>
<path d="M156.5 90C161.312 111.306 185.762 121.434 204.23 109.77C192.566 128.238 202.694 152.688 224 157.5C202.694 162.312 192.566 186.762 204.23 205.23C185.762 193.566 161.312 203.694 156.5 225C151.688 203.694 127.238 193.566 108.77 205.23C120.434 186.762 110.306 162.312 89 157.5C110.306 152.688 120.434 128.238 108.77 109.77C127.238 121.434 151.688 111.306 156.5 90Z" fill="white"/>
<path d="M121.04 178.766V139.982C121.04 138.293 120.682 136.834 119.965 135.605C119.248 134.376 118.352 133.762 117.277 133.762V132.072C117.635 132.021 120.426 130.459 125.648 127.387C126.006 127.49 126.442 127.643 126.954 127.848C127.466 128.002 128.131 128.488 128.95 129.307C129.821 130.126 130.256 131.074 130.256 132.149C130.563 131.995 131.434 131.509 132.867 130.69C136.656 128.539 138.986 127.464 139.856 127.464C140.778 127.464 141.776 127.925 142.851 128.846C143.978 129.768 144.822 130.869 145.386 132.149C145.488 132.098 146.538 131.56 148.534 130.536C152.528 128.488 154.934 127.464 155.754 127.464C157.392 127.464 158.928 128.539 160.362 130.69C161.795 132.84 162.512 134.811 162.512 136.603V175.234C162.512 178.05 163.766 179.714 166.275 180.226V181.915L157.904 186.6C156.778 186.139 155.728 185.397 154.755 184.373C153.782 183.298 153.296 182.299 153.296 181.378V143.746C153.296 140.674 152.784 138.549 151.76 137.371C150.787 136.142 148.995 135.477 146.384 135.374V175.234C146.384 178.05 147.638 179.714 150.147 180.226V181.915L141.776 186.6C140.65 186.139 139.6 185.397 138.627 184.373C137.654 183.298 137.168 182.299 137.168 181.378V143.746C137.168 140.52 136.682 138.318 135.709 137.141C134.787 135.963 132.97 135.374 130.256 135.374V174.773C130.256 176.667 130.461 178.024 130.87 178.843C131.28 179.662 132.125 180.072 133.405 180.072V182.453L117.661 189.058L116.432 186.6C117.558 186.6 118.634 185.934 119.658 184.603C120.579 183.323 121.04 181.378 121.04 178.766Z" fill="#111111"/>
<path d="M183.298 179.534C184.271 179.534 185.269 179.125 186.293 178.306V168.398C186.293 165.275 185.243 163.509 183.144 163.099V161.41L190.901 157.032C191.976 157.493 193.026 158.261 194.05 159.336C195.074 160.36 195.586 161.333 195.586 162.254V179.458C195.586 179.867 192.77 181.173 187.138 183.374C181.557 185.525 178.127 186.6 176.847 186.6C175.618 186.6 174.184 185.499 172.546 183.298C170.959 181.096 170.165 178.459 170.165 175.387V134.53C170.165 134.171 173.083 132.917 178.92 130.766C184.808 128.565 188.187 127.464 189.058 127.464C189.365 127.464 189.723 128.206 190.133 129.691C190.543 131.176 191.003 132.968 191.515 135.067C192.079 137.166 192.642 138.728 193.205 139.752C193.819 140.725 194.946 141.211 196.584 141.211V142.747C195.458 143.259 193.538 144.181 190.824 145.512C188.162 146.792 186.728 147.432 186.523 147.432C185.755 147.432 184.783 145.358 183.605 141.211C182.427 137.013 181.48 134.914 180.763 134.914C180.251 134.914 179.791 135.17 179.381 135.682V173.851C179.381 177.64 180.687 179.534 183.298 179.534Z" fill="#111111"/>
</svg>
