<svg id="eXK2Cu4bRAd1" xmlns="http://www.w3.org/2000/svg" xmlns:xlink="http://www.w3.org/1999/xlink" viewBox="0 0 1459 932" shape-rendering="geometricPrecision" text-rendering="geometricPrecision" project-id="be67e27b27c24c95b1403050c246977b" export-id="6de4bbc9fddb4adc83b5120d761098e0" cached="false">
<style><![CDATA[
#eXK2Cu4bRAd7_tr {animation: eXK2Cu4bRAd7_tr__tr 3000ms linear infinite normal forwards}@keyframes eXK2Cu4bRAd7_tr__tr { 0% {transform: translate(323.005127px,685.7335px) rotate(0deg)} 50% {transform: translate(323.005127px,685.7335px) rotate(-10.71deg)} 100% {transform: translate(323.005127px,685.7335px) rotate(0deg)}} #eXK2Cu4bRAd14_tr {animation: eXK2Cu4bRAd14_tr__tr 3000ms linear infinite normal forwards}@keyframes eXK2Cu4bRAd14_tr__tr { 0% {transform: translate(1060.780009px,768.7745px) rotate(0deg)} 40% {transform: translate(1060.780009px,768.7745px) rotate(6.55deg)} 100% {transform: translate(1060.780009px,768.7745px) rotate(0deg)}} #eXK2Cu4bRAd29_tr {animation: eXK2Cu4bRAd29_tr__tr 3000ms linear infinite normal forwards}@keyframes eXK2Cu4bRAd29_tr__tr { 0% {transform: translate(689.25px,175.943008px) rotate(0deg)} 26.666667% {transform: translate(689.25px,175.943008px) rotate(2.74deg)} 73.333333% {transform: translate(689.25px,175.943008px) rotate(-5.13deg)} 100% {transform: translate(689.25px,175.943008px) rotate(0deg)}} #eXK2Cu4bRAd39_to {animation: eXK2Cu4bRAd39_to__to 3000ms linear infinite normal forwards}@keyframes eXK2Cu4bRAd39_to__to { 0% {offset-distance: 0%} 40% {offset-distance: 49.982471%} 70% {offset-distance: 99.964943%} 100% {offset-distance: 100%}} #eXK2Cu4bRAd44_tr {animation: eXK2Cu4bRAd44_tr__tr 3000ms linear infinite normal forwards}@keyframes eXK2Cu4bRAd44_tr__tr { 0% {transform: translate(703px,291.943px) rotate(0deg)} 23.333333% {transform: translate(703px,291.943px) rotate(5deg)} 50% {transform: translate(703px,291.943px) rotate(0deg)} 73.333333% {transform: translate(703px,291.943px) rotate(-3deg)} 100% {transform: translate(703px,291.943px) rotate(0deg)}} #eXK2Cu4bRAd77_tr {animation: eXK2Cu4bRAd77_tr__tr 3000ms linear infinite normal forwards}@keyframes eXK2Cu4bRAd77_tr__tr { 0% {transform: translate(1065.541779px,882.180054px) rotate(0deg)} 70% {transform: translate(1065.541779px,882.180054px) rotate(8.69deg)} 100% {transform: translate(1065.541779px,882.180054px) rotate(0deg)}}
]]></style>
<defs><linearGradient id="eXK2Cu4bRAd5-stroke" x1="254.585" y1="709.356" x2="254.585" y2="828.193" spreadMethod="pad" gradientUnits="userSpaceOnUse" gradientTransform="translate(0 0)"><stop id="eXK2Cu4bRAd5-stroke-0" offset="0%" stop-color="#4c30a1"/><stop id="eXK2Cu4bRAd5-stroke-1" offset="100%" stop-color="#000b32"/></linearGradient><linearGradient id="eXK2Cu4bRAd8-stroke" x1="323.843" y1="528.832" x2="298.459" y2="674.624" spreadMethod="pad" gradientUnits="userSpaceOnUse" gradientTransform="translate(0 0)"><stop id="eXK2Cu4bRAd8-stroke-0" offset="0%" stop-color="#4c30a1"/><stop id="eXK2Cu4bRAd8-stroke-1" offset="100%" stop-color="#000b32"/></linearGradient><linearGradient id="eXK2Cu4bRAd10-fill" x1="0" y1="-69.171" x2="0" y2="69.171" spreadMethod="pad" gradientUnits="userSpaceOnUse" gradientTransform="translate(0 0)"><stop id="eXK2Cu4bRAd10-fill-0" offset="0%" stop-color="#000b32"/><stop id="eXK2Cu4bRAd10-fill-1" offset="100%" stop-color="#4c30a1"/></linearGradient><linearGradient id="eXK2Cu4bRAd11-fill" x1="0" y1="-96.379" x2="0" y2="96.379" spreadMethod="pad" gradientUnits="userSpaceOnUse" gradientTransform="translate(0 0)"><stop id="eXK2Cu4bRAd11-fill-0" offset="0%" stop-color="#000b32"/><stop id="eXK2Cu4bRAd11-fill-1" offset="100%" stop-color="#4c30a1"/></linearGradient><linearGradient id="eXK2Cu4bRAd12-fill" x1="0" y1="-50.342" x2="0" y2="50.342" spreadMethod="pad" gradientUnits="userSpaceOnUse" gradientTransform="translate(0 0)"><stop id="eXK2Cu4bRAd12-fill-0" offset="0%" stop-color="#000b32"/><stop id="eXK2Cu4bRAd12-fill-1" offset="100%" stop-color="#4c30a1"/></linearGradient><linearGradient id="eXK2Cu4bRAd13-stroke" x1="1156.66" y1="691.15" x2="1123.41" y2="796.08" spreadMethod="pad" gradientUnits="userSpaceOnUse" gradientTransform="translate(0 0)"><stop id="eXK2Cu4bRAd13-stroke-0" offset="0%" stop-color="#4c30a1"/><stop id="eXK2Cu4bRAd13-stroke-1" offset="100%" stop-color="#000b32"/></linearGradient><linearGradient id="eXK2Cu4bRAd15-stroke" x1="1187.08" y1="473.755" x2="1087.09" y2="789.294" spreadMethod="pad" gradientUnits="userSpaceOnUse" gradientTransform="translate(0 0)"><stop id="eXK2Cu4bRAd15-stroke-0" offset="0%" stop-color="#4c30a1"/><stop id="eXK2Cu4bRAd15-stroke-1" offset="100%" stop-color="#000b32"/></linearGradient><linearGradient id="eXK2Cu4bRAd16-stroke" x1="1144.77" y1="552.66" x2="1071.36" y2="784.31" spreadMethod="pad" gradientUnits="userSpaceOnUse" gradientTransform="translate(0 0)"><stop id="eXK2Cu4bRAd16-stroke-0" offset="0%" stop-color="#4c30a1"/><stop id="eXK2Cu4bRAd16-stroke-1" offset="100%" stop-color="#000b32"/></linearGradient><linearGradient id="eXK2Cu4bRAd20-fill" x1="0" y1="-126.5" x2="0" y2="126.5" spreadMethod="pad" gradientUnits="userSpaceOnUse" gradientTransform="translate(0 0)"><stop id="eXK2Cu4bRAd20-fill-0" offset="0%" stop-color="#000b32"/><stop id="eXK2Cu4bRAd20-fill-1" offset="100%" stop-color="#4c30a1"/></linearGradient><linearGradient id="eXK2Cu4bRAd21-fill" x1="421.536" y1="681.887" x2="321.352" y2="898.876" spreadMethod="pad" gradientUnits="userSpaceOnUse" gradientTransform="translate(0 0)"><stop id="eXK2Cu4bRAd21-fill-0" offset="0%" stop-color="#18286b"/><stop id="eXK2Cu4bRAd21-fill-1" offset="100%" stop-color="#3726a5"/></linearGradient><linearGradient id="eXK2Cu4bRAd22-fill" x1="675.766" y1="805.019" x2="675.766" y2="922.173" spreadMethod="pad" gradientUnits="userSpaceOnUse" gradientTransform="translate(0 0)"><stop id="eXK2Cu4bRAd22-fill-0" offset="0%" stop-color="#fff"/><stop id="eXK2Cu4bRAd22-fill-1" offset="100%" stop-color="#492f9d"/></linearGradient><linearGradient id="eXK2Cu4bRAd23-fill" x1="675.766" y1="805.019" x2="675.766" y2="922.173" spreadMethod="pad" gradientUnits="userSpaceOnUse" gradientTransform="translate(0 0)"><stop id="eXK2Cu4bRAd23-fill-0" offset="0%" stop-color="#fff"/><stop id="eXK2Cu4bRAd23-fill-1" offset="100%" stop-color="#492f9d"/></linearGradient><linearGradient id="eXK2Cu4bRAd30-fill" x1="751.208" y1="160.443" x2="544.903" y2="390.463" spreadMethod="pad" gradientUnits="userSpaceOnUse" gradientTransform="translate(0 0)"><stop id="eXK2Cu4bRAd30-fill-0" offset="0%" stop-color="#4c30a1"/><stop id="eXK2Cu4bRAd30-fill-1" offset="48.5577%" stop-color="#131313"/></linearGradient><linearGradient id="eXK2Cu4bRAd33-fill" x1="754.75" y1="308.943" x2="754.75" y2="665.943" spreadMethod="pad" gradientUnits="userSpaceOnUse" gradientTransform="translate(0 0)"><stop id="eXK2Cu4bRAd33-fill-0" offset="0%" stop-color="#000b32"/><stop id="eXK2Cu4bRAd33-fill-1" offset="100%" stop-color="#4c30a1"/></linearGradient><linearGradient id="eXK2Cu4bRAd41-fill" x1="423" y1="567.943" x2="423" y2="633.943" spreadMethod="pad" gradientUnits="userSpaceOnUse" gradientTransform="translate(0 0)"><stop id="eXK2Cu4bRAd41-fill-0" offset="0%" stop-color="#dbbeff"/><stop id="eXK2Cu4bRAd41-fill-1" offset="100%" stop-color="#f9dcff"/></linearGradient><linearGradient id="eXK2Cu4bRAd42-fill" x1="705" y1="279.943" x2="705" y2="335.443" spreadMethod="pad" gradientUnits="userSpaceOnUse" gradientTransform="translate(0 0)"><stop id="eXK2Cu4bRAd42-fill-0" offset="0%" stop-color="#f9dcff"/><stop id="eXK2Cu4bRAd42-fill-1" offset="100%" stop-color="#dbbeff"/></linearGradient><linearGradient id="eXK2Cu4bRAd45-fill" x1="0" y1="-49" x2="0" y2="49" spreadMethod="pad" gradientUnits="userSpaceOnUse" gradientTransform="translate(0 0)"><stop id="eXK2Cu4bRAd45-fill-0" offset="0%" stop-color="#000b32"/><stop id="eXK2Cu4bRAd45-fill-1" offset="100%" stop-color="#4c30a1"/></linearGradient><filter id="eXK2Cu4bRAd46-filter" x="-150%" y="-150%" width="400%" height="400%"><feGaussianBlur id="eXK2Cu4bRAd46-filter-drop-shadow-0-blur" in="SourceAlpha" stdDeviation="2,2"/><feOffset id="eXK2Cu4bRAd46-filter-drop-shadow-0-offset" dx="1" dy="7" result="tmp"/><feFlood id="eXK2Cu4bRAd46-filter-drop-shadow-0-flood" flood-color="rgba(108,0,0,0.25)"/><feComposite id="eXK2Cu4bRAd46-filter-drop-shadow-0-composite" operator="in" in2="tmp"/><feMerge id="eXK2Cu4bRAd46-filter-drop-shadow-0-merge" result="result"><feMergeNode id="eXK2Cu4bRAd46-filter-drop-shadow-0-merge-node-1"/><feMergeNode id="eXK2Cu4bRAd46-filter-drop-shadow-0-merge-node-2" in="SourceGraphic"/></feMerge></filter><linearGradient id="eXK2Cu4bRAd47-fill" x1="107.5" y1="0" x2="107.5" y2="188" spreadMethod="pad" gradientUnits="userSpaceOnUse" gradientTransform="translate(0 0)"><stop id="eXK2Cu4bRAd47-fill-0" offset="0%" stop-color="#dbbeff"/><stop id="eXK2Cu4bRAd47-fill-1" offset="100%" stop-color="#f9dcff"/></linearGradient><filter id="eXK2Cu4bRAd48-filter" x="-150%" y="-150%" width="400%" height="400%"><feGaussianBlur id="eXK2Cu4bRAd48-filter-drop-shadow-0-blur" in="SourceAlpha" stdDeviation="2,2"/><feOffset id="eXK2Cu4bRAd48-filter-drop-shadow-0-offset" dx="0" dy="4" result="tmp"/><feFlood id="eXK2Cu4bRAd48-filter-drop-shadow-0-flood" flood-color="#000"/><feComposite id="eXK2Cu4bRAd48-filter-drop-shadow-0-composite" operator="in" in2="tmp"/><feMerge id="eXK2Cu4bRAd48-filter-drop-shadow-0-merge" result="result"><feMergeNode id="eXK2Cu4bRAd48-filter-drop-shadow-0-merge-node-1"/><feMergeNode id="eXK2Cu4bRAd48-filter-drop-shadow-0-merge-node-2" in="SourceGraphic"/></feMerge></filter><radialGradient id="eXK2Cu4bRAd53-fill" cx="0" cy="0" r="1" spreadMethod="pad" gradientUnits="userSpaceOnUse" gradientTransform="matrix(49.5 0 0 23 0 -0.000007)"><stop id="eXK2Cu4bRAd53-fill-0" offset="0%" stop-color="rgba(200,141,255,0.7)"/><stop id="eXK2Cu4bRAd53-fill-1" offset="100%" stop-color="rgba(200,141,255,0)"/></radialGradient><filter id="eXK2Cu4bRAd54-filter" x="-150%" y="-150%" width="400%" height="400%"><feGaussianBlur id="eXK2Cu4bRAd54-filter-drop-shadow-0-blur" in="SourceAlpha" stdDeviation="2.15,2.15"/><feOffset id="eXK2Cu4bRAd54-filter-drop-shadow-0-offset" dx="3" dy="4" result="tmp"/><feFlood id="eXK2Cu4bRAd54-filter-drop-shadow-0-flood" flood-color="rgba(179,2,2,0.25)"/><feComposite id="eXK2Cu4bRAd54-filter-drop-shadow-0-composite" operator="in" in2="tmp"/><feMerge id="eXK2Cu4bRAd54-filter-drop-shadow-0-merge" result="result"><feMergeNode id="eXK2Cu4bRAd54-filter-drop-shadow-0-merge-node-1"/><feMergeNode id="eXK2Cu4bRAd54-filter-drop-shadow-0-merge-node-2" in="SourceGraphic"/></feMerge></filter><linearGradient id="eXK2Cu4bRAd56-fill" x1="618.5" y1="187.943" x2="618.5" y2="252.443" spreadMethod="pad" gradientUnits="userSpaceOnUse" gradientTransform="translate(0 0)"><stop id="eXK2Cu4bRAd56-fill-0" offset="0%" stop-color="#fff"/><stop id="eXK2Cu4bRAd56-fill-1" offset="100%" stop-color="rgba(255,255,255,0)"/></linearGradient><linearGradient id="eXK2Cu4bRAd57-fill" x1="723.5" y1="187.943" x2="723.5" y2="251.943" spreadMethod="pad" gradientUnits="userSpaceOnUse" gradientTransform="translate(0 0)"><stop id="eXK2Cu4bRAd57-fill-0" offset="0%" stop-color="#fff"/><stop id="eXK2Cu4bRAd57-fill-1" offset="100%" stop-color="rgba(255,255,255,0)"/></linearGradient><linearGradient id="eXK2Cu4bRAd58-fill" x1="710.494" y1="68.3982" x2="710.494" y2="250.943" spreadMethod="pad" gradientUnits="userSpaceOnUse" gradientTransform="translate(0 0)"><stop id="eXK2Cu4bRAd58-fill-0" offset="0%" stop-color="#000b32"/><stop id="eXK2Cu4bRAd58-fill-1" offset="100%" stop-color="#4c30a1"/></linearGradient><filter id="eXK2Cu4bRAd59-filter" x="-150%" y="-150%" width="400%" height="400%"><feGaussianBlur id="eXK2Cu4bRAd59-filter-drop-shadow-0-blur" in="SourceAlpha" stdDeviation="2,2"/><feOffset id="eXK2Cu4bRAd59-filter-drop-shadow-0-offset" dx="3" dy="8" result="tmp"/><feFlood id="eXK2Cu4bRAd59-filter-drop-shadow-0-flood" flood-color="rgba(108,0,0,0.25)"/><feComposite id="eXK2Cu4bRAd59-filter-drop-shadow-0-composite" operator="in" in2="tmp"/><feMerge id="eXK2Cu4bRAd59-filter-drop-shadow-0-merge" result="result"><feMergeNode id="eXK2Cu4bRAd59-filter-drop-shadow-0-merge-node-1"/><feMergeNode id="eXK2Cu4bRAd59-filter-drop-shadow-0-merge-node-2" in="SourceGraphic"/></feMerge></filter><linearGradient id="eXK2Cu4bRAd64-fill" x1="824.579" y1="331.943" x2="875.421" y2="425.942" spreadMethod="pad" gradientUnits="userSpaceOnUse" gradientTransform="translate(0 0)"><stop id="eXK2Cu4bRAd64-fill-0" offset="0%" stop-color="#4c30a1"/><stop id="eXK2Cu4bRAd64-fill-1" offset="100%" stop-color="#2c1f41"/></linearGradient><linearGradient id="eXK2Cu4bRAd65-fill" x1="824.579" y1="331.943" x2="875.421" y2="425.942" spreadMethod="pad" gradientUnits="userSpaceOnUse" gradientTransform="translate(0 0)"><stop id="eXK2Cu4bRAd65-fill-0" offset="0%" stop-color="#4c30a1"/><stop id="eXK2Cu4bRAd65-fill-1" offset="100%" stop-color="#2c1f41"/></linearGradient><linearGradient id="eXK2Cu4bRAd66-fill" x1="824.579" y1="331.943" x2="875.421" y2="425.942" spreadMethod="pad" gradientUnits="userSpaceOnUse" gradientTransform="translate(0 0)"><stop id="eXK2Cu4bRAd66-fill-0" offset="0%" stop-color="#4c30a1"/><stop id="eXK2Cu4bRAd66-fill-1" offset="100%" stop-color="#2c1f41"/></linearGradient><linearGradient id="eXK2Cu4bRAd70-fill" x1="797.5" y1="566.943" x2="797.5" y2="632.443" spreadMethod="pad" gradientUnits="userSpaceOnUse" gradientTransform="translate(0 0)"><stop id="eXK2Cu4bRAd70-fill-0" offset="0%" stop-color="#dbbeff"/><stop id="eXK2Cu4bRAd70-fill-1" offset="100%" stop-color="#f9dcff"/></linearGradient><linearGradient id="eXK2Cu4bRAd71-fill" x1="816" y1="645.943" x2="465" y2="645.943" spreadMethod="pad" gradientUnits="userSpaceOnUse" gradientTransform="translate(0 0)"><stop id="eXK2Cu4bRAd71-fill-0" offset="0%" stop-color="#3d385e"/><stop id="eXK2Cu4bRAd71-fill-1" offset="100%" stop-color="#0a0323"/></linearGradient><linearGradient id="eXK2Cu4bRAd78-stroke" x1="1088.25" y1="784.656" x2="1088.25" y2="885.175" spreadMethod="pad" gradientUnits="userSpaceOnUse" gradientTransform="translate(0 0)"><stop id="eXK2Cu4bRAd78-stroke-0" offset="0%" stop-color="#4c30a1"/><stop id="eXK2Cu4bRAd78-stroke-1" offset="100%" stop-color="#000b32"/></linearGradient><linearGradient id="eXK2Cu4bRAd80-fill" x1="0" y1="-58.5087" x2="0" y2="58.5083" spreadMethod="pad" gradientUnits="userSpaceOnUse" gradientTransform="translate(0 0)"><stop id="eXK2Cu4bRAd80-fill-0" offset="0%" stop-color="#000b32"/><stop id="eXK2Cu4bRAd80-fill-1" offset="100%" stop-color="#4c30a1"/></linearGradient><linearGradient id="eXK2Cu4bRAd81-fill" x1="0" y1="-81.5228" x2="0" y2="81.5232" spreadMethod="pad" gradientUnits="userSpaceOnUse" gradientTransform="translate(0 0)"><stop id="eXK2Cu4bRAd81-fill-0" offset="0%" stop-color="#000b32"/><stop id="eXK2Cu4bRAd81-fill-1" offset="100%" stop-color="#4c30a1"/></linearGradient></defs><path d="M1088,495.943c-2.48-22.001-20-39.518-42-41.999c22-2.481,39.52-19.998,42-42.001c2.48,22.002,20,39.518,42,42-22,2.481-39.52,19.997-42,41.999v.001Z" fill="#e9ff5c"/><path d="M277.5,638.943c-1.624-14.405-13.093-25.875-27.5-27.499c14.407-1.625,25.876-13.094,27.5-27.501c1.625,14.406,13.094,25.875,27.5,27.5-14.406,1.625-25.875,13.094-27.5,27.499v.001Z" fill="#e9ff5c"/><path d="M386.501,486.943c-2.039-18.072-16.427-32.461-34.501-34.499c18.074-2.038,32.462-16.427,34.501-34.501c2.038,18.073,16.426,32.462,34.499,34.5-18.073,2.038-32.461,16.427-34.499,34.499v.001Z" fill="#e9ff5c"/><path d="M233.688,709.356c12.841,22.289,39.176,77.262,41.793,118.837" fill="none" stroke="url(#eXK2Cu4bRAd5-stroke)" stroke-width="15.2635" stroke-linecap="round"/><path d="M230.417,639.943c2.391,12.56,18.117,17.536,27.627,8.746-5.641,11.529,4.074,24.558,17.074,22.895-11.522,6.093-11.522,22.202,0,28.3-13-1.668-22.715,11.365-17.074,22.895-9.51-8.791-25.236-3.814-27.627,8.745-2.39-12.559-18.116-17.536-27.626-8.745c5.641-11.53-4.075-24.559-17.074-22.895c11.521-6.093,11.521-22.203,0-28.3c12.999,1.668,22.715-11.366,17.074-22.895c9.51,8.79,25.236,3.814,27.626-8.746Z" fill="#d0b1ff"/><g id="eXK2Cu4bRAd7_tr" transform="translate(323.005127,685.7335) rotate(0)"><g transform="translate(-323.005112,-685.733496)"><path d="M300.199,524.715c9.497,21.682,27.174,82.842,21.905,154.026" fill="none" stroke="url(#eXK2Cu4bRAd8-stroke)" stroke-width="17" stroke-linecap="round"/><path d="M306,450.943c3.048,16.046,23.102,22.404,35.228,11.173-7.193,14.73,5.196,31.375,21.772,29.25-14.691,7.784-14.691,28.365,0,36.155-16.576-2.131-28.965,14.52-21.772,29.25-12.126-11.231-32.18-4.873-35.228,11.172-3.048-16.045-23.102-22.403-35.228-11.172c7.193-14.73-5.196-31.375-21.772-29.25c14.691-7.784,14.691-28.365,0-36.155c16.576,2.131,28.965-14.52,21.772-29.25c12.126,11.231,32.18,4.873,35.228-11.173Z" fill="#d0b1ff"/></g></g><ellipse rx="16.588" ry="69.1711" transform="matrix(.620601-.784127 0.784127 0.620601 233.532515 802.722428)" fill="url(#eXK2Cu4bRAd10-fill)"/><ellipse rx="25.6575" ry="96.3792" transform="matrix(.974643 0.223764-.223764 0.974643 306.426661 755.610008)" fill="url(#eXK2Cu4bRAd11-fill)"/><ellipse rx="18.0446" ry="50.3419" transform="matrix(.294354-.955697 0.955697 0.294354 263.424117 837.00678)" fill="url(#eXK2Cu4bRAd12-fill)"/><path d="M1082.19,783.018c6.93-22.979,28.15-71.642,57.59-82.454s50.19.518,56.88,7.534" fill="none" stroke="url(#eXK2Cu4bRAd13-stroke)" stroke-width="14" stroke-linecap="round"/><g id="eXK2Cu4bRAd14_tr" transform="translate(1060.780009,768.7745) rotate(0)"><g transform="translate(-1060.78,-768.774483)"><path d="M1070.69,784.096c10.23-139.928,55.91-392.622,156.81-283.972" fill="none" stroke="url(#eXK2Cu4bRAd15-stroke)" stroke-width="14" stroke-linecap="round"/><path d="M1060.78,780.956c10.27-101.852,46.58-286.484,109.72-210.187" fill="none" stroke="url(#eXK2Cu4bRAd16-stroke)" stroke-width="14" stroke-linecap="round"/><path d="M1243.18,450.622c-1.43,12.143,11.55,21.248,22.81,15.999-8.5,8.87-3.35,23.568,9.05,25.829-12.33,2.206-16.98,16.89-8.18,25.795-11.44-5.297-24.11,3.759-22.27,15.907-6.18-10.775-22.04-10.809-27.86-.056c1.44-12.142-11.54-21.248-22.8-15.999c8.5-8.869,3.35-23.568-9.05-25.829c12.33-2.206,16.98-16.889,8.17-25.795c11.44,5.298,24.12-3.759,22.27-15.907c6.19,10.776,22.04,10.81,27.86.056Z" fill="#d0b1ff"/><path d="M1181.52,535.983c-.88,10.318,8.72,18.396,18.74,15.77-7.92,6.676-6.84,19.176,2.1,24.401-10.32-.876-18.4,8.723-15.77,18.74-6.68-7.916-19.18-6.84-24.4,2.1.87-10.318-8.73-18.397-18.74-15.77c7.91-6.676,6.84-19.176-2.1-24.401c10.32.876,18.39-8.724,15.77-18.74c6.67,7.916,19.17,6.84,24.4-2.1Z" fill="#d0b1ff"/></g></g><path d="M1199.37,651.786c-1.43,12.142,11.55,21.248,22.81,15.998-8.5,8.87-3.35,23.569,9.05,25.83-12.33,2.206-16.98,16.889-8.18,25.794-11.44-5.297-24.11,3.76-22.27,15.908-6.18-10.776-22.04-10.81-27.86-.057c1.44-12.142-11.54-21.248-22.8-15.998c8.5-8.87,3.35-23.569-9.05-25.83c12.33-2.206,16.98-16.889,8.17-25.794c11.44,5.297,24.12-3.759,22.27-15.908c6.19,10.776,22.04,10.81,27.86.057Z" fill="#d0b1ff"/><ellipse rx="22.8223" ry="126.5" transform="matrix(.999354 0.035939-.035939 0.999354 1067.619935 656.567152)" fill="url(#eXK2Cu4bRAd20-fill)"/><path d="M332.699,693.473c2.422-9.014,11.333-14.681,20.524-13.053l86.94,15.406c10.187,1.805,16.759,11.805,14.375,21.872l-35.671,150.63c-1.94,8.191-9.298,13.944-17.715,13.851l-95.604-1.058c-11.758-.13-20.236-11.315-17.184-22.67l44.335-164.978Z" fill="url(#eXK2Cu4bRAd21-fill)"/><path d="M428.5,809.443c32-18.5,127.5,27,133,27l24,3-2.5,61c-48.833,8.834-151.7,25.4-172.5,21-26-5.5-29.5-41-28.5-65s14.5-28.5,46.5-47Z" fill="url(#eXK2Cu4bRAd22-fill)"/><path d="M894.5,900.443c-29.6,2-66.167-8.166-83.5-19l21-31.5c28.667-8.5,92.8-23.9,120-17.5c34,8,8.5,49,8.5,55s-29,10.5-66,13Z" fill="url(#eXK2Cu4bRAd23-fill)"/><path d="M821.658,871.634c25.046-22.557,24.047-61.835,20.418-78.654-6.353-49.468,90.612-93.186,43.424-107.037s-425.466-31.968-472.654-19.107c-47.188,12.862-38.567,64.309-37.66,99.431.908,35.122,83.941,50.458,131.129,60.846s71.689,31.659,132.943,59.856c61.253,28.197,151.092,12.862,182.4-15.335Z" fill="#171717"/><path d="M783.242,741.97c47.188-14.026,170.603-71.134,217.788-58.109c47.19,13.024,38.57,65.122,37.66,100.689-.9,35.567-83.938,51.096-131.126,61.615-47.187,10.52-71.689,32.061-132.943,60.615-55.114,25.691-133.371,15.694-171.309-7.369-2.211,4.437-5.615,8.048-10.734,9.316C576.406,912.733,557,860.149,557,834.107c0-13.792,6.615-14.737,13.276-11.815.35-4.108.899-7.741,1.528-10.691c6.352-50.094,164.25-55.605,211.438-69.631Z" fill="#161616"/><path d="M964.228,708.314c-1.807-9.442,4.126-18.638,13.474-20.884l94.998-22.829c9.59-2.304,19.24,3.534,21.66,13.094l41.28,163.468c2.21,8.747-2.4,17.779-10.78,21.124l-101.61,40.569c-10.5,4.194-22.22-2.225-24.349-13.334L964.228,708.314Z" fill="#3726a5"/><path d="M261,679.943l856.5-48v33l-200.5,48h-656v-33Z" fill="#3726a5"/><path d="M447.223,631.943h670.277l-200.5,48h-656l186.223-48Z" fill="#1e186b"/><g id="eXK2Cu4bRAd29_tr" transform="translate(689.25,175.943008) rotate(0)"><g transform="translate(-689.249997,-175.943007)"><path d="M492.5,309.443c10,0,47.5-99.333,65-149l274,30.5-9.5,130.5h-170.5l-31.5,19.5-76.5,34c-7.667,4.834-26.2,14.7-39,15.5s-10-23.666-7-36c-5.167,1.334-18.2.5-29-13.5-13.5-17.5,11.5-31.5,24-31.5Z" fill="url(#eXK2Cu4bRAd30-fill)" stroke="#4c30a1" stroke-width="8"/><path d="M508.5,360.943c-.915-8.119-7.38-14.584-15.5-15.499c8.12-.916,14.585-7.381,15.5-15.501.916,8.12,7.38,14.584,15.5,15.5-8.12.916-14.584,7.38-15.5,15.5v0Z" fill="#231451"/><path d="M557,333.943c-1.24-11-9.999-19.759-21-20.999c11.001-1.241,19.76-9.999,21-21.001c1.241,11.001,9.999,19.759,21,21-11.001,1.241-19.759,9.999-21,21v0Z" fill="#231451"/></g></g><path d="M640.094,305.535l61.717,37.905l78.085-34.162.797-.347.869.012c16.261.253,42.887,2.043,70.11,6.592c27.105,4.53,55.324,11.875,74.408,23.491c2.192,1.334,4.164,3.08,5.943,5.136c6.806,1.19,12.654,5.515,17.518,10.929c5.304,5.903,9.837,13.532,13.586,21.255c7.507,15.461,12.238,32.066,13.754,38.128c2.907,11.626,22.777,68.243,51.689,125.572c6.51,12.91,10.64,24.099,12.55,33.883c1.74,4.44,2.77,9.103,2.87,13.957.31,15.245-9.13,34.527-23.52,48.942-14.47,14.505-34.836,24.959-57.081,21.059-15.847-2.779-31.942-1.868-46.592.087-7.318.976-14.227,2.206-20.556,3.353-5.527,1.002-10.685,1.954-15.193,2.589-.374.381-.759.69-1.104.934-1.022.722-2.23,1.264-3.413,1.689-2.385.856-5.425,1.497-8.632,1.982-6.058.915-13.364,1.365-19.561,1.417l-1.224.005c-3.833,0-7.452-1.849-10.582-4.209-3.195-2.408-6.338-5.695-9.3-9.334-5.434-6.676-10.607-14.972-14.741-22.433l-288.602-8.026-2.528-.07-1.02-2.312-54.5-123.5-.814-1.844.997-1.751l44.584-78.271c1.663-15.831,8.038-52.195,21.349-77.606c4.728-9.025,13.863-15.506,24.226-20.235c10.439-4.765,22.663-7.996,34.32-10.213c23.148-4.403,45.367-4.984,47.056-5.171l1.364-.152l1.171.719Z" fill="url(#eXK2Cu4bRAd33-fill)" stroke="#4c30a1" stroke-width="8"/><path d="M653.5,460.943c-.915-8.119-7.38-14.584-15.5-15.499c8.12-.916,14.585-7.381,15.5-15.501.916,8.12,7.38,14.584,15.5,15.5-8.12.916-14.584,7.38-15.5,15.5v0Z" fill="#e9ff5c"/><path d="M624.501,444.943c-1.98-17.548-15.951-31.52-33.501-33.499c17.55-1.979,31.521-15.951,33.501-33.501c1.979,17.549,15.95,31.521,33.499,33.5-17.549,1.979-31.52,15.95-33.499,33.499v.001Z" fill="#e9ff5c"/><path d="M543,518.943c0-7.166,0-26.7,0-47.5s19-46.333,28.5-56.5l-11-11" fill="none" stroke="#4c30a1" stroke-width="9" stroke-linecap="round"/><path d="M845.5,458.944c4.877,26.237,30.861,73.361,31.5,80.5m-31.5-80.5L862,440.162m-16.5,18.782v-24.782" fill="none" stroke="#4c30a1" stroke-width="9" stroke-linecap="round"/><ellipse rx="52" ry="26.4227" transform="matrix(.852488 0.522747-.522747 0.852488 672.141875 329.650667)" fill="#4c30a1"/><g id="eXK2Cu4bRAd39_to" style="offset-path:path('M420.5,616.442993L436.35,616.442993C426.297376,616.442993,421.026546,616.442993,420.5,616.442993Q420.512503,616.442993,420.5,616.442993');offset-rotate:0deg"><g transform="translate(-420.5,-616.442993)"><path d="M470,637.737c0,21.426-23.281,27.206-52,27.206s-52-5.78-52-27.206c0-21.425,23.281-38.794,52-38.794s52,17.369,52,38.794Z" fill="#413954"/><path d="M475,606.737c0,21.426-23.281,27.206-52,27.206s-52-5.78-52-27.206c0-21.425,23.281-38.794,52-38.794s52,17.369,52,38.794Z" fill="url(#eXK2Cu4bRAd41-fill)"/></g></g><path d="M672,279.943h66v46c0,0-4,9.5-32.5,9.5s-33.5-9.5-33.5-9.5v-46Z" fill="url(#eXK2Cu4bRAd42-fill)"/><ellipse rx="52" ry="23.9748" transform="matrix(-.852488 0.522747 0.522747 0.852488 737.862382 331.564068)" fill="#4c30a1"/><g id="eXK2Cu4bRAd44_tr" transform="translate(703,291.943) rotate(0)"><g transform="translate(-702.999995,-291.942992)"><ellipse rx="29.5" ry="49" transform="matrix(-1 0 0 1 582.5 198.943)" fill="url(#eXK2Cu4bRAd45-fill)"/><g filter="url(#eXK2Cu4bRAd46-filter)"><rect width="215" height="188" rx="83" ry="83" transform="translate(583 103.943)" fill="url(#eXK2Cu4bRAd47-fill)"/></g><g filter="url(#eXK2Cu4bRAd48-filter)"><path d="M591.5,81.9429c29.501-21.4998,161-24.499,199-10.499C828.5,85.444,856,184.944,861,204.944c5.826,23.304,45.5,82.499,59.5,102.999c11.2,16.4,30.71,38.006,29.5,50s-22.2,42.201-47,51.001-30.333-7.667-30-17c-8.667,19.167-31,58.6-51,63s-12.667-21.167-6.5-34.5c-8.333,6.5-29.8,18.7-49,15.5-24-4-25.5-24,16-120c14-83.001,7.5-79.501,7.5-91.001s.5-27.999.5-27.999l-62.5-85c-35.833,1.167-108.1,3.4-110.5,3l-29.5,53.5-34.5,16.5c-2.5-29.167,14.4-85.8011,38-103.0011Z" fill="#1a1a1a"/><path d="M715.896,27.0992c6.018-13.3408,16.611-21.57857,23.659-18.39946c7.048,3.17936,7.883,16.57206,1.865,29.91306s-16.61,21.5787-23.658,18.3994-7.883-16.572-1.866-29.913Z" fill="#1a1a1a"/><path d="M724.884,8.547c4.729-3.67823,10.771-5.99388,16.315-3.49317c5.544,2.5009,7.807,8.56297,8.18,14.54297.386,6.1843-1.091,13.5185-4.313,20.6611s-7.742,13.1033-12.633,16.9073c-.954.7414-1.962,1.4249-3.007,2.0273c6.35.2111,12.516.5354,18.395.9736c18.199,1.3566,34.01,3.8213,44.062,7.5245c10.68,3.9347,20.112,13.6203,28.255,25.4365c8.217,11.9249,15.496,26.5769,21.674,41.2659c12.362,29.39,20.545,59.485,23.069,69.581c1.334,5.338,4.714,13.054,9.454,22.167c4.698,9.033,10.589,19.171,16.763,29.267c12.344,20.189,25.718,40.048,32.705,50.28c2.74,4.013,6.003,8.363,9.403,12.902c3.376,4.507,6.879,9.188,9.998,13.746c3.111,4.545,5.932,9.096,7.903,13.363c1.93,4.176,3.283,8.571,2.872,12.645v.001c-.382,3.788-2.218,8.481-4.83,13.297-2.665,4.913-6.333,10.308-10.736,15.567-8.749,10.45-20.75,20.777-34.075,25.505-13.213,4.688-22.575,3.027-28.505-2.559-1.891-1.78-3.304-3.848-4.34-6.008-4.381,8.422-10.089,18.22-16.491,27.163-4.677,6.532-9.795,12.712-15.113,17.58-5.265,4.819-11.035,8.642-17.03,9.961-5.655,1.244-10.585.615-13.978-2.708-3.207-3.14-4.001-7.723-3.943-11.855.06-4.344,1.078-9.223,2.484-13.864-3.27,1.801-6.947,3.582-10.884,5.13-9.152,3.597-20.098,6.102-30.695,4.336-6.442-1.074-12.272-3.359-16.037-8.53-3.719-5.106-4.795-12.175-3.847-21.329c1.88-18.155,12.098-47.588,32.676-95.226c6.929-41.147,8.744-60.654,8.865-71.22.06-5.228-.296-8.246-.658-10.645-.363-2.403-.842-4.738-.842-7.997c0-5.796.126-12.832.251-18.402.063-2.789.126-5.217.173-6.948.014-.531.027-.997.038-1.388l-60.439-82.196c-17.885.58-43.722,1.391-65.696,2.02-11.425.328-21.814.606-29.499.778-3.84.086-7.018.145-9.316.171-.619.006-1.18.01-1.676.011l-28.333,51.386-.62,1.124-1.157.554-34.5,16.5-5.217,2.495-.494-5.763c-1.315-15.34,2.451-37.38,9.415-57.63c6.919-20.118,17.373-39.5861,30.215-48.9449l.785-.5537c8.309-5.6783,22.501-9.8368,39.054-12.8291c17.302-3.1277,37.885-5.0947,58.665-5.9434c8.586-.3507,17.222-.5081,25.691-.4795-3.548-3.0126-5.099-7.9282-5.402-12.789-.386-6.1844,1.09-13.5185,4.312-20.6612c3.222-7.1425,7.743-13.1033,12.634-16.9072Z" fill="none" stroke="#4c30a1" stroke-width="8"/></g><path d="M658,264.943c1.476,2,5.702,5.5,12,5.5s9-3,11.5-5.5" fill="none" stroke="#d17ae9" stroke-width="7" stroke-linecap="round"/><ellipse rx="49.5" ry="23" transform="translate(668.5 241.943)" fill="url(#eXK2Cu4bRAd53-fill)"/><g filter="url(#eXK2Cu4bRAd54-filter)"><path d="M767.468,187.943h-191.538c-1.978,0-3.415,1.883-2.893,3.792l15.859,58c.357,1.304,1.542,2.208,2.894,2.208h48.72c1.206,0,2.295-.722,2.764-1.833l21.452-50.833c.469-1.111,1.558-1.834,2.764-1.834h4.915c1.259,0,2.383.786,2.817,1.967l18.556,50.567c.434,1.181,1.558,1.966,2.817,1.966h61.357c1.469,0,2.723-1.064,2.961-2.514l9.515-58c.3-1.826-1.11-3.486-2.96-3.486Z" fill="#000b32"/></g><path d="M623.5,252.443l-25.5-64.5h25.5l15.5,64.5h-15.5Z" fill="url(#eXK2Cu4bRAd56-fill)"/><path d="M728.5,251.943l-25.5-64h25.5l15.5,64h-15.5Z" fill="url(#eXK2Cu4bRAd57-fill)"/><path d="M600.5,83.4433c32.999-18.4999,129.46-18.4058,154.5-8c32.22,13.3903,49.38,49.4277,57.345,77.6297.712-.085,1.43-.13,2.155-.13c4.16,0,8.118,1.433,11.708,4.014c14.86.621,26.792,20.749,26.792,45.486c0,25.129-12.313,45.5-27.5,45.5-.263,0-.524-.007-.785-.019-3.183,1.952-6.624,3.019-10.215,3.019-16.293,0-29.5-21.938-29.5-49c0-18.166,5.951-34.024,14.793-42.486-6.775-17.955-25.701-62.2875-50.293-71.0137-33.167-11.7686-121.15-7.0297-144.5,5.5-20.5,10.9997-21.167,45.6667-21,64.9997h-16c-.334-18.333,6.1-60.6996,32.5-75.4997Z" fill="url(#eXK2Cu4bRAd58-fill)"/><g filter="url(#eXK2Cu4bRAd59-filter)"><path d="M611.936,93.3953c16.709-10.0352,37.666,4.1812,46.056,12.5437.955.651,2.473,3.935,3.24,7.504.18-.617.464-1.256.864-1.911c6.834-7.667,24.9-17.1888,58.5-19.5889c42-2.9999,60,71.9989,67.5,81.9999c7.5,10,26,20.588,21,32.088-2.262,5.203-13.734.581-25.204-6.457c1.591,2.239,3.023,4.428,4.204,6.457c2.167,4,6.8,13.2,0,16-8.5,3.5-24-5-53-23-28.999-18-34.502-69.088-42.502-78.588s-18.596,2.073-24.5,1c-2.912-.529-5.264-1.9-6.386-3.803-.02,2.274-.595,4.268-2.114,5.303-5.891,4.014-17.792,6.998-36,7.5s-16.478,43.234-20.762,64.309c-4.285,21.074-64.265,26.092-73.905,16.558-7.711-7.626,10.712-14.217,20.887-16.558-10.889-1.506-20.222-5.175-26.22-14.809-7.497-12.042,12.831-19.813,32.111-19.311c19.279.501,35.345-54.693,56.231-67.2367Z" fill="#d0b1ff"/></g><path d="M704.798,199.095c2.238-1.856,5.547-1.535,7.391.717l11.936,14.577l14.484-12.014c2.237-1.856,5.547-1.535,7.391.717s1.525,5.583-.713,7.439l-14.483,12.014l11.937,14.578c1.844,2.252,1.525,5.583-.712,7.439-2.238,1.856-5.547,1.535-7.391-.718L722.7,229.267l-14.481,12.014c-2.238,1.856-5.548,1.536-7.392-.716s-1.525-5.583.712-7.439l14.483-12.015-11.936-14.576c-1.844-2.252-1.525-5.584.712-7.44Z" fill="#e9ff5c"/><path d="M626.972,199.935c1.807-2.283,5.111-2.659,7.379-.84c2.268,1.818,2.641,5.143.835,7.426l-11.889,15.02L636.5,235.407c2.006,2.107,1.935,5.452-.158,7.472-2.094,2.019-5.418,1.948-7.425-.16l-12.222-12.836-11.005,13.906c-1.807,2.283-5.111,2.66-7.379.842-2.267-1.819-2.642-5.144-.835-7.427l11.887-15.021-13.201-13.864c-2.006-2.107-1.935-5.453.158-7.472c2.094-2.019,5.418-1.949,7.424.158l12.222,12.836l11.006-13.906Z" fill="#e9ff5c"/><path d="M831.5,175.943c1.39,8.207,8.453,12.108,13.789,7.615-3.37,7.114-.444,16.532,5.711,18.385-6.155,1.854-9.081,11.272-5.711,18.385-5.336-4.493-12.399-.591-13.789,7.615-1.39-8.206-8.453-12.108-13.789-7.615c3.37-7.113.444-16.531-5.711-18.385c6.155-1.853,9.081-11.271,5.711-18.385c5.336,4.493,12.399.592,13.789-7.615Z" fill="#e9ff5c"/><path d="M835.5,394.943c.916,8.12,7.38,14.585,15.5,15.5-8.119.916-14.584,7.38-15.5,15.499-.916-8.119-7.38-14.583-15.5-15.499c8.12-.915,14.584-7.38,15.5-15.5Z" fill="url(#eXK2Cu4bRAd64-fill)"/><path d="M802,361.943c1.241,11.001,9.999,19.76,21,21-11.001,1.241-19.759,9.999-21,20.999-1.241-11-9.999-19.758-21-20.999c11.001-1.24,19.759-9.998,21-21Z" fill="url(#eXK2Cu4bRAd65-fill)"/><path d="M898,331.943c1.241,11.001,9.999,19.76,21,21-11.001,1.241-19.759,9.999-21,20.999-1.241-11-9.999-19.758-21-20.999c11.001-1.24,19.759-9.998,21-21Z" fill="url(#eXK2Cu4bRAd66-fill)"/><path d="M761.144,116.82c5.274,7.766,9.714,16.452,13.447,24.695-.368-.812-.742-1.629-1.123-2.449.341,5.091-2.856,10.045-8.077,11.863-6.222,2.165-12.959-.94-15.047-6.938c2.087,5.996-1.264,12.615-7.487,14.781-5.803,2.021-12.052-.546-14.56-5.765c1.274,5.648-2.031,11.54-7.832,13.559-3.57,1.243-7.308.748-10.241-1.03.088.202.177.404.266.607-5.054-11.473-8.485-23.334-11.428-32.31.417-.198.85-.376,1.297-.529c6.232-2.133,12.954,1.005,15.011,7.013-2.056-6.006,1.329-12.608,7.563-14.742c5.813-1.99,12.048.609,14.53,5.841-1.246-5.655,2.091-11.531,7.902-13.52c6.232-2.134,12.954,1.006,15.011,7.014.063.183.119.369.172.553l.015-.006c-1.004-2.934-.709-6.009.581-8.637Z" fill="#e8d7ff"/><path d="M597.85,108.943c-1.053,1.531-2.098,3.118-3.135,4.745.503,2.37.263,4.893-.856,7.212c2.759-5.718,9.806-8.036,15.741-5.173c5.534,2.669,8.144,8.9,6.233,14.366c3.088-4.898,9.589-6.734,15.122-4.066c1.828.882,3.337,2.154,4.47,3.658.632-.063,1.254-.131,1.865-.201-3.923.45-8.277.755-13.068.887-11.33.312-14.94,16.976-17.083,34.598.101-.833.205-1.664.313-2.491-4.971-2.948-7.226-9.011-5.054-14.334-2.398,5.878-9.288,8.628-15.389,6.138-5.69-2.321-8.681-8.378-7.112-13.952-.941,1.721-2.297,3.113-3.897,4.114c7.17-10.607,14.287-24.507,21.85-35.501Z" fill="#e8d7ff"/></g></g><path d="M1046.75,715.13c7.64,16.617,24.98,20.843,33.85,8.248-3.17,17.028,8.45,35.333,22.68,35.735-12.12,7.464-13.03,29.127-1.77,42.288-13.98-6.473-26.88,5.857-25.19,24.069-7.65-16.617-24.99-20.842-33.86-8.248c3.17-17.028-8.45-35.333-22.68-35.735c12.13-7.464,13.04-29.126,1.78-42.288c13.98,6.473,26.88-5.857,25.19-24.069Z" fill="#1e186b"/><path d="M862,605.443c0,21.263-28.878,27-64.5,27s-64.5-5.737-64.5-27s28.878-38.5,64.5-38.5s64.5,17.237,64.5,38.5Z" fill="url(#eXK2Cu4bRAd70-fill)"/><path d="M525.83,626.894l-43.618,28c-5.041,3.236-2.749,11.049,3.241,11.049h275.816c1.31,0,2.583-.428,3.627-1.22l36.898-28c4.58-3.475,2.122-10.78-3.626-10.78h-269.097c-1.149,0-2.274.33-3.241.951Z" fill="url(#eXK2Cu4bRAd71-fill)"/><path d="M467.966,667.888l-58.244-170c-1.334-3.894,1.56-7.945,5.676-7.945h285.594c2.671,0,5.02,1.765,5.763,4.33l49.272,170c1.112,3.838-1.767,7.67-5.763,7.67h-276.622c-2.564,0-4.845-1.629-5.676-4.055Z" fill="#3d385e"/><path d="M578.175,611.985c12.87-.819,22.597-12.568,21.726-26.242-.601-9.441-6.098-17.33-13.679-21.041-1.193-.584-2.523.297-2.602,1.623l-.832,13.939c-.06,1.008-.862,1.813-1.87,1.877l-9.477.604c-.906.057-1.738-.503-2.025-1.364l-4.294-12.892c-.414-1.242-1.893-1.758-2.904-.926-5.889,4.847-9.466,12.624-8.923,21.149.871,13.673,12.01,24.093,24.88,23.273Z" clip-rule="evenodd" fill="#e4e4e4" fill-rule="evenodd"/><path d="M871,541.977l-.55,4.466l1.003.123.96-.317L871,541.977Zm116.359-4.076c2.186,1.183,4.916.369,6.099-1.816c1.182-2.186.369-4.917-1.817-6.1l-2.141,3.958-2.141,3.958ZM806,566.977l4.493.259c.227-3.938,1.29-9.917,3.621-14.904c2.375-5.079,5.476-8.004,9.319-8.376L823,539.477l-.433-4.479c-8.557.828-13.706,7.319-16.606,13.523-2.944,6.297-4.181,13.468-4.454,18.196l4.493.26Zm17-27.5l.433,4.479c11.829-1.145,36.109,1.144,47.017,2.487l.55-4.466.55-4.467c-10.759-1.324-36.012-3.768-48.983-2.512l.433,4.479Zm48,2.5l1.413,4.272c10.515-3.477,27.272-8.648,43.313-12.844c8.023-2.098,15.815-3.939,22.533-5.203c6.822-1.284,12.185-1.902,15.511-1.731l.23-4.494.23-4.494c-4.474-.23-10.74.577-17.636,1.874-7,1.318-15.014,3.214-23.145,5.341-16.267,4.255-33.211,9.484-43.862,13.006L871,541.977Zm83-20l-.23,4.494c14.459.741,23.366,5.9,33.589,11.43l2.141-3.958l2.141-3.958c-10.11-5.469-20.67-11.644-37.411-12.502l-.23,4.494Z" fill="#4c30a1"/><path d="M703,494.943l52.5,172.5" fill="none" stroke="#827fb5" stroke-width="9" stroke-linecap="round"/><path d="M415,494.031h287.5" fill="none" stroke="#827fb5" stroke-width="9" stroke-linecap="round"/><g id="eXK2Cu4bRAd77_tr" transform="translate(1065.541779,882.180054) rotate(0)"><g transform="translate(-1065.541778,-882.180052)"><path d="M1105.92,784.656c-10.86,18.854-33.14,65.353-35.35,100.519" fill="none" stroke="url(#eXK2Cu4bRAd78-stroke)" stroke-width="12.9107" stroke-linecap="round"/><path d="M1108.69,725.943c-2.02,10.624-15.33,14.833-23.37,7.398c4.77,9.752-3.45,20.773-14.44,19.366c9.74,5.153,9.74,18.78,0,23.937c10.99-1.411,19.21,9.614,14.44,19.366c8.04-7.435,21.35-3.226,23.37,7.398c2.02-10.624,15.32-14.833,23.37-7.398-4.78-9.752,3.44-20.773,14.44-19.366-9.75-5.153-9.75-18.78,0-23.937-11,1.41-19.22-9.614-14.44-19.366-8.05,7.435-21.35,3.226-23.37-7.398Z" fill="#d0b1ff"/></g></g><ellipse rx="14.031" ry="58.5087" transform="matrix(-.6206-.784127-.784127 0.6206 1106.054097 863.630419)" fill="url(#eXK2Cu4bRAd80-fill)"/><ellipse rx="21.7025" ry="81.5228" transform="matrix(-.974644 0.223763 0.223763 0.974644 1044.389575 823.78089)" fill="url(#eXK2Cu4bRAd81-fill)"/></svg>
