<svg width="1459" height="932" viewBox="0 0 1459 932" fill="none" xmlns="http://www.w3.org/2000/svg">
<path d="M1088 495.943C1085.52 473.942 1068 456.425 1046 453.944C1068 451.463 1085.52 433.946 1088 411.943C1090.48 433.945 1108 451.461 1130 453.943C1108 456.424 1090.48 473.94 1088 495.942V495.943Z" fill="#E9FF5C"/>
<path d="M277.5 638.943C275.876 624.538 264.407 613.068 250 611.444C264.407 609.819 275.876 598.35 277.5 583.943C279.125 598.349 290.594 609.818 305 611.443C290.594 613.068 279.125 624.537 277.5 638.942V638.943Z" fill="#E9FF5C"/>
<path d="M386.501 486.943C384.462 468.871 370.074 454.482 352 452.444C370.074 450.406 384.462 436.017 386.501 417.943C388.539 436.016 402.927 450.405 421 452.443C402.927 454.481 388.539 468.87 386.501 486.942V486.943Z" fill="#E9FF5C"/>
<path d="M233.688 709.356C246.529 731.645 272.864 786.618 275.481 828.193" stroke="url(#paint0_linear_2281_1335)" stroke-width="15.2635" stroke-linecap="round"/>
<path d="M230.417 639.943C232.808 652.503 248.534 657.479 258.044 648.689C252.403 660.218 262.118 673.247 275.118 671.584C263.596 677.677 263.596 693.786 275.118 699.884C262.118 698.216 252.403 711.249 258.044 722.779C248.534 713.988 232.808 718.965 230.417 731.524C228.027 718.965 212.301 713.988 202.791 722.779C208.432 711.249 198.716 698.22 185.717 699.884C197.238 693.791 197.238 677.681 185.717 671.584C198.716 673.252 208.432 660.218 202.791 648.689C212.301 657.479 228.027 652.503 230.417 639.943Z" fill="#D0B1FF"/>
<path d="M300.199 524.715C309.696 546.397 327.373 607.557 322.104 678.741" stroke="url(#paint1_linear_2281_1335)" stroke-width="17" stroke-linecap="round"/>
<path d="M306 450.943C309.048 466.989 329.102 473.347 341.228 462.116C334.035 476.846 346.424 493.491 363 491.366C348.309 499.15 348.309 519.731 363 527.521C346.424 525.39 334.035 542.041 341.228 556.771C329.102 545.54 309.048 551.898 306 567.943C302.952 551.898 282.898 545.54 270.772 556.771C277.965 542.041 265.576 525.396 249 527.521C263.691 519.737 263.691 499.156 249 491.366C265.576 493.497 277.965 476.846 270.772 462.116C282.898 473.347 302.952 466.989 306 450.943Z" fill="#D0B1FF"/>
<ellipse cx="233.533" cy="802.722" rx="16.588" ry="69.1711" transform="rotate(-51.64 233.533 802.722)" fill="url(#paint2_linear_2281_1335)"/>
<ellipse cx="306.427" cy="755.61" rx="25.6575" ry="96.3792" transform="rotate(12.9302 306.427 755.61)" fill="url(#paint3_linear_2281_1335)"/>
<ellipse cx="263.423" cy="837.007" rx="18.0446" ry="50.3419" transform="rotate(-72.8812 263.423 837.007)" fill="url(#paint4_linear_2281_1335)"/>
<path d="M1082.19 783.018C1089.12 760.039 1110.34 711.376 1139.78 700.564C1169.22 689.752 1189.97 701.082 1196.66 708.098" stroke="url(#paint5_linear_2281_1335)" stroke-width="14" stroke-linecap="round"/>
<path d="M1070.69 784.096C1080.92 644.168 1126.6 391.474 1227.5 500.124" stroke="url(#paint6_linear_2281_1335)" stroke-width="14" stroke-linecap="round"/>
<path d="M1060.78 780.956C1071.05 679.104 1107.36 494.472 1170.5 570.769" stroke="url(#paint7_linear_2281_1335)" stroke-width="14" stroke-linecap="round"/>
<path d="M1199.37 651.786C1197.94 663.928 1210.92 673.034 1222.18 667.784C1213.68 676.654 1218.83 691.353 1231.23 693.614C1218.9 695.82 1214.25 710.503 1223.05 719.408C1211.61 714.111 1198.94 723.168 1200.78 735.316C1194.6 724.54 1178.74 724.506 1172.92 735.259C1174.36 723.117 1161.38 714.011 1150.12 719.261C1158.62 710.391 1153.47 695.692 1141.07 693.431C1153.4 691.225 1158.05 676.542 1149.24 667.637C1160.68 672.934 1173.36 663.878 1171.51 651.729C1177.7 662.505 1193.55 662.539 1199.37 651.786Z" fill="#D0B1FF"/>
<path d="M1243.18 450.622C1241.75 462.765 1254.73 471.87 1265.99 466.621C1257.49 475.491 1262.64 490.189 1275.04 492.45C1262.71 494.656 1258.06 509.34 1266.86 518.245C1255.42 512.948 1242.75 522.004 1244.59 534.152C1238.41 523.377 1222.55 523.343 1216.73 534.096C1218.17 521.954 1205.19 512.848 1193.93 518.097C1202.43 509.228 1197.28 494.529 1184.88 492.268C1197.21 490.062 1201.86 475.379 1193.05 466.473C1204.49 471.771 1217.17 462.714 1215.32 450.566C1221.51 461.342 1237.36 461.376 1243.18 450.622Z" fill="#D0B1FF"/>
<ellipse cx="1067.62" cy="656.567" rx="22.8223" ry="126.5" transform="rotate(2.05959 1067.62 656.567)" fill="url(#paint8_linear_2281_1335)"/>
<path d="M1181.52 535.983C1180.64 546.301 1190.24 554.379 1200.26 551.753C1192.34 558.429 1193.42 570.929 1202.36 576.154C1192.04 575.278 1183.96 584.877 1186.59 594.894C1179.91 586.978 1167.41 588.054 1162.19 596.994C1163.06 586.676 1153.46 578.597 1143.45 581.224C1151.36 574.548 1150.29 562.048 1141.35 556.823C1151.67 557.699 1159.74 548.099 1157.12 538.083C1163.79 545.999 1176.29 544.923 1181.52 535.983Z" fill="#D0B1FF"/>
<path d="M332.699 693.473C335.121 684.459 344.032 678.792 353.223 680.42L440.163 695.826C450.35 697.631 456.922 707.631 454.538 717.698L418.867 868.328C416.927 876.519 409.569 882.272 401.152 882.179L305.548 881.121C293.79 880.991 285.312 869.806 288.364 858.451L332.699 693.473Z" fill="url(#paint9_linear_2281_1335)"/>
<path d="M428.5 809.443C460.5 790.943 556 836.443 561.5 836.443L585.5 839.443L583 900.443C534.167 909.277 431.3 925.843 410.5 921.443C384.5 915.943 381 880.443 382 856.443C383 832.443 396.5 827.943 428.5 809.443Z" fill="url(#paint10_linear_2281_1335)"/>
<path d="M894.5 900.443C864.9 902.443 828.333 892.277 811 881.443L832 849.943C860.667 841.443 924.8 826.043 952 832.443C986 840.443 960.5 881.443 960.5 887.443C960.5 893.443 931.5 897.943 894.5 900.443Z" fill="url(#paint11_linear_2281_1335)"/>
<path d="M821.658 871.634C846.704 849.077 845.705 809.799 842.076 792.98C835.723 743.512 932.688 699.794 885.5 685.943C838.312 672.092 460.034 653.975 412.846 666.836C365.658 679.698 374.279 731.145 375.186 766.267C376.094 801.389 459.127 816.725 506.315 827.113C553.503 837.501 578.004 858.772 639.258 886.969C700.511 915.166 790.35 899.831 821.658 871.634Z" fill="#171717"/>
<path d="M783.242 741.97C830.43 727.944 953.845 670.836 1001.03 683.861C1048.22 696.885 1039.6 748.983 1038.69 784.55C1037.79 820.117 954.752 835.646 907.564 846.165C860.377 856.685 835.875 878.226 774.621 906.78C719.507 932.471 641.25 922.474 603.312 899.411C601.101 903.848 597.697 907.459 592.578 908.727C576.406 912.733 557 860.149 557 834.107C557 820.315 563.615 819.37 570.276 822.292C570.626 818.184 571.175 814.551 571.804 811.601C578.156 761.507 736.054 755.996 783.242 741.97Z" fill="#161616"/>
<path d="M964.228 708.314C962.421 698.872 968.354 689.676 977.702 687.43L1072.7 664.601C1082.29 662.297 1091.94 668.135 1094.36 677.695L1135.64 841.163C1137.85 849.91 1133.24 858.942 1124.86 862.287L1023.25 902.856C1012.75 907.05 1001.03 900.631 998.901 889.522L964.228 708.314Z" fill="#3726A5"/>
<path d="M261 679.943L1117.5 631.943V664.943L917 712.943H261V679.943Z" fill="#3726A5"/>
<path d="M447.223 631.943H1117.5L917 679.943H261L447.223 631.943Z" fill="#1E186B"/>
<path d="M492.5 309.443C502.5 309.443 540 210.11 557.5 160.443L831.5 190.943L822 321.443H651.5L620 340.943L543.5 374.943C535.833 379.777 517.3 389.643 504.5 390.443C491.7 391.243 494.5 366.777 497.5 354.443C492.333 355.777 479.3 354.943 468.5 340.943C455 323.443 480 309.443 492.5 309.443Z" fill="url(#paint12_linear_2281_1335)" stroke="#4C30A1" stroke-width="8"/>
<path d="M508.5 360.943C507.585 352.824 501.12 346.359 493 345.444C501.12 344.528 507.585 338.063 508.5 329.943C509.416 338.063 515.88 344.527 524 345.443C515.88 346.359 509.416 352.823 508.5 360.943V360.943Z" fill="#231451"/>
<path d="M557 333.943C555.76 322.943 547.001 314.184 536 312.944C547.001 311.703 555.76 302.945 557 291.943C558.241 302.944 566.999 311.702 578 312.943C566.999 314.184 558.241 322.942 557 333.943V333.943Z" fill="#231451"/>
<path d="M640.094 305.535L701.811 343.44L779.896 309.278L780.693 308.931L781.562 308.943C797.823 309.196 824.449 310.986 851.672 315.535C878.777 320.065 906.996 327.41 926.08 339.026C928.272 340.36 930.244 342.106 932.023 344.162C938.829 345.352 944.677 349.677 949.541 355.091C954.845 360.994 959.378 368.623 963.127 376.346C970.634 391.807 975.365 408.412 976.881 414.474C979.788 426.1 999.658 482.717 1028.57 540.046C1035.08 552.956 1039.21 564.145 1041.12 573.929C1042.86 578.369 1043.89 583.032 1043.99 587.886C1044.3 603.131 1034.86 622.413 1020.47 636.828C1006 651.333 985.634 661.787 963.389 657.887C947.542 655.108 931.447 656.019 916.797 657.974C909.479 658.95 902.57 660.18 896.241 661.327C890.714 662.329 885.556 663.281 881.048 663.916C880.674 664.297 880.289 664.606 879.944 664.85C878.922 665.572 877.714 666.114 876.531 666.539C874.146 667.395 871.106 668.036 867.899 668.521C861.841 669.436 854.535 669.886 848.338 669.938L847.114 669.943C843.281 669.943 839.662 668.094 836.532 665.734C833.337 663.326 830.194 660.039 827.232 656.4C821.798 649.724 816.625 641.428 812.491 633.967L523.889 625.941L521.361 625.871L520.341 623.559L465.841 500.059L465.027 498.215L466.024 496.464L510.608 418.193C512.271 402.362 518.646 365.998 531.957 340.587C536.685 331.562 545.82 325.081 556.183 320.352C566.622 315.587 578.846 312.356 590.503 310.139C613.651 305.736 635.87 305.155 637.559 304.968L638.923 304.816L640.094 305.535Z" fill="url(#paint13_linear_2281_1335)" stroke="#4C30A1" stroke-width="8"/>
<path d="M653.5 460.943C652.585 452.824 646.12 446.359 638 445.444C646.12 444.528 652.585 438.063 653.5 429.943C654.416 438.063 660.88 444.527 669 445.443C660.88 446.359 654.416 452.823 653.5 460.943V460.943Z" fill="#E9FF5C"/>
<path d="M624.501 444.943C622.521 427.395 608.55 413.423 591 411.444C608.55 409.465 622.521 395.493 624.501 377.943C626.48 395.492 640.451 409.464 658 411.443C640.451 413.422 626.48 427.393 624.501 444.942V444.943Z" fill="#E9FF5C"/>
<path d="M543 518.943C543 511.777 543 492.243 543 471.443C543 450.643 562 425.11 571.5 414.943L560.5 403.943" stroke="#4C30A1" stroke-width="9" stroke-linecap="round"/>
<path d="M845.5 458.944C850.377 485.181 876.361 532.305 877 539.444M845.5 458.944L862 440.162M845.5 458.944L845.5 434.162" stroke="#4C30A1" stroke-width="9" stroke-linecap="round"/>
<ellipse cx="672.142" cy="329.651" rx="52" ry="26.4227" transform="rotate(31.5167 672.142 329.651)" fill="#4C30A1"/>
<path d="M470 637.737C470 659.163 446.719 664.943 418 664.943C389.281 664.943 366 659.163 366 637.737C366 616.312 389.281 598.943 418 598.943C446.719 598.943 470 616.312 470 637.737Z" fill="#413954"/>
<path d="M475 606.737C475 628.163 451.719 633.943 423 633.943C394.281 633.943 371 628.163 371 606.737C371 585.312 394.281 567.943 423 567.943C451.719 567.943 475 585.312 475 606.737Z" fill="url(#paint14_linear_2281_1335)"/>
<path d="M672 279.943H738V325.943C738 325.943 734 335.443 705.5 335.443C677 335.443 672 325.943 672 325.943V279.943Z" fill="url(#paint15_linear_2281_1335)"/>
<ellipse cx="52" cy="23.9748" rx="52" ry="23.9748" transform="matrix(-0.852488 0.522747 0.522747 0.852488 769.659 283.943)" fill="#4C30A1"/>
<ellipse cx="29.5" cy="49" rx="29.5" ry="49" transform="matrix(-1 0 0 1 612 149.943)" fill="url(#paint16_linear_2281_1335)"/>
<g filter="url(#filter0_d_2281_1335)">
<rect x="583" y="103.943" width="215" height="188" rx="83" fill="url(#paint17_linear_2281_1335)"/>
</g>
<g filter="url(#filter1_d_2281_1335)">
<path d="M591.5 81.9429C621.001 60.4431 752.5 57.4439 790.5 71.4439C828.5 85.444 856 184.944 861 204.944C866.826 228.248 906.5 287.443 920.5 307.943C931.7 324.343 951.21 345.949 950 357.943C948.79 369.937 927.8 400.144 903 408.944C878.2 417.744 872.667 401.277 873 391.944C864.333 411.111 842 450.544 822 454.944C802 459.344 809.333 433.777 815.5 420.444C807.167 426.944 785.7 439.144 766.5 435.944C742.5 431.944 741 411.944 782.5 315.944C796.5 232.943 790 236.443 790 224.943C790 213.443 790.5 196.944 790.5 196.944L728 111.944C692.167 113.111 619.9 115.344 617.5 114.944L588 168.444L553.5 184.944C551 155.777 567.9 99.1429 591.5 81.9429Z" fill="#1A1A1A"/>
<path d="M715.896 27.0992C721.914 13.7584 732.507 5.52063 739.555 8.69974C746.603 11.8791 747.438 25.2718 741.42 38.6128C735.402 51.9538 724.81 60.1915 717.762 57.0122C710.714 53.8329 709.879 40.4402 715.896 27.0992Z" fill="#1A1A1A"/>
<path d="M724.884 8.547C729.613 4.86877 735.655 2.55312 741.199 5.05383C746.743 7.55473 749.006 13.6168 749.379 19.5968C749.765 25.7811 748.288 33.1153 745.066 40.2579C741.844 47.4005 737.324 53.3612 732.433 57.1652C731.479 57.9066 730.471 58.5901 729.426 59.1925C735.776 59.4036 741.942 59.7279 747.821 60.1661C766.02 61.5227 781.831 63.9874 791.883 67.6906C802.563 71.6253 811.995 81.3109 820.138 93.1271C828.355 105.052 835.634 119.704 841.812 134.393C854.174 163.783 862.357 193.878 864.881 203.974C866.215 209.312 869.595 217.028 874.335 226.141C879.033 235.174 884.924 245.312 891.098 255.408C903.442 275.597 916.816 295.456 923.803 305.688C926.543 309.701 929.806 314.051 933.206 318.59C936.582 323.097 940.085 327.778 943.204 332.336C946.315 336.881 949.136 341.432 951.107 345.699C953.037 349.875 954.39 354.27 953.979 358.344V358.345C953.597 362.133 951.761 366.826 949.149 371.642C946.484 376.555 942.816 381.95 938.413 387.209C929.664 397.659 917.663 407.986 904.338 412.714C891.125 417.402 881.763 415.741 875.833 410.155C873.942 408.375 872.529 406.307 871.493 404.147C867.112 412.569 861.404 422.367 855.002 431.31C850.325 437.842 845.207 444.022 839.889 448.89C834.624 453.709 828.854 457.532 822.859 458.851C817.204 460.095 812.274 459.466 808.881 456.143C805.674 453.003 804.88 448.42 804.938 444.288C804.998 439.944 806.016 435.065 807.422 430.424C804.152 432.225 800.475 434.006 796.538 435.554C787.386 439.151 776.44 441.656 765.843 439.89C759.401 438.816 753.571 436.531 749.806 431.36C746.087 426.254 745.011 419.185 745.959 410.031C747.839 391.876 758.057 362.443 778.635 314.805C785.564 273.658 787.379 254.151 787.5 243.585C787.56 238.357 787.204 235.339 786.842 232.94C786.479 230.537 786 228.202 786 224.943C786 219.147 786.126 212.111 786.251 206.541C786.314 203.752 786.377 201.324 786.424 199.593C786.438 199.062 786.451 198.596 786.462 198.205L726.023 116.009C708.138 116.589 682.301 117.4 660.327 118.029C648.902 118.357 638.513 118.635 630.828 118.807C626.988 118.893 623.81 118.952 621.512 118.978C620.893 118.984 620.332 118.988 619.836 118.989L591.503 170.375L590.883 171.499L589.726 172.053L555.226 188.553L550.009 191.048L549.515 185.285C548.2 169.945 551.966 147.905 558.93 127.655C565.849 107.537 576.303 88.0689 589.145 78.7101L589.93 78.1564C598.239 72.4781 612.431 68.3196 628.984 65.3273C646.286 62.1996 666.869 60.2326 687.649 59.3839C696.235 59.0332 704.871 58.8758 713.34 58.9044C709.792 55.8918 708.241 50.9762 707.938 46.1154C707.552 39.931 709.028 32.5969 712.25 25.4542C715.472 18.3117 719.993 12.3509 724.884 8.547Z" stroke="#4C30A1" stroke-width="8"/>
</g>
<path d="M658 264.943C659.476 266.943 663.702 270.443 670 270.443C676.298 270.443 679 267.443 681.5 264.943" stroke="#D17AE9" stroke-width="7" stroke-linecap="round"/>
<ellipse cx="668.5" cy="241.943" rx="49.5" ry="23" fill="url(#paint18_radial_2281_1335)"/>
<g filter="url(#filter2_d_2281_1335)">
<path d="M767.468 187.943H575.93C573.952 187.943 572.515 189.826 573.037 191.735L588.896 249.735C589.253 251.039 590.438 251.943 591.79 251.943H640.51C641.716 251.943 642.805 251.221 643.274 250.11L664.726 199.277C665.195 198.166 666.284 197.443 667.49 197.443H672.405C673.664 197.443 674.788 198.229 675.222 199.41L693.778 249.977C694.212 251.158 695.336 251.943 696.595 251.943H757.952C759.421 251.943 760.675 250.879 760.913 249.429L770.428 191.429C770.728 189.603 769.318 187.943 767.468 187.943Z" fill="#000B32"/>
</g>
<path d="M623.5 252.443L598 187.943H623.5L639 252.443H623.5Z" fill="url(#paint19_linear_2281_1335)"/>
<path d="M728.5 251.943L703 187.943H728.5L744 251.943H728.5Z" fill="url(#paint20_linear_2281_1335)"/>
<path d="M600.5 83.4433C633.499 64.9434 729.96 65.0375 755 75.4433C787.22 88.8336 804.38 124.871 812.345 153.073C813.057 152.988 813.775 152.943 814.5 152.943C818.66 152.943 822.618 154.376 826.208 156.957C841.068 157.578 853 177.706 853 202.443C853 227.572 840.687 247.943 825.5 247.943C825.237 247.943 824.976 247.936 824.715 247.924C821.532 249.876 818.091 250.943 814.5 250.943C798.207 250.943 785 229.005 785 201.943C785 183.777 790.951 167.919 799.793 159.457C793.018 141.502 774.092 97.1695 749.5 88.4433C716.333 76.6747 628.35 81.4136 605 93.9433C584.5 104.943 583.833 139.61 584 158.943H568C567.666 140.61 574.1 98.2434 600.5 83.4433Z" fill="url(#paint21_linear_2281_1335)"/>
<g filter="url(#filter3_d_2281_1335)">
<path d="M611.936 93.3953C628.645 83.3601 649.602 97.5765 657.992 105.939C658.947 106.59 660.465 109.874 661.232 113.443C661.412 112.826 661.696 112.187 662.096 111.532C668.93 103.865 686.996 94.3432 720.596 91.9431C762.596 88.9432 780.596 163.942 788.096 173.943C795.596 183.943 814.096 194.531 809.096 206.031C806.834 211.234 795.362 206.612 783.892 199.574C785.483 201.813 786.915 204.002 788.096 206.031C790.263 210.031 794.896 219.231 788.096 222.031C779.596 225.531 764.096 217.031 735.096 199.031C706.097 181.031 700.594 129.943 692.594 120.443C684.594 110.943 673.998 122.516 668.094 121.443C665.182 120.914 662.83 119.543 661.708 117.64C661.688 119.914 661.113 121.908 659.594 122.943C653.703 126.957 641.802 129.941 623.594 130.443C605.386 130.945 607.116 173.677 602.832 194.752C598.547 215.826 538.567 220.844 528.927 211.31C521.216 203.684 539.639 197.093 549.814 194.752C538.925 193.246 529.592 189.577 523.594 179.943C516.097 167.901 536.425 160.13 555.705 160.632C574.984 161.133 591.05 105.939 611.936 93.3953Z" fill="#D0B1FF"/>
</g>
<path d="M704.798 199.095C707.036 197.239 710.345 197.56 712.189 199.812L724.125 214.389L738.609 202.375C740.846 200.519 744.156 200.84 746 203.092C747.844 205.344 747.525 208.675 745.287 210.531L730.804 222.545L742.741 237.123C744.585 239.375 744.266 242.706 742.029 244.562C739.791 246.418 736.482 246.097 734.638 243.844L722.7 229.267L708.219 241.281C705.981 243.137 702.671 242.817 700.827 240.565C698.983 238.313 699.302 234.982 701.539 233.126L716.022 221.111L704.086 206.535C702.242 204.283 702.561 200.951 704.798 199.095Z" fill="#E9FF5C"/>
<path d="M626.972 199.935C628.779 197.652 632.083 197.276 634.351 199.095C636.619 200.913 636.992 204.238 635.186 206.521L623.297 221.541L636.5 235.407C638.506 237.514 638.435 240.859 636.342 242.879C634.248 244.898 630.924 244.827 628.917 242.719L616.695 229.883L605.69 243.789C603.883 246.072 600.579 246.449 598.311 244.631C596.044 242.812 595.669 239.487 597.476 237.204L609.363 222.183L596.162 208.319C594.156 206.212 594.227 202.866 596.32 200.847C598.414 198.828 601.738 198.898 603.744 201.005L615.966 213.841L626.972 199.935Z" fill="#E9FF5C"/>
<path d="M831.5 175.943C832.89 184.15 839.953 188.051 845.289 183.558C841.919 190.672 844.845 200.09 851 201.943C844.845 203.797 841.919 213.215 845.289 220.328C839.953 215.835 832.89 219.737 831.5 227.943C830.11 219.737 823.047 215.835 817.711 220.328C821.081 213.215 818.155 203.797 812 201.943C818.155 200.09 821.081 190.672 817.711 183.558C823.047 188.051 830.11 184.15 831.5 175.943Z" fill="#E9FF5C"/>
<path d="M1046.75 715.13C1054.39 731.747 1071.73 735.973 1080.6 723.378C1077.43 740.406 1089.05 758.711 1103.28 759.113C1091.16 766.577 1090.25 788.24 1101.51 801.401C1087.53 794.928 1074.63 807.258 1076.32 825.47C1068.67 808.853 1051.33 804.628 1042.46 817.222C1045.63 800.194 1034.01 781.889 1019.78 781.487C1031.91 774.023 1032.82 752.361 1021.56 739.199C1035.54 745.672 1048.44 733.342 1046.75 715.13Z" fill="#1E186B"/>
<path d="M862 605.443C862 626.706 833.122 632.443 797.5 632.443C761.878 632.443 733 626.706 733 605.443C733 584.18 761.878 566.943 797.5 566.943C833.122 566.943 862 584.18 862 605.443Z" fill="url(#paint22_linear_2281_1335)"/>
<path d="M525.83 626.894L482.212 654.894C477.171 658.13 479.463 665.943 485.453 665.943H761.269C762.579 665.943 763.852 665.515 764.896 664.723L801.794 636.723C806.374 633.248 803.916 625.943 798.168 625.943H529.071C527.922 625.943 526.797 626.273 525.83 626.894Z" fill="url(#paint23_linear_2281_1335)"/>
<path d="M467.966 667.888L409.722 497.888C408.388 493.994 411.282 489.943 415.398 489.943H700.992C703.663 489.943 706.012 491.708 706.755 494.273L756.027 664.273C757.139 668.111 754.26 671.943 750.264 671.943H473.642C471.078 671.943 468.797 670.314 467.966 667.888Z" fill="#3D385E"/>
<path fill-rule="evenodd" clip-rule="evenodd" d="M578.175 611.985C591.045 611.166 600.772 599.417 599.901 585.743C599.3 576.302 593.803 568.413 586.222 564.702C585.029 564.118 583.699 564.999 583.62 566.325L582.788 580.264C582.728 581.272 581.926 582.077 580.918 582.141L571.441 582.745C570.535 582.802 569.703 582.242 569.416 581.381L565.122 568.489C564.708 567.247 563.229 566.731 562.218 567.563C556.329 572.41 552.752 580.187 553.295 588.712C554.166 602.385 565.305 612.805 578.175 611.985Z" fill="#E4E4E4"/>
<path d="M871 541.977L870.45 546.443L871.453 546.566L872.413 546.249L871 541.977ZM987.359 537.901C989.545 539.084 992.275 538.27 993.458 536.085C994.64 533.899 993.827 531.168 991.641 529.985L989.5 533.943L987.359 537.901ZM806 566.977L810.493 567.236C810.72 563.298 811.783 557.319 814.114 552.332C816.489 547.253 819.59 544.328 823.433 543.956L823 539.477L822.567 534.998C814.01 535.826 808.861 542.317 805.961 548.521C803.017 554.818 801.78 561.989 801.507 566.717L806 566.977ZM823 539.477L823.433 543.956C835.262 542.811 859.542 545.1 870.45 546.443L871 541.977L871.55 537.51C860.791 536.186 835.538 533.742 822.567 534.998L823 539.477ZM871 541.977L872.413 546.249C882.928 542.772 899.685 537.601 915.726 533.405C923.749 531.307 931.541 529.466 938.259 528.202C945.081 526.918 950.444 526.3 953.77 526.471L954 521.977L954.23 517.483C949.756 517.253 943.49 518.06 936.594 519.357C929.594 520.675 921.58 522.571 913.449 524.698C897.182 528.953 880.238 534.182 869.587 537.704L871 541.977ZM954 521.977L953.77 526.471C968.229 527.212 977.136 532.371 987.359 537.901L989.5 533.943L991.641 529.985C981.531 524.516 970.971 518.341 954.23 517.483L954 521.977Z" fill="#4C30A1"/>
<path d="M835.5 394.943C836.416 403.063 842.88 409.528 851 410.443C842.881 411.359 836.416 417.823 835.5 425.942C834.584 417.823 828.12 411.359 820 410.443C828.12 409.528 834.584 403.063 835.5 394.943Z" fill="url(#paint24_linear_2281_1335)"/>
<path d="M802 361.943C803.241 372.944 811.999 381.703 823 382.943C811.999 384.184 803.241 392.942 802 403.942C800.759 392.942 792.001 384.184 781 382.943C792.001 381.703 800.759 372.945 802 361.943Z" fill="url(#paint25_linear_2281_1335)"/>
<path d="M898 331.943C899.241 342.944 907.999 351.703 919 352.943C907.999 354.184 899.241 362.942 898 373.942C896.759 362.942 888.001 354.184 877 352.943C888.001 351.703 896.759 342.945 898 331.943Z" fill="url(#paint26_linear_2281_1335)"/>
<path d="M761.144 116.82C766.418 124.586 770.858 133.272 774.591 141.515C774.223 140.703 773.849 139.886 773.468 139.066C773.809 144.157 770.612 149.111 765.391 150.929C759.169 153.094 752.432 149.989 750.344 143.991C752.431 149.987 749.08 156.606 742.857 158.772C737.054 160.793 730.805 158.226 728.297 153.007C729.571 158.655 726.266 164.547 720.465 166.566C716.895 167.809 713.157 167.314 710.224 165.536C710.312 165.738 710.401 165.94 710.49 166.143C705.436 154.67 702.005 142.809 699.062 133.833C699.479 133.635 699.912 133.457 700.359 133.304C706.591 131.171 713.313 134.309 715.37 140.317C713.314 134.311 716.699 127.709 722.933 125.575C728.746 123.585 734.981 126.184 737.463 131.416C736.217 125.761 739.554 119.885 745.365 117.896C751.597 115.762 758.319 118.902 760.376 124.91C760.439 125.093 760.495 125.279 760.548 125.463L760.563 125.457C759.559 122.523 759.854 119.448 761.144 116.82Z" fill="#E8D7FF"/>
<path d="M597.85 108.943C596.797 110.474 595.752 112.061 594.715 113.688C595.218 116.058 594.978 118.581 593.859 120.9C596.618 115.182 603.665 112.864 609.6 115.727C615.134 118.396 617.744 124.627 615.833 130.093C618.921 125.195 625.422 123.359 630.955 126.027C632.783 126.909 634.292 128.181 635.425 129.685C636.057 129.622 636.679 129.554 637.29 129.484C633.367 129.934 629.013 130.239 624.222 130.371C612.892 130.683 609.282 147.347 607.139 164.969C607.24 164.136 607.344 163.305 607.452 162.478C602.481 159.53 600.226 153.467 602.398 148.144C600 154.022 593.11 156.772 587.009 154.282C581.319 151.961 578.328 145.904 579.897 140.33C578.956 142.051 577.6 143.443 576 144.444C583.17 133.837 590.287 119.937 597.85 108.943Z" fill="#E8D7FF"/>
<path d="M703 494.943L755.5 667.443" stroke="#827FB5" stroke-width="9" stroke-linecap="round"/>
<path d="M415 494.031L702.5 494.031" stroke="#827FB5" stroke-width="9" stroke-linecap="round"/>
<path d="M1105.92 784.656C1095.06 803.51 1072.78 850.009 1070.57 885.175" stroke="url(#paint27_linear_2281_1335)" stroke-width="12.9107" stroke-linecap="round"/>
<path d="M1108.69 725.943C1106.67 736.567 1093.36 740.776 1085.32 733.341C1090.09 743.093 1081.87 754.114 1070.88 752.707C1080.62 757.86 1080.62 771.487 1070.88 776.644C1081.87 775.233 1090.09 786.258 1085.32 796.01C1093.36 788.575 1106.67 792.784 1108.69 803.408C1110.71 792.784 1124.01 788.575 1132.06 796.01C1127.28 786.258 1135.5 775.237 1146.5 776.644C1136.75 771.491 1136.75 757.864 1146.5 752.707C1135.5 754.117 1127.28 743.093 1132.06 733.341C1124.01 740.776 1110.71 736.567 1108.69 725.943Z" fill="#D0B1FF"/>
<ellipse cx="14.031" cy="58.5087" rx="14.031" ry="58.5087" transform="matrix(-0.6206 -0.784127 -0.784127 0.6206 1160.64 838.322)" fill="url(#paint28_linear_2281_1335)"/>
<ellipse cx="21.7025" cy="81.5228" rx="21.7025" ry="81.5228" transform="matrix(-0.974644 0.223763 0.223763 0.974644 1047.3 739.469)" fill="url(#paint29_linear_2281_1335)"/>
<defs>
<filter id="filter0_d_2281_1335" x="580" y="103.943" width="223" height="199" filterUnits="userSpaceOnUse" color-interpolation-filters="sRGB">
<feFlood flood-opacity="0" result="BackgroundImageFix"/>
<feColorMatrix in="SourceAlpha" type="matrix" values="0 0 0 0 0 0 0 0 0 0 0 0 0 0 0 0 0 0 127 0" result="hardAlpha"/>
<feOffset dx="1" dy="7"/>
<feGaussianBlur stdDeviation="2"/>
<feComposite in2="hardAlpha" operator="out"/>
<feColorMatrix type="matrix" values="0 0 0 0 0.423558 0 0 0 0 0 0 0 0 0 0 0 0 0 0.25 0"/>
<feBlend mode="normal" in2="BackgroundImageFix" result="effect1_dropShadow_2281_1335"/>
<feBlend mode="normal" in="SourceGraphic" in2="effect1_dropShadow_2281_1335" result="shape"/>
</filter>
<filter id="filter1_d_2281_1335" x="541.255" y="0" width="420.798" height="471.44" filterUnits="userSpaceOnUse" color-interpolation-filters="sRGB">
<feFlood flood-opacity="0" result="BackgroundImageFix"/>
<feColorMatrix in="SourceAlpha" type="matrix" values="0 0 0 0 0 0 0 0 0 0 0 0 0 0 0 0 0 0 127 0" result="hardAlpha"/>
<feOffset dy="4"/>
<feGaussianBlur stdDeviation="2"/>
<feComposite in2="hardAlpha" operator="out"/>
<feColorMatrix type="matrix" values="0 0 0 0 0 0 0 0 0 0 0 0 0 0 0 0 0 0 0.25 0"/>
<feBlend mode="normal" in2="BackgroundImageFix" result="effect1_dropShadow_2281_1335"/>
<feBlend mode="normal" in="SourceGraphic" in2="effect1_dropShadow_2281_1335" result="shape"/>
</filter>
<filter id="filter2_d_2281_1335" x="571.629" y="187.643" width="206.14" height="72.6" filterUnits="userSpaceOnUse" color-interpolation-filters="sRGB">
<feFlood flood-opacity="0" result="BackgroundImageFix"/>
<feColorMatrix in="SourceAlpha" type="matrix" values="0 0 0 0 0 0 0 0 0 0 0 0 0 0 0 0 0 0 127 0" result="hardAlpha"/>
<feOffset dx="3" dy="4"/>
<feGaussianBlur stdDeviation="2.15"/>
<feComposite in2="hardAlpha" operator="out"/>
<feColorMatrix type="matrix" values="0 0 0 0 0.698718 0 0 0 0 0.00705428 0 0 0 0 0.00705428 0 0 0 0.25 0"/>
<feBlend mode="normal" in2="BackgroundImageFix" result="effect1_dropShadow_2281_1335"/>
<feBlend mode="normal" in="SourceGraphic" in2="effect1_dropShadow_2281_1335" result="shape"/>
</filter>
<filter id="filter3_d_2281_1335" x="521" y="89.9437" width="295.941" height="144.861" filterUnits="userSpaceOnUse" color-interpolation-filters="sRGB">
<feFlood flood-opacity="0" result="BackgroundImageFix"/>
<feColorMatrix in="SourceAlpha" type="matrix" values="0 0 0 0 0 0 0 0 0 0 0 0 0 0 0 0 0 0 127 0" result="hardAlpha"/>
<feOffset dx="3" dy="8"/>
<feGaussianBlur stdDeviation="2"/>
<feComposite in2="hardAlpha" operator="out"/>
<feColorMatrix type="matrix" values="0 0 0 0 0.423558 0 0 0 0 0 0 0 0 0 0 0 0 0 0.25 0"/>
<feBlend mode="normal" in2="BackgroundImageFix" result="effect1_dropShadow_2281_1335"/>
<feBlend mode="normal" in="SourceGraphic" in2="effect1_dropShadow_2281_1335" result="shape"/>
</filter>
<linearGradient id="paint0_linear_2281_1335" x1="254.585" y1="709.356" x2="254.585" y2="828.193" gradientUnits="userSpaceOnUse">
<stop stop-color="#4C30A1"/>
<stop offset="1" stop-color="#000B32"/>
</linearGradient>
<linearGradient id="paint1_linear_2281_1335" x1="323.843" y1="528.832" x2="298.459" y2="674.624" gradientUnits="userSpaceOnUse">
<stop stop-color="#4C30A1"/>
<stop offset="1" stop-color="#000B32"/>
</linearGradient>
<linearGradient id="paint2_linear_2281_1335" x1="233.533" y1="733.551" x2="233.533" y2="871.893" gradientUnits="userSpaceOnUse">
<stop stop-color="#000B32"/>
<stop offset="1" stop-color="#4C30A1"/>
</linearGradient>
<linearGradient id="paint3_linear_2281_1335" x1="306.427" y1="659.231" x2="306.427" y2="851.989" gradientUnits="userSpaceOnUse">
<stop stop-color="#000B32"/>
<stop offset="1" stop-color="#4C30A1"/>
</linearGradient>
<linearGradient id="paint4_linear_2281_1335" x1="263.423" y1="786.665" x2="263.423" y2="887.349" gradientUnits="userSpaceOnUse">
<stop stop-color="#000B32"/>
<stop offset="1" stop-color="#4C30A1"/>
</linearGradient>
<linearGradient id="paint5_linear_2281_1335" x1="1156.66" y1="691.15" x2="1123.41" y2="796.08" gradientUnits="userSpaceOnUse">
<stop stop-color="#4C30A1"/>
<stop offset="1" stop-color="#000B32"/>
</linearGradient>
<linearGradient id="paint6_linear_2281_1335" x1="1187.08" y1="473.755" x2="1087.09" y2="789.294" gradientUnits="userSpaceOnUse">
<stop stop-color="#4C30A1"/>
<stop offset="1" stop-color="#000B32"/>
</linearGradient>
<linearGradient id="paint7_linear_2281_1335" x1="1144.77" y1="552.66" x2="1071.36" y2="784.31" gradientUnits="userSpaceOnUse">
<stop stop-color="#4C30A1"/>
<stop offset="1" stop-color="#000B32"/>
</linearGradient>
<linearGradient id="paint8_linear_2281_1335" x1="1067.62" y1="530.067" x2="1067.62" y2="783.067" gradientUnits="userSpaceOnUse">
<stop stop-color="#ABBDFF"/>
<stop offset="1" stop-color="#91A9FF"/>
</linearGradient>
<linearGradient id="paint9_linear_2281_1335" x1="421.536" y1="681.887" x2="321.352" y2="898.876" gradientUnits="userSpaceOnUse">
<stop stop-color="#18286B"/>
<stop offset="1" stop-color="#3726A5"/>
</linearGradient>
<linearGradient id="paint10_linear_2281_1335" x1="675.766" y1="805.019" x2="675.766" y2="922.173" gradientUnits="userSpaceOnUse">
<stop stop-color="white"/>
<stop offset="1" stop-color="#492F9D"/>
</linearGradient>
<linearGradient id="paint11_linear_2281_1335" x1="675.766" y1="805.019" x2="675.766" y2="922.173" gradientUnits="userSpaceOnUse">
<stop stop-color="white"/>
<stop offset="1" stop-color="#492F9D"/>
</linearGradient>
<linearGradient id="paint12_linear_2281_1335" x1="751.208" y1="160.443" x2="544.903" y2="390.463" gradientUnits="userSpaceOnUse">
<stop stop-color="#4C30A1"/>
<stop offset="0.485577" stop-color="#131313"/>
</linearGradient>
<linearGradient id="paint13_linear_2281_1335" x1="754.75" y1="308.943" x2="754.75" y2="665.943" gradientUnits="userSpaceOnUse">
<stop stop-color="#000B32"/>
<stop offset="1" stop-color="#4C30A1"/>
</linearGradient>
<linearGradient id="paint14_linear_2281_1335" x1="423" y1="567.943" x2="423" y2="633.943" gradientUnits="userSpaceOnUse">
<stop stop-color="#DBBEFF"/>
<stop offset="1" stop-color="#F9DCFF"/>
</linearGradient>
<linearGradient id="paint15_linear_2281_1335" x1="705" y1="279.943" x2="705" y2="335.443" gradientUnits="userSpaceOnUse">
<stop stop-color="#F9DCFF"/>
<stop offset="1" stop-color="#DBBEFF"/>
</linearGradient>
<linearGradient id="paint16_linear_2281_1335" x1="29.5" y1="0" x2="29.5" y2="98" gradientUnits="userSpaceOnUse">
<stop stop-color="#000B32"/>
<stop offset="1" stop-color="#4C30A1"/>
</linearGradient>
<linearGradient id="paint17_linear_2281_1335" x1="690.5" y1="103.943" x2="690.5" y2="291.943" gradientUnits="userSpaceOnUse">
<stop stop-color="#DBBEFF"/>
<stop offset="1" stop-color="#F9DCFF"/>
</linearGradient>
<radialGradient id="paint18_radial_2281_1335" cx="0" cy="0" r="1" gradientUnits="userSpaceOnUse" gradientTransform="translate(668.5 241.943) scale(49.5 23)">
<stop stop-color="#C88DFF" stop-opacity="0.7"/>
<stop offset="1" stop-color="#C88DFF" stop-opacity="0"/>
</radialGradient>
<linearGradient id="paint19_linear_2281_1335" x1="618.5" y1="187.943" x2="618.5" y2="252.443" gradientUnits="userSpaceOnUse">
<stop stop-color="white"/>
<stop offset="1" stop-color="white" stop-opacity="0"/>
</linearGradient>
<linearGradient id="paint20_linear_2281_1335" x1="723.5" y1="187.943" x2="723.5" y2="251.943" gradientUnits="userSpaceOnUse">
<stop stop-color="white"/>
<stop offset="1" stop-color="white" stop-opacity="0"/>
</linearGradient>
<linearGradient id="paint21_linear_2281_1335" x1="710.494" y1="68.3982" x2="710.494" y2="250.943" gradientUnits="userSpaceOnUse">
<stop stop-color="#000B32"/>
<stop offset="1" stop-color="#4C30A1"/>
</linearGradient>
<linearGradient id="paint22_linear_2281_1335" x1="797.5" y1="566.943" x2="797.5" y2="632.443" gradientUnits="userSpaceOnUse">
<stop stop-color="#DBBEFF"/>
<stop offset="1" stop-color="#F9DCFF"/>
</linearGradient>
<linearGradient id="paint23_linear_2281_1335" x1="816" y1="645.943" x2="465" y2="645.943" gradientUnits="userSpaceOnUse">
<stop stop-color="#3D385E"/>
<stop offset="1" stop-color="#0A0323"/>
</linearGradient>
<linearGradient id="paint24_linear_2281_1335" x1="824.579" y1="331.943" x2="875.421" y2="425.942" gradientUnits="userSpaceOnUse">
<stop stop-color="#4C30A1"/>
<stop offset="1" stop-color="#2C1F41"/>
</linearGradient>
<linearGradient id="paint25_linear_2281_1335" x1="824.579" y1="331.943" x2="875.421" y2="425.942" gradientUnits="userSpaceOnUse">
<stop stop-color="#4C30A1"/>
<stop offset="1" stop-color="#2C1F41"/>
</linearGradient>
<linearGradient id="paint26_linear_2281_1335" x1="824.579" y1="331.943" x2="875.421" y2="425.942" gradientUnits="userSpaceOnUse">
<stop stop-color="#4C30A1"/>
<stop offset="1" stop-color="#2C1F41"/>
</linearGradient>
<linearGradient id="paint27_linear_2281_1335" x1="1088.25" y1="784.656" x2="1088.25" y2="885.175" gradientUnits="userSpaceOnUse">
<stop stop-color="#4C30A1"/>
<stop offset="1" stop-color="#000B32"/>
</linearGradient>
<linearGradient id="paint28_linear_2281_1335" x1="14.031" y1="0" x2="14.031" y2="117.017" gradientUnits="userSpaceOnUse">
<stop stop-color="#000B32"/>
<stop offset="1" stop-color="#4C30A1"/>
</linearGradient>
<linearGradient id="paint29_linear_2281_1335" x1="21.7025" y1="0" x2="21.7025" y2="163.046" gradientUnits="userSpaceOnUse">
<stop stop-color="#000B32"/>
<stop offset="1" stop-color="#4C30A1"/>
</linearGradient>
</defs>
</svg>
