<svg id="eVC5Uui218p1" xmlns="http://www.w3.org/2000/svg" xmlns:xlink="http://www.w3.org/1999/xlink" viewBox="0 0 1459 929" shape-rendering="geometricPrecision" text-rendering="geometricPrecision" project-id="f244a086805549b7b3a05225173aedd6" export-id="7b1356ec488843b8b886c7b749a3605d" cached="false">
<style><![CDATA[
#eVC5Uui218p8_tr {animation: eVC5Uui218p8_tr__tr 3000ms linear infinite normal forwards}@keyframes eVC5Uui218p8_tr__tr { 0% {transform: translate(323.004852px,682.7905px) rotate(0deg)} 50% {transform: translate(323.004852px,682.7905px) rotate(-10.710864deg)} 100% {transform: translate(323.004852px,682.7905px) rotate(0deg)}} #eVC5Uui218p15_tr {animation: eVC5Uui218p15_tr__tr 3000ms linear infinite normal forwards}@keyframes eVC5Uui218p15_tr__tr { 0% {transform: translate(1060.175834px,767.357px) rotate(0deg)} 40% {transform: translate(1060.175834px,767.357px) rotate(6.554405deg)} 100% {transform: translate(1060.175834px,767.357px) rotate(0deg)}} #eVC5Uui218p24_tr {animation: eVC5Uui218p24_tr__tr 3000ms linear infinite normal forwards}@keyframes eVC5Uui218p24_tr__tr { 0% {transform: translate(693.533011px,169.030762px) rotate(0deg)} 26.666667% {transform: translate(693.533011px,169.030762px) rotate(2.736818deg)} 73.333333% {transform: translate(693.533011px,169.030762px) rotate(-5.132941deg)} 100% {transform: translate(693.533011px,169.030762px) rotate(0deg)}} #eVC5Uui218p39_to {animation: eVC5Uui218p39_to__to 3000ms linear infinite normal forwards}@keyframes eVC5Uui218p39_to__to { 0% {transform: translate(420.5px,613.5px)} 40% {transform: translate(436.352356px,613.5px)} 70% {transform: translate(420.5px,613.5px)} 100% {transform: translate(420.5px,613.5px)}} #eVC5Uui218p53_tr {animation: eVC5Uui218p53_tr__tr 3000ms linear infinite normal forwards}@keyframes eVC5Uui218p53_tr__tr { 0% {transform: translate(1067.619904px,882.232001px) rotate(0deg)} 70% {transform: translate(1067.619904px,882.232001px) rotate(8.690521deg)} 100% {transform: translate(1067.619904px,882.232001px) rotate(0deg)}} #eVC5Uui218p58_tr {animation: eVC5Uui218p58_tr__tr 3000ms linear infinite normal forwards}@keyframes eVC5Uui218p58_tr__tr { 0% {transform: translate(699.062px,289px) rotate(0deg)} 23.333333% {transform: translate(699.062px,289px) rotate(5deg)} 50% {transform: translate(699.062px,289px) rotate(0deg)} 73.333333% {transform: translate(699.062px,289px) rotate(-3deg)} 100% {transform: translate(699.062px,289px) rotate(0deg)}} #eVC5Uui218p64_tr {animation: eVC5Uui218p64_tr__tr 3000ms linear infinite normal forwards}@keyframes eVC5Uui218p64_tr__tr { 0% {transform: translate(718px,54.651855px) rotate(0deg)} 23.333333% {transform: translate(718px,54.651855px) rotate(-20deg)} 50% {transform: translate(718px,54.651855px) rotate(0deg)} 73.333333% {transform: translate(718px,54.651855px) rotate(20deg)} 100% {transform: translate(718px,54.651855px) rotate(0deg)}}
]]></style>
<defs><linearGradient id="eVC5Uui218p11-fill" x1="0" y1="-69.171" x2="0" y2="69.171" spreadMethod="pad" gradientUnits="userSpaceOnUse" gradientTransform="translate(0 0)"><stop id="eVC5Uui218p11-fill-0" offset="0%" stop-color="#abbdff"/><stop id="eVC5Uui218p11-fill-1" offset="100%" stop-color="#91a9ff"/></linearGradient><linearGradient id="eVC5Uui218p12-fill" x1="0" y1="-96.379" x2="0" y2="96.379" spreadMethod="pad" gradientUnits="userSpaceOnUse" gradientTransform="translate(0 0)"><stop id="eVC5Uui218p12-fill-0" offset="0%" stop-color="#abbdff"/><stop id="eVC5Uui218p12-fill-1" offset="100%" stop-color="#91a9ff"/></linearGradient><linearGradient id="eVC5Uui218p13-fill" x1="0" y1="-50.342" x2="0" y2="50.342" spreadMethod="pad" gradientUnits="userSpaceOnUse" gradientTransform="translate(0 0)"><stop id="eVC5Uui218p13-fill-0" offset="0%" stop-color="#abbdff"/><stop id="eVC5Uui218p13-fill-1" offset="100%" stop-color="#91a9ff"/></linearGradient><linearGradient id="eVC5Uui218p21-fill" x1="0" y1="-126.5" x2="0" y2="126.5" spreadMethod="pad" gradientUnits="userSpaceOnUse" gradientTransform="translate(0 0)"><stop id="eVC5Uui218p21-fill-0" offset="0%" stop-color="#abbdff"/><stop id="eVC5Uui218p21-fill-1" offset="100%" stop-color="#91a9ff"/></linearGradient><linearGradient id="eVC5Uui218p22-fill" x1="421.536" y1="678.943" x2="321.352" y2="895.932" spreadMethod="pad" gradientUnits="userSpaceOnUse" gradientTransform="translate(0 0)"><stop id="eVC5Uui218p22-fill-0" offset="0%" stop-color="#3c3126"/><stop id="eVC5Uui218p22-fill-1" offset="100%" stop-color="#a28366"/></linearGradient><linearGradient id="eVC5Uui218p23-fill" x1="675.766" y1="802.076" x2="675.766" y2="919.23" spreadMethod="pad" gradientUnits="userSpaceOnUse" gradientTransform="translate(0 0)"><stop id="eVC5Uui218p23-fill-0" offset="0%" stop-color="#fff"/><stop id="eVC5Uui218p23-fill-1" offset="63.6269%" stop-color="#fff3fd"/><stop id="eVC5Uui218p23-fill-2" offset="100%" stop-color="#fea6ef"/></linearGradient><linearGradient id="eVC5Uui218p25-fill" x1="751.208" y1="157.5" x2="544.903" y2="387.519" spreadMethod="pad" gradientUnits="userSpaceOnUse" gradientTransform="translate(0 0)"><stop id="eVC5Uui218p25-fill-0" offset="0%" stop-color="#a872ff"/><stop id="eVC5Uui218p25-fill-1" offset="48.5577%" stop-color="#131313"/></linearGradient><linearGradient id="eVC5Uui218p28-fill" x1="675.766" y1="802.076" x2="675.766" y2="919.23" spreadMethod="pad" gradientUnits="userSpaceOnUse" gradientTransform="translate(0 0)"><stop id="eVC5Uui218p28-fill-0" offset="0%" stop-color="#fff"/><stop id="eVC5Uui218p28-fill-1" offset="63.6269%" stop-color="#fff3fd"/><stop id="eVC5Uui218p28-fill-2" offset="100%" stop-color="#fea6ef"/></linearGradient><linearGradient id="eVC5Uui218p34-fill" x1="754.75" y1="663" x2="754.75" y2="306" spreadMethod="pad" gradientUnits="userSpaceOnUse" gradientTransform="translate(0 0)"><stop id="eVC5Uui218p34-fill-0" offset="0%" stop-color="#aabdff"/><stop id="eVC5Uui218p34-fill-1" offset="100%" stop-color="#ffb4f2"/></linearGradient><linearGradient id="eVC5Uui218p41-fill" x1="423" y1="565" x2="423" y2="619.703" spreadMethod="pad" gradientUnits="userSpaceOnUse" gradientTransform="translate(0 0)"><stop id="eVC5Uui218p41-fill-0" offset="0%" stop-color="#ffefdc"/><stop id="eVC5Uui218p41-fill-1" offset="86.5385%" stop-color="#ffd5c2"/></linearGradient><linearGradient id="eVC5Uui218p43-fill" x1="705" y1="277" x2="705" y2="323" spreadMethod="pad" gradientUnits="userSpaceOnUse" gradientTransform="translate(0 0)"><stop id="eVC5Uui218p43-fill-0" offset="13.4615%" stop-color="#ffd5c2"/><stop id="eVC5Uui218p43-fill-1" offset="100%" stop-color="#ffefdc"/></linearGradient><linearGradient id="eVC5Uui218p46-fill" x1="797.5" y1="564" x2="797.5" y2="618.288" spreadMethod="pad" gradientUnits="userSpaceOnUse" gradientTransform="translate(0 0)"><stop id="eVC5Uui218p46-fill-0" offset="0%" stop-color="#ffefdc"/><stop id="eVC5Uui218p46-fill-1" offset="86.5385%" stop-color="#ffd5c2"/></linearGradient><linearGradient id="eVC5Uui218p47-fill" x1="816" y1="643" x2="465" y2="643" spreadMethod="pad" gradientUnits="userSpaceOnUse" gradientTransform="translate(0 0)"><stop id="eVC5Uui218p47-fill-0" offset="0%" stop-color="#b1b1b1"/><stop id="eVC5Uui218p47-fill-1" offset="100%" stop-color="#4b4b4b"/></linearGradient><linearGradient id="eVC5Uui218p56-fill" x1="0" y1="-58.5087" x2="0" y2="58.5083" spreadMethod="pad" gradientUnits="userSpaceOnUse" gradientTransform="translate(0 0)"><stop id="eVC5Uui218p56-fill-0" offset="0%" stop-color="#abbdff"/><stop id="eVC5Uui218p56-fill-1" offset="100%" stop-color="#91a9ff"/></linearGradient><linearGradient id="eVC5Uui218p57-fill" x1="0" y1="-81.5228" x2="0" y2="81.5232" spreadMethod="pad" gradientUnits="userSpaceOnUse" gradientTransform="translate(0 0)"><stop id="eVC5Uui218p57-fill-0" offset="0%" stop-color="#abbdff"/><stop id="eVC5Uui218p57-fill-1" offset="100%" stop-color="#91a9ff"/></linearGradient><filter id="eVC5Uui218p60-filter" x="-150%" y="-150%" width="400%" height="400%"><feGaussianBlur id="eVC5Uui218p60-filter-drop-shadow-0-blur" in="SourceAlpha" stdDeviation="2,2"/><feOffset id="eVC5Uui218p60-filter-drop-shadow-0-offset" dx="1" dy="7" result="tmp"/><feFlood id="eVC5Uui218p60-filter-drop-shadow-0-flood" flood-color="rgba(108,0,0,0.25)"/><feComposite id="eVC5Uui218p60-filter-drop-shadow-0-composite" operator="in" in2="tmp"/><feMerge id="eVC5Uui218p60-filter-drop-shadow-0-merge" result="result"><feMergeNode id="eVC5Uui218p60-filter-drop-shadow-0-merge-node-1"/><feMergeNode id="eVC5Uui218p60-filter-drop-shadow-0-merge-node-2" in="SourceGraphic"/></feMerge></filter><linearGradient id="eVC5Uui218p61-fill" x1="107.5" y1="0" x2="107.5" y2="188" spreadMethod="pad" gradientUnits="userSpaceOnUse" gradientTransform="translate(0 0)"><stop id="eVC5Uui218p61-fill-0" offset="0%" stop-color="#ffd1be"/><stop id="eVC5Uui218p61-fill-1" offset="100%" stop-color="#ffefdc"/></linearGradient><filter id="eVC5Uui218p62-filter" x="-150%" y="-150%" width="400%" height="400%"><feGaussianBlur id="eVC5Uui218p62-filter-drop-shadow-0-blur" in="SourceAlpha" stdDeviation="2,2"/><feOffset id="eVC5Uui218p62-filter-drop-shadow-0-offset" dx="0" dy="4" result="tmp"/><feFlood id="eVC5Uui218p62-filter-drop-shadow-0-flood" flood-color="#000"/><feComposite id="eVC5Uui218p62-filter-drop-shadow-0-composite" operator="in" in2="tmp"/><feMerge id="eVC5Uui218p62-filter-drop-shadow-0-merge" result="result"><feMergeNode id="eVC5Uui218p62-filter-drop-shadow-0-merge-node-1"/><feMergeNode id="eVC5Uui218p62-filter-drop-shadow-0-merge-node-2" in="SourceGraphic"/></feMerge></filter><radialGradient id="eVC5Uui218p66-fill" cx="0" cy="0" r="1" spreadMethod="pad" gradientUnits="userSpaceOnUse" gradientTransform="matrix(49.5 0 0 23 0 0)"><stop id="eVC5Uui218p66-fill-0" offset="0%" stop-color="rgba(255,141,177,0.7)"/><stop id="eVC5Uui218p66-fill-1" offset="100%" stop-color="rgba(255,141,177,0)"/></radialGradient><filter id="eVC5Uui218p67-filter" x="-150%" y="-150%" width="400%" height="400%"><feGaussianBlur id="eVC5Uui218p67-filter-drop-shadow-0-blur" in="SourceAlpha" stdDeviation="2.15,2.15"/><feOffset id="eVC5Uui218p67-filter-drop-shadow-0-offset" dx="3" dy="4" result="tmp"/><feFlood id="eVC5Uui218p67-filter-drop-shadow-0-flood" flood-color="rgba(179,2,2,0.25)"/><feComposite id="eVC5Uui218p67-filter-drop-shadow-0-composite" operator="in" in2="tmp"/><feMerge id="eVC5Uui218p67-filter-drop-shadow-0-merge" result="result"><feMergeNode id="eVC5Uui218p67-filter-drop-shadow-0-merge-node-1"/><feMergeNode id="eVC5Uui218p67-filter-drop-shadow-0-merge-node-2" in="SourceGraphic"/></feMerge></filter><linearGradient id="eVC5Uui218p69-fill" x1="618.5" y1="185" x2="618.5" y2="249.5" spreadMethod="pad" gradientUnits="userSpaceOnUse" gradientTransform="translate(0 0)"><stop id="eVC5Uui218p69-fill-0" offset="0%" stop-color="#fff"/><stop id="eVC5Uui218p69-fill-1" offset="100%" stop-color="rgba(255,255,255,0)"/></linearGradient><linearGradient id="eVC5Uui218p70-fill" x1="723.5" y1="185" x2="723.5" y2="249" spreadMethod="pad" gradientUnits="userSpaceOnUse" gradientTransform="translate(0 0)"><stop id="eVC5Uui218p70-fill-0" offset="0%" stop-color="#fff"/><stop id="eVC5Uui218p70-fill-1" offset="100%" stop-color="rgba(255,255,255,0)"/></linearGradient><linearGradient id="eVC5Uui218p71-fill" x1="710.494" y1="65.4548" x2="710.494" y2="248" spreadMethod="pad" gradientUnits="userSpaceOnUse" gradientTransform="translate(0 0)"><stop id="eVC5Uui218p71-fill-0" offset="0%" stop-color="#aabdff"/><stop id="eVC5Uui218p71-fill-1" offset="100%" stop-color="#ffb4f2"/></linearGradient><filter id="eVC5Uui218p72-filter" x="-150%" y="-150%" width="400%" height="400%"><feGaussianBlur id="eVC5Uui218p72-filter-drop-shadow-0-blur" in="SourceAlpha" stdDeviation="2,2"/><feOffset id="eVC5Uui218p72-filter-drop-shadow-0-offset" dx="3" dy="8" result="tmp"/><feFlood id="eVC5Uui218p72-filter-drop-shadow-0-flood" flood-color="rgba(108,0,0,0.25)"/><feComposite id="eVC5Uui218p72-filter-drop-shadow-0-composite" operator="in" in2="tmp"/><feMerge id="eVC5Uui218p72-filter-drop-shadow-0-merge" result="result"><feMergeNode id="eVC5Uui218p72-filter-drop-shadow-0-merge-node-1"/><feMergeNode id="eVC5Uui218p72-filter-drop-shadow-0-merge-node-2" in="SourceGraphic"/></feMerge></filter><linearGradient id="eVC5Uui218p77-fill" x1="824.579" y1="329" x2="875.421" y2="422.999" spreadMethod="pad" gradientUnits="userSpaceOnUse" gradientTransform="translate(0 0)"><stop id="eVC5Uui218p77-fill-0" offset="0%" stop-color="#714fa7"/><stop id="eVC5Uui218p77-fill-1" offset="100%" stop-color="#2c1f41"/></linearGradient><linearGradient id="eVC5Uui218p78-fill" x1="824.579" y1="329" x2="875.421" y2="422.999" spreadMethod="pad" gradientUnits="userSpaceOnUse" gradientTransform="translate(0 0)"><stop id="eVC5Uui218p78-fill-0" offset="0%" stop-color="#714fa7"/><stop id="eVC5Uui218p78-fill-1" offset="100%" stop-color="#2c1f41"/></linearGradient><linearGradient id="eVC5Uui218p79-fill" x1="824.579" y1="329" x2="875.421" y2="422.999" spreadMethod="pad" gradientUnits="userSpaceOnUse" gradientTransform="translate(0 0)"><stop id="eVC5Uui218p79-fill-0" offset="0%" stop-color="#714fa7"/><stop id="eVC5Uui218p79-fill-1" offset="100%" stop-color="#2c1f41"/></linearGradient></defs><path d="M1088,493c-2.48-22.002-20-39.518-42-41.999c22-2.482,39.52-19.998,42-42.001c2.48,22.002,20,39.518,42,41.999-22,2.482-39.52,19.998-42,42v.001Z" fill="#ffe4b1"/><path d="M277.5,636c-1.624-14.406-13.093-25.875-27.5-27.5c14.407-1.624,25.876-13.093,27.5-27.5c1.625,14.406,13.094,25.875,27.5,27.5-14.406,1.624-25.875,13.093-27.5,27.499v.001Z" fill="#ffe4b1"/><path d="M386.501,484c-2.039-18.073-16.427-32.461-34.501-34.499c18.074-2.039,32.462-16.427,34.501-34.501c2.038,18.073,16.426,32.461,34.499,34.499-18.073,2.039-32.461,16.427-34.499,34.5v.001Z" fill="#ffe4b1"/><g transform="translate(.000006 0.000015)"><path d="M233.688,706.413c12.841,22.289,39.176,77.262,41.793,118.837" fill="none" stroke="#abbdff" stroke-width="15.2635" stroke-linecap="round"/><path d="M230.417,637c2.391,12.56,18.117,17.536,27.627,8.745-5.641,11.53,4.074,24.559,17.074,22.895-11.522,6.093-11.522,22.203,0,28.3-13-1.667-22.715,11.366-17.074,22.896-9.51-8.791-25.236-3.815-27.627,8.745-2.39-12.56-18.116-17.536-27.626-8.745c5.641-11.53-4.074-24.559-17.074-22.896c11.521-6.092,11.521-22.202,0-28.3c13,1.668,22.715-11.365,17.074-22.895c9.51,8.791,25.236,3.815,27.626-8.745Z" transform="translate(.44746-2.009093)" fill="#ff8fec"/></g><g id="eVC5Uui218p8_tr" transform="translate(323.004852,682.7905) rotate(0)"><g transform="translate(-323.004828,-682.790498)"><path d="M300.199,521.772c9.497,21.682,27.173,82.841,21.905,154.026" fill="none" stroke="#abbdff" stroke-width="17" stroke-linecap="round"/><path d="M306,448c3.048,16.046,23.102,22.403,35.228,11.173-7.193,14.729,5.196,31.375,21.772,29.25-14.691,7.784-14.691,28.365,0,36.154-16.576-2.13-28.965,14.521-21.772,29.25-12.126-11.23-32.18-4.873-35.228,11.173-3.048-16.046-23.102-22.403-35.228-11.173c7.193-14.729-5.196-31.375-21.772-29.25c14.691-7.784,14.691-28.365,0-36.154c16.576,2.13,28.965-14.521,21.772-29.25c12.126,11.23,32.18,4.873,35.228-11.173Z" fill="#ff8fec"/></g></g><ellipse rx="16.588" ry="69.1711" transform="matrix(.620601-.784127 0.784127 0.620601 233.53283 799.779)" fill="url(#eVC5Uui218p11-fill)"/><ellipse rx="25.6575" ry="96.3792" transform="matrix(.974643 0.223764-.223764 0.974643 306.427199 752.667032)" fill="url(#eVC5Uui218p12-fill)"/><ellipse rx="18.0446" ry="50.3419" transform="matrix(.294354-.955697 0.955697 0.294354 263.423499 834.064496)" fill="url(#eVC5Uui218p13-fill)"/><path d="M1082.19,780.075c6.93-22.98,28.15-71.642,57.59-82.454s50.19.517,56.88,7.533" fill="none" stroke="#abbdff" stroke-width="14" stroke-linecap="round"/><g id="eVC5Uui218p15_tr" transform="translate(1060.175834,767.357) rotate(0)"><g transform="translate(-1060.175831,-767.356996)"><path d="M1070.69,781.152c10.23-139.928,55.91-392.621,156.81-283.972" fill="none" stroke="#abbdff" stroke-width="14" stroke-linecap="round"/><path d="M1060.78,778.013c10.27-101.853,46.58-286.484,109.72-210.187" fill="none" stroke="#abbdff" stroke-width="14" stroke-linecap="round"/><path d="M1243.18,447.679c-1.43,12.142,11.55,21.248,22.81,15.999-8.5,8.869-3.35,23.568,9.05,25.829-12.33,2.206-16.98,16.889-8.18,25.795-11.44-5.298-24.11,3.759-22.27,15.907-6.18-10.776-22.04-10.81-27.86-.056c1.44-12.143-11.54-21.248-22.8-15.999c8.5-8.87,3.35-23.568-9.05-25.829c12.33-2.206,16.98-16.89,8.17-25.795c11.44,5.297,24.12-3.759,22.27-15.907c6.19,10.775,22.04,10.809,27.86.056Z" fill="#ff8fec"/><path d="M1181.52,533.04c-.88,10.318,8.72,18.396,18.74,15.769-7.92,6.676-6.84,19.176,2.1,24.402-10.32-.876-18.4,8.723-15.77,18.74-6.68-7.916-19.18-6.84-24.4,2.099.87-10.318-8.73-18.396-18.74-15.769c7.91-6.676,6.84-19.176-2.1-24.402c10.32.876,18.39-8.723,15.77-18.739c6.67,7.915,19.17,6.84,24.4-2.1Z" fill="#ff8fec"/></g></g><path d="M1199.37,648.842c-1.43,12.143,11.55,21.248,22.81,15.999-8.5,8.87-3.35,23.568,9.05,25.829-12.33,2.206-16.98,16.89-8.18,25.795-11.44-5.297-24.11,3.759-22.27,15.907-6.18-10.775-22.04-10.809-27.86-.056c1.44-12.142-11.54-21.248-22.8-15.999c8.5-8.869,3.35-23.568-9.05-25.829c12.33-2.206,16.98-16.889,8.17-25.795c11.44,5.298,24.12-3.759,22.27-15.907c6.19,10.776,22.04,10.81,27.86.056Z" fill="#ff8fec"/><ellipse rx="22.8223" ry="126.5" transform="matrix(.999354 0.035939-.035939 0.999354 1067.619904 653.624153)" fill="url(#eVC5Uui218p21-fill)"/><path d="M332.699,690.53c2.422-9.014,11.333-14.681,20.524-13.053l86.94,15.406c10.187,1.805,16.759,11.805,14.375,21.871l-35.671,150.63c-1.94,8.191-9.298,13.944-17.715,13.851l-95.604-1.058c-11.758-.13-20.236-11.314-17.184-22.67L332.699,690.53Z" fill="url(#eVC5Uui218p22-fill)"/><path d="M428.5,806.5c32-18.5,127.5,27,133,27l24,3-2.5,61c-48.833,8.833-151.7,25.4-172.5,21-26-5.5-29.5-41-28.5-65s14.5-28.5,46.5-47Z" fill="url(#eVC5Uui218p23-fill)"/><g id="eVC5Uui218p24_tr" transform="translate(693.533011,169.030762) rotate(0)"><g transform="translate(-693.533007,-169.030754)"><path d="M492.5,306.5c10,0,47.5-99.333,65-149l274,30.5L822,318.5h-170.5L620,338l-76.5,34c-7.667,4.833-26.2,14.7-39,15.5s-10-23.667-7-36c-5.167,1.333-18.2.5-29-13.5-13.5-17.5,11.5-31.5,24-31.5Z" fill="url(#eVC5Uui218p25-fill)"/><path d="M508.5,358c-.915-8.12-7.38-14.584-15.5-15.5c8.12-.915,14.585-7.38,15.5-15.5.916,8.12,7.38,14.584,15.5,15.5-8.12.915-14.584,7.38-15.5,15.499v.001Z" fill="#714fa7"/><path d="M557,331c-1.24-11.001-9.999-19.759-21-21c11.001-1.24,19.76-9.999,21-21c1.241,11.001,9.999,19.759,21,21-11.001,1.24-19.759,9.999-21,20.999v.001Z" fill="#714fa7"/></g></g><path d="M894.5,897.5c-29.6,2-66.167-8.167-83.5-19L832,847c28.667-8.5,92.8-23.9,120-17.5c34,8,8.5,49,8.5,55s-29,10.5-66,13Z" fill="url(#eVC5Uui218p28-fill)"/><path d="M821.658,868.691c25.046-22.558,24.047-61.835,20.418-78.654C835.723,740.568,932.688,696.851,885.5,683s-425.466-31.969-472.654-19.107-38.567,64.308-37.66,99.431c.908,35.122,83.941,50.457,131.129,60.846c47.188,10.388,71.689,31.659,132.943,59.856c61.253,28.197,151.092,12.862,182.4-15.335Z" fill="#171717"/><path d="M783.242,739.027C830.43,725,953.845,667.893,1001.03,680.917c47.19,13.025,38.57,65.123,37.66,100.69-.9,35.566-83.938,51.095-131.126,61.615-47.187,10.52-71.689,32.061-132.943,60.614-55.114,25.692-133.371,15.694-171.309-7.368-2.211,4.437-5.615,8.047-10.734,9.316C576.406,909.79,557,857.205,557,831.163c0-13.792,6.615-14.737,13.276-11.814.35-4.109.899-7.741,1.528-10.691c6.352-50.095,164.25-55.605,211.438-69.631Z" fill="#161616"/><path d="M964.228,705.371c-1.807-9.443,4.126-18.638,13.474-20.885l94.998-22.828c9.59-2.304,19.24,3.534,21.66,13.094l41.28,163.468c2.21,8.747-2.4,17.779-10.78,21.124l-101.61,40.569c-10.5,4.194-22.22-2.225-24.349-13.334L964.228,705.371Z" fill="#c4a689"/><path d="M261,677l856.5-48v33L917,710h-656v-33Z" fill="#a28366"/><path d="M447.223,629h670.277L917,677h-656l186.223-48Z" fill="#c4a689"/><path d="M701.5,345l80-35c32.167.5,105.7,7.1,142.5,29.5c2.14,1.303,4.114,3.142,5.931,5.468C954.397,347.26,970.037,400.65,973,412.5c3,12,23,68.903,52,126.403c6.49,12.875,10.48,23.82,12.26,33.205c1.67,4.155,2.64,8.465,2.73,12.915.57,27.592-34.86,73.178-75.911,65.981-32.84-5.758-66.213,3.842-85.332,6.241-.938,3.999-19.037,5.755-31.633,5.755-10.272,0-23.735-20.211-32.217-35.91L524,619L469.5,495.5l45-79c1.5-15.167,7.8-51.8,21-77c16.5-31.5,98-33,102.5-33.5l63.5,39Z" fill="url(#eVC5Uui218p34-fill)"/><path d="M653.5,458c-.915-8.12-7.38-14.584-15.5-15.5c8.12-.915,14.585-7.38,15.5-15.5.916,8.12,7.38,14.584,15.5,15.5-8.12.915-14.584,7.38-15.5,15.499v.001Z" fill="#fff"/><path d="M624.501,442c-1.98-17.549-15.951-31.52-33.501-33.499c17.55-1.98,31.521-15.951,33.501-33.501c1.979,17.549,15.95,31.52,33.499,33.499-17.549,1.98-31.52,15.951-33.499,33.5v.001Z" fill="#fff"/><path d="M543,516c0-7.167,0-26.7,0-47.5s19-46.333,28.5-56.5l-11-11" fill="none" stroke="#b488d6" stroke-width="9" stroke-linecap="round"/><path d="M845.5,456c4.877,26.238,30.861,73.362,31.5,80.5M845.5,456L862,437.218M845.5,456v-24.782" fill="none" stroke="#b488d6" stroke-width="9" stroke-linecap="round"/><g id="eVC5Uui218p39_to" transform="translate(420.5,613.5)"><g transform="translate(-420.5,-613.5)"><path d="M470,634.794C470,656.219,446.719,662,418,662s-52-5.781-52-27.206s23.281-38.794,52-38.794s52,17.369,52,38.794Z" fill="#666"/><path d="M475,603.794C475,625.219,451.719,631,423,631s-52-5.781-52-27.206s23.281-38.794,52-38.794s52,17.369,52,38.794Z" fill="url(#eVC5Uui218p41-fill)"/></g></g><ellipse rx="52" ry="26.4227" transform="matrix(.852488 0.522747-.522747 0.852488 672.14232 326.707795)" fill="#fea6ef"/><path d="M672,277h66v46c0,0-4,9.5-32.5,9.5s-33.5-9.5-33.5-9.5v-46Z" fill="url(#eVC5Uui218p43-fill)"/><ellipse rx="52" ry="23.9748" transform="matrix(-.852488 0.522747 0.522747 0.852488 737.862382 328.621068)" fill="#fea6ef"/><path d="M1046.75,712.187c7.64,16.616,24.98,20.842,33.85,8.248-3.17,17.028,8.45,35.333,22.68,35.735-12.12,7.464-13.03,29.126-1.77,42.288-13.98-6.473-26.88,5.857-25.19,24.069-7.65-16.617-24.99-20.843-33.86-8.249c3.17-17.027-8.45-35.332-22.68-35.734c12.13-7.464,13.04-29.127,1.78-42.288c13.98,6.473,26.88-5.858,25.19-24.069Z" fill="#a28366"/><path d="M862,602.5c0,21.263-28.878,27-64.5,27s-64.5-5.737-64.5-27s28.878-38.5,64.5-38.5s64.5,17.237,64.5,38.5Z" fill="url(#eVC5Uui218p46-fill)"/><path d="M525.83,623.951l-43.618,28c-5.041,3.236-2.749,11.049,3.241,11.049h275.816c1.31,0,2.583-.429,3.627-1.22l36.898-28c4.58-3.476,2.122-10.78-3.626-10.78h-269.097c-1.149,0-2.274.33-3.241.951Z" fill="url(#eVC5Uui218p47-fill)"/><path d="M467.966,664.945l-58.244-170c-1.334-3.894,1.56-7.945,5.676-7.945h285.594c2.671,0,5.02,1.765,5.763,4.33l49.272,170c1.112,3.838-1.767,7.67-5.763,7.67h-276.622c-2.564,0-4.845-1.63-5.676-4.055Z" fill="#b1b1b1"/><path d="M578.175,609.042c12.87-.82,22.597-12.569,21.726-26.242-.601-9.441-6.098-17.331-13.679-21.041-1.193-.584-2.523.296-2.602,1.623l-.832,13.939c-.06,1.007-.862,1.812-1.87,1.877l-9.477.603c-.906.058-1.738-.502-2.025-1.364l-4.294-12.891c-.414-1.243-1.893-1.758-2.904-.926-5.889,4.847-9.466,12.623-8.923,21.148.871,13.674,12.01,24.094,24.88,23.274Z" clip-rule="evenodd" fill="#e4e4e4" fill-rule="evenodd"/><path d="M871,539.033l-.55,4.467l1.003.123.96-.317L871,539.033Zm116.359-4.075c2.186,1.182,4.916.369,6.099-1.817c1.182-2.186.369-4.916-1.817-6.099L989.5,531l-2.141,3.958ZM806,564.033l4.493.259c.227-3.937,1.29-9.917,3.621-14.903c2.375-5.079,5.476-8.005,9.319-8.377L823,536.533l-.433-4.479c-8.557.828-13.706,7.32-16.606,13.524-2.944,6.297-4.181,13.467-4.454,18.196l4.493.259Zm17-27.5l.433,4.479c11.829-1.144,36.109,1.145,47.017,2.488l.55-4.467.55-4.466c-10.759-1.324-36.012-3.768-48.983-2.513l.433,4.479Zm48,2.5l1.413,4.273c10.515-3.478,27.272-8.649,43.313-12.844c8.023-2.098,15.815-3.939,22.533-5.203c6.822-1.284,12.185-1.902,15.511-1.732l.23-4.494.23-4.494c-4.474-.229-10.74.578-17.636,1.875-7,1.317-15.014,3.214-23.145,5.341-16.267,4.254-33.211,9.483-43.862,13.006L871,539.033Zm83-20l-.23,4.494c14.459.742,23.366,5.901,33.589,11.431L989.5,531l2.141-3.958c-10.11-5.47-20.67-11.644-37.411-12.503l-.23,4.494Z" fill="#b488d6"/><path d="M703,492l52.5,172.5" fill="none" stroke="#d5d5d5" stroke-width="9" stroke-linecap="round"/><path d="M415,491.088h287.5" fill="none" stroke="#d5d5d5" stroke-width="9" stroke-linecap="round"/><g id="eVC5Uui218p53_tr" transform="translate(1067.619904,882.232001) rotate(0)"><g transform="translate(-1067.619903,-882.231999)"><path d="M1105.92,781.713c-10.86,18.854-33.14,65.353-35.35,100.519" fill="none" stroke="#abbdff" stroke-width="12.9107" stroke-linecap="round"/><path d="M1108.69,723c-2.02,10.624-15.33,14.833-23.37,7.397c4.77,9.753-3.45,20.773-14.44,19.366c9.74,5.154,9.74,18.78,0,23.938c10.99-1.411,19.21,9.614,14.44,19.366c8.04-7.436,21.35-3.226,23.37,7.397c2.02-10.623,15.32-14.833,23.37-7.397-4.78-9.752,3.44-20.773,14.44-19.366-9.75-5.154-9.75-18.78,0-23.938-11,1.411-19.22-9.613-14.44-19.366-8.05,7.436-21.35,3.227-23.37-7.397Z" fill="#ff8fec"/></g></g><ellipse rx="14.031" ry="58.5087" transform="matrix(-.6206-.784127-.784127 0.6206 1106.054097 860.687419)" fill="url(#eVC5Uui218p56-fill)"/><ellipse rx="21.7025" ry="81.5228" transform="matrix(-.974644 0.223763 0.223763 0.974644 1044.389575 820.83689)" fill="url(#eVC5Uui218p57-fill)"/><g id="eVC5Uui218p58_tr" transform="translate(699.062,289) rotate(0)"><g transform="translate(-699.062,-289)"><ellipse rx="29.5" ry="49" transform="matrix(-1 0 0 1 582.5 196)" fill="#c9a6fe"/><g filter="url(#eVC5Uui218p60-filter)"><rect width="215" height="188" rx="83" ry="83" transform="translate(583 101)" fill="url(#eVC5Uui218p61-fill)"/></g><g filter="url(#eVC5Uui218p62-filter)"><path d="M591.5,78.9995c29.501-21.4998,161-24.4989,199-10.499C828.5,82.5007,856,182,861,202.001C866.826,225.304,906.5,284.5,920.5,305c11.2,16.4,30.71,38.006,29.5,50s-22.2,42.201-47,51.001c-24.8,8.799-30.333-7.667-30-17-8.667,19.166-31,58.6-51,63-20,4.399-12.667-21.167-6.5-34.5-8.333,6.5-29.8,18.7-49,15.5-24-4-25.5-24.001,16-120C796.5,230,790,233.5,790,222s.5-27.999.5-27.999l-62.5-85c-35.833,1.166-108.1,3.4-110.5,3l-29.5,53.5-34.5,16.5c-2.5-29.167,14.4-85.8014,38-103.0015Z" fill="#1a1a1a"/><g id="eVC5Uui218p64_tr" transform="translate(718,54.651855) rotate(0)"><path d="M715.896,24.1558c0,0,16.611-21.57853,23.659-18.39941c7.048,3.1793,7.883,16.57201,1.865,29.91311s-16.61,21.5787-23.658,18.3994-1.866-29.9131-1.866-29.9131Z" transform="translate(-717.999987,-54.651855)" fill="#1a1a1a"/></g></g><path d="M658,262c1.476,2,5.702,5.5,12,5.5s9-3,11.5-5.5" fill="none" stroke="#e97a9d" stroke-width="7" stroke-linecap="round"/><ellipse rx="49.5" ry="23" transform="translate(668.5 239)" fill="url(#eVC5Uui218p66-fill)"/><g filter="url(#eVC5Uui218p67-filter)"><path d="M767.468,185h-191.538c-1.978,0-3.415,1.882-2.893,3.791l15.859,58c.357,1.305,1.542,2.209,2.894,2.209h48.72c1.206,0,2.295-.722,2.764-1.834l21.452-50.832c.469-1.112,1.558-1.834,2.764-1.834h4.915c1.259,0,2.383.785,2.817,1.966l18.556,50.568c.434,1.181,1.558,1.966,2.817,1.966h61.357c1.469,0,2.723-1.064,2.961-2.514l9.515-58c.3-1.827-1.11-3.486-2.96-3.486Z" fill="#91aaff"/></g><path d="M623.5,249.5L598,185h25.5L639,249.5h-15.5Z" fill="url(#eVC5Uui218p69-fill)"/><path d="M728.5,249L703,185h25.5L744,249h-15.5Z" fill="url(#eVC5Uui218p70-fill)"/><path d="M600.5,80.4999c33-18.4999,129.46-18.4058,154.5-8c32.22,13.3903,49.38,49.4271,57.345,77.6301.712-.086,1.43-.13,2.155-.13c4.16,0,8.118,1.432,11.708,4.014C841.068,154.635,853,174.762,853,199.5c0,25.129-12.313,45.5-27.5,45.5-.263,0-.524-.008-.785-.02-3.183,1.952-6.624,3.02-10.215,3.02-16.293,0-29.5-21.938-29.5-49c0-18.166,5.951-34.024,14.793-42.486-6.775-17.955-25.701-62.2878-50.293-71.0141-33.167-11.7685-121.15-7.0296-144.5,5.5C584.5,102,583.833,136.667,584,156h-16c-.334-18.333,6.1-60.7,32.5-75.5001Z" fill="url(#eVC5Uui218p71-fill)"/><g filter="url(#eVC5Uui218p72-filter)"><path d="M611.936,90.4519c16.709-10.0351,37.666,4.1812,46.056,12.5441.955.651,2.473,3.934,3.24,7.504.18-.618.464-1.256.864-1.911c6.834-7.667,24.9-17.1892,58.5-19.5892c42-3,60,71.9992,67.5,82.0002c7.5,10,26,20.588,21,32.088-2.262,5.202-13.734.581-25.204-6.457c1.591,2.239,3.023,4.428,4.204,6.457c2.167,4,6.8,13.2,0,16-8.5,3.5-24-5-53-23-28.999-18-34.502-69.088-42.502-78.588-7.999-9.5-18.596,2.073-24.5,1-2.912-.53-5.264-1.901-6.386-3.803-.02,2.273-.595,4.268-2.114,5.303-5.89,4.014-17.792,6.998-36,7.5s-16.478,43.234-20.762,64.308c-4.285,21.075-64.265,26.093-73.905,16.559-7.711-7.627,10.712-14.217,20.887-16.559-10.889-1.505-20.222-5.174-26.22-14.808-7.497-12.043,12.831-19.814,32.111-19.312c19.279.502,35.345-54.692,56.231-67.2361Z" fill="#ffe4b1"/></g><path d="M704.798,196.151c2.238-1.856,5.547-1.534,7.391.718l11.936,14.576l14.484-12.013c2.237-1.856,5.547-1.536,7.391.716c1.844,2.253,1.525,5.583-.713,7.44l-14.483,12.014l11.937,14.577c1.844,2.252,1.525,5.583-.712,7.439-2.238,1.857-5.547,1.535-7.391-.717L722.7,226.324l-14.481,12.014c-2.238,1.856-5.548,1.535-7.392-.717s-1.525-5.583.712-7.439l14.483-12.015-11.936-14.576c-1.844-2.252-1.525-5.583.712-7.44Z" fill="#ff85ed"/><path d="M626.972,196.992c1.807-2.283,5.111-2.659,7.379-.841c2.268,1.819,2.641,5.144.835,7.427l-11.889,15.019L636.5,232.463c2.006,2.107,1.935,5.453-.158,7.472-2.094,2.02-5.418,1.948-7.425-.159L616.695,226.94L605.69,240.846c-1.807,2.283-5.111,2.659-7.379.841-2.267-1.818-2.642-5.143-.835-7.426l11.887-15.021-13.201-13.865c-2.006-2.107-1.935-5.452.158-7.472c2.094-2.019,5.418-1.948,7.424.159l12.222,12.835l11.006-13.905Z" fill="#ff85ed"/><path d="M831.5,173c1.39,8.207,8.453,12.108,13.789,7.615-3.37,7.114-.444,16.531,5.711,18.385-6.155,1.854-9.081,11.271-5.711,18.385-5.336-4.493-12.399-.592-13.789,7.615-1.39-8.207-8.453-12.108-13.789-7.615c3.37-7.114.444-16.531-5.711-18.385c6.155-1.854,9.081-11.271,5.711-18.385c5.336,4.493,12.399.592,13.789-7.615Z" fill="#fff"/><path d="M835.5,392c.916,8.12,7.38,14.584,15.5,15.5-8.119.916-14.584,7.38-15.5,15.499-.916-8.12-7.38-14.583-15.5-15.499c8.12-.916,14.584-7.38,15.5-15.5Z" fill="url(#eVC5Uui218p77-fill)"/><path d="M802,359c1.241,11.001,9.999,19.759,21,21-11.001,1.241-19.759,9.998-21,20.999-1.241-11-9.999-19.758-21-20.999c11.001-1.241,19.759-9.999,21-21Z" fill="url(#eVC5Uui218p78-fill)"/><path d="M898,329c1.241,11.001,9.999,19.759,21,21-11.001,1.241-19.759,9.998-21,20.999-1.241-11-9.999-19.758-21-20.999c11.001-1.241,19.759-9.999,21-21Z" fill="url(#eVC5Uui218p79-fill)"/><path d="M761.144,113.877c5.274,7.766,9.714,16.452,13.447,24.694-.368-.812-.742-1.629-1.123-2.448.341,5.09-2.856,10.045-8.077,11.862-6.222,2.166-12.959-.939-15.047-6.937c2.087,5.996-1.264,12.615-7.487,14.781-5.803,2.02-12.052-.546-14.56-5.766c1.274,5.649-2.031,11.54-7.832,13.56-3.57,1.243-7.308.748-10.241-1.03.088.202.177.404.266.606-5.054-11.473-8.485-23.334-11.428-32.309.417-.198.85-.376,1.297-.53c6.232-2.133,12.954,1.006,15.011,7.014-2.056-6.007,1.329-12.608,7.563-14.742c5.813-1.99,12.048.609,14.53,5.841-1.246-5.655,2.091-11.531,7.902-13.521c6.232-2.133,12.954,1.007,15.011,7.015.063.183.119.368.172.553l.015-.006c-1.004-2.934-.709-6.009.581-8.637Z" fill="#fffcf6"/><path d="M597.85,106c-1.053,1.531-2.098,3.117-3.135,4.744.503,2.371.263,4.894-.856,7.213c2.759-5.718,9.806-8.036,15.741-5.174c5.534,2.67,8.144,8.9,6.233,14.366c3.088-4.898,9.589-6.733,15.122-4.065c1.828.882,3.337,2.154,4.47,3.657.632-.063,1.254-.13,1.865-.2-3.923.449-8.277.755-13.068.887-11.33.312-14.94,16.975-17.083,34.597.101-.833.205-1.664.313-2.491-4.971-2.947-7.226-9.011-5.054-14.334-2.398,5.879-9.288,8.628-15.389,6.139-5.69-2.322-8.681-8.378-7.112-13.952-.941,1.721-2.297,3.113-3.897,4.114c7.17-10.607,14.287-24.508,21.85-35.501Z" fill="#fffcf6"/></g></g></svg>
