<svg width="1459" height="929" viewBox="0 0 1459 929" fill="none" xmlns="http://www.w3.org/2000/svg">
<path d="M1088 493C1085.52 470.998 1068 453.482 1046 451.001C1068 448.519 1085.52 431.003 1088 409C1090.48 431.002 1108 448.518 1130 450.999C1108 453.481 1090.48 470.997 1088 492.999V493Z" fill="#FFE4B1"/>
<path d="M277.5 636C275.876 621.594 264.407 610.125 250 608.5C264.407 606.876 275.876 595.407 277.5 581C279.125 595.406 290.594 606.875 305 608.5C290.594 610.124 279.125 621.593 277.5 635.999V636Z" fill="#FFE4B1"/>
<path d="M386.501 484C384.462 465.927 370.074 451.539 352 449.501C370.074 447.462 384.462 433.074 386.501 415C388.539 433.073 402.927 447.461 421 449.499C402.927 451.538 388.539 465.926 386.501 483.999V484Z" fill="#FFE4B1"/>
<path d="M233.688 706.413C246.529 728.702 272.864 783.675 275.481 825.25" stroke="#ABBDFF" stroke-width="15.2635" stroke-linecap="round"/>
<path d="M230.417 637C232.808 649.56 248.534 654.536 258.044 645.745C252.403 657.275 262.118 670.304 275.118 668.64C263.596 674.733 263.596 690.843 275.118 696.94C262.118 695.273 252.403 708.306 258.044 719.836C248.534 711.045 232.808 716.021 230.417 728.581C228.027 716.021 212.301 711.045 202.791 719.836C208.432 708.306 198.717 695.277 185.717 696.94C197.238 690.848 197.238 674.738 185.717 668.64C198.717 670.308 208.432 657.275 202.791 645.745C212.301 654.536 228.027 649.56 230.417 637Z" fill="#FF8FEC"/>
<path d="M300.199 521.772C309.696 543.454 327.372 604.613 322.104 675.798" stroke="#ABBDFF" stroke-width="17" stroke-linecap="round"/>
<path d="M306 448C309.048 464.046 329.102 470.403 341.228 459.173C334.035 473.902 346.424 490.548 363 488.423C348.309 496.207 348.309 516.788 363 524.577C346.424 522.447 334.035 539.098 341.228 553.827C329.102 542.597 309.048 548.954 306 565C302.952 548.954 282.898 542.597 270.772 553.827C277.965 539.098 265.576 522.452 249 524.577C263.691 516.793 263.691 496.212 249 488.423C265.576 490.553 277.965 473.902 270.772 459.173C282.898 470.403 302.952 464.046 306 448Z" fill="#FF8FEC"/>
<ellipse cx="233.533" cy="799.779" rx="16.588" ry="69.1711" transform="rotate(-51.64 233.533 799.779)" fill="url(#paint0_linear_2280_1010)"/>
<ellipse cx="306.427" cy="752.667" rx="25.6575" ry="96.3792" transform="rotate(12.9302 306.427 752.667)" fill="url(#paint1_linear_2280_1010)"/>
<ellipse cx="263.423" cy="834.064" rx="18.0446" ry="50.3419" transform="rotate(-72.8812 263.423 834.064)" fill="url(#paint2_linear_2280_1010)"/>
<path d="M1082.19 780.075C1089.12 757.095 1110.34 708.433 1139.78 697.621C1169.22 686.809 1189.97 698.138 1196.66 705.154" stroke="#ABBDFF" stroke-width="14" stroke-linecap="round"/>
<path d="M1070.69 781.152C1080.92 641.224 1126.6 388.531 1227.5 497.18" stroke="#ABBDFF" stroke-width="14" stroke-linecap="round"/>
<path d="M1060.78 778.013C1071.05 676.16 1107.36 491.529 1170.5 567.826" stroke="#ABBDFF" stroke-width="14" stroke-linecap="round"/>
<path d="M1199.37 648.842C1197.94 660.985 1210.92 670.09 1222.18 664.841C1213.68 673.711 1218.83 688.409 1231.23 690.67C1218.9 692.876 1214.25 707.56 1223.05 716.465C1211.61 711.168 1198.94 720.224 1200.78 732.372C1194.6 721.597 1178.74 721.563 1172.92 732.316C1174.36 720.174 1161.38 711.068 1150.12 716.317C1158.62 707.448 1153.47 692.749 1141.07 690.488C1153.4 688.282 1158.05 673.599 1149.24 664.693C1160.68 669.991 1173.36 660.934 1171.51 648.786C1177.7 659.562 1193.55 659.596 1199.37 648.842Z" fill="#FF8FEC"/>
<path d="M1243.18 447.679C1241.75 459.821 1254.73 468.927 1265.99 463.678C1257.49 472.547 1262.64 487.246 1275.04 489.507C1262.71 491.713 1258.06 506.396 1266.86 515.302C1255.42 510.004 1242.75 519.061 1244.59 531.209C1238.41 520.433 1222.55 520.399 1216.73 531.153C1218.17 519.01 1205.19 509.905 1193.93 515.154C1202.43 506.284 1197.28 491.586 1184.88 489.325C1197.21 487.119 1201.86 472.435 1193.05 463.53C1204.49 468.827 1217.17 459.771 1215.32 447.623C1221.51 458.398 1237.36 458.432 1243.18 447.679Z" fill="#FF8FEC"/>
<ellipse cx="1067.62" cy="653.624" rx="22.8223" ry="126.5" transform="rotate(2.05959 1067.62 653.624)" fill="url(#paint3_linear_2280_1010)"/>
<path d="M1181.52 533.04C1180.64 543.358 1190.24 551.436 1200.26 548.809C1192.34 555.485 1193.42 567.985 1202.36 573.211C1192.04 572.335 1183.96 581.934 1186.59 591.951C1179.91 584.035 1167.41 585.111 1162.19 594.05C1163.06 583.732 1153.46 575.654 1143.45 578.281C1151.36 571.605 1150.29 559.105 1141.35 553.879C1151.67 554.755 1159.74 545.156 1157.12 535.14C1163.79 543.055 1176.29 541.98 1181.52 533.04Z" fill="#FF8FEC"/>
<path d="M332.699 690.53C335.121 681.516 344.032 675.849 353.223 677.477L440.163 692.883C450.35 694.688 456.922 704.688 454.538 714.754L418.867 865.384C416.927 873.575 409.569 879.328 401.152 879.235L305.548 878.177C293.79 878.047 285.312 866.863 288.364 855.507L332.699 690.53Z" fill="url(#paint4_linear_2280_1010)"/>
<path d="M428.5 806.5C460.5 788 556 833.5 561.5 833.5L585.5 836.5L583 897.5C534.167 906.333 431.3 922.9 410.5 918.5C384.5 913 381 877.5 382 853.5C383 829.5 396.5 825 428.5 806.5Z" fill="url(#paint5_linear_2280_1010)"/>
<path d="M894.5 897.5C864.9 899.5 828.333 889.333 811 878.5L832 847C860.667 838.5 924.8 823.1 952 829.5C986 837.5 960.5 878.5 960.5 884.5C960.5 890.5 931.5 895 894.5 897.5Z" fill="url(#paint6_linear_2280_1010)"/>
<path d="M821.658 868.691C846.704 846.133 845.705 806.856 842.076 790.037C835.723 740.568 932.688 696.851 885.5 683C838.312 669.149 460.034 651.031 412.846 663.893C365.658 676.755 374.279 728.201 375.186 763.324C376.094 798.446 459.127 813.781 506.315 824.17C553.503 834.558 578.004 855.829 639.258 884.026C700.511 912.223 790.35 896.888 821.658 868.691Z" fill="#171717"/>
<path d="M783.242 739.027C830.43 725 953.845 667.893 1001.03 680.917C1048.22 693.942 1039.6 746.04 1038.69 781.607C1037.79 817.173 954.752 832.702 907.564 843.222C860.377 853.742 835.875 875.283 774.621 903.836C719.507 929.528 641.25 919.53 603.312 896.468C601.101 900.905 597.697 904.515 592.578 905.784C576.406 909.79 557 857.205 557 831.163C557 817.371 563.615 816.426 570.276 819.349C570.626 815.24 571.175 811.608 571.804 808.658C578.156 758.563 736.054 753.053 783.242 739.027Z" fill="#161616"/>
<path d="M964.228 705.371C962.421 695.928 968.354 686.733 977.702 684.486L1072.7 661.658C1082.29 659.354 1091.94 665.192 1094.36 674.752L1135.64 838.22C1137.85 846.967 1133.24 855.999 1124.86 859.344L1023.25 899.913C1012.75 904.107 1001.03 897.688 998.901 886.579L964.228 705.371Z" fill="#C4A689"/>
<path d="M261 677L1117.5 629V662L917 710H261V677Z" fill="#A28366"/>
<path d="M447.223 629H1117.5L917 677H261L447.223 629Z" fill="#C4A689"/>
<path d="M492.5 306.5C502.5 306.5 540 207.167 557.5 157.5L831.5 188L822 318.5H651.5L620 338L543.5 372C535.833 376.833 517.3 386.7 504.5 387.5C491.7 388.3 494.5 363.833 497.5 351.5C492.333 352.833 479.3 352 468.5 338C455 320.5 480 306.5 492.5 306.5Z" fill="url(#paint7_linear_2280_1010)"/>
<path d="M508.5 358C507.585 349.88 501.12 343.416 493 342.5C501.12 341.585 507.585 335.12 508.5 327C509.416 335.12 515.88 341.584 524 342.5C515.88 343.415 509.416 349.88 508.5 357.999V358Z" fill="#714FA7"/>
<path d="M557 331C555.76 319.999 547.001 311.241 536 310C547.001 308.76 555.76 300.001 557 289C558.241 300.001 566.999 308.759 578 310C566.999 311.24 558.241 319.999 557 330.999V331Z" fill="#714FA7"/>
<path d="M701.5 345L781.5 310C813.667 310.5 887.2 317.1 924 339.5C926.14 340.803 928.114 342.642 929.931 344.968C954.397 347.26 970.037 400.65 973 412.5C976 424.5 996 481.403 1025 538.903C1031.49 551.778 1035.48 562.723 1037.26 572.108C1038.93 576.263 1039.9 580.573 1039.99 585.023C1040.56 612.615 1005.13 658.201 964.079 651.004C931.239 645.246 897.866 654.846 878.747 657.245C877.809 661.244 859.71 663 847.114 663C836.842 663 823.379 642.789 814.897 627.09L524 619L469.5 495.5L514.5 416.5C516 401.333 522.3 364.7 535.5 339.5C552 308 633.5 306.5 638 306L701.5 345Z" fill="url(#paint8_linear_2280_1010)"/>
<path d="M653.5 458C652.585 449.88 646.12 443.416 638 442.5C646.12 441.585 652.585 435.12 653.5 427C654.416 435.12 660.88 441.584 669 442.5C660.88 443.415 654.416 449.88 653.5 457.999V458Z" fill="white"/>
<path d="M624.501 442C622.521 424.451 608.55 410.48 591 408.501C608.55 406.521 622.521 392.55 624.501 375C626.48 392.549 640.451 406.52 658 408.499C640.451 410.479 626.48 424.45 624.501 441.999V442Z" fill="white"/>
<path d="M543 516C543 508.833 543 489.3 543 468.5C543 447.7 562 422.167 571.5 412L560.5 401" stroke="#B488D6" stroke-width="9" stroke-linecap="round"/>
<path d="M845.5 456C850.377 482.238 876.361 529.362 877 536.5M845.5 456L862 437.218M845.5 456L845.5 431.218" stroke="#B488D6" stroke-width="9" stroke-linecap="round"/>
<ellipse cx="672.142" cy="326.708" rx="52" ry="26.4227" transform="rotate(31.5167 672.142 326.708)" fill="#FEA6EF"/>
<path d="M470 634.794C470 656.219 446.719 662 418 662C389.281 662 366 656.219 366 634.794C366 613.369 389.281 596 418 596C446.719 596 470 613.369 470 634.794Z" fill="#666666"/>
<path d="M475 603.794C475 625.219 451.719 631 423 631C394.281 631 371 625.219 371 603.794C371 582.369 394.281 565 423 565C451.719 565 475 582.369 475 603.794Z" fill="url(#paint9_linear_2280_1010)"/>
<path d="M672 277H738V323C738 323 734 332.5 705.5 332.5C677 332.5 672 323 672 323V277Z" fill="url(#paint10_linear_2280_1010)"/>
<ellipse cx="52" cy="23.9748" rx="52" ry="23.9748" transform="matrix(-0.852488 0.522747 0.522747 0.852488 769.659 281)" fill="#FEA6EF"/>
<ellipse cx="29.5" cy="49" rx="29.5" ry="49" transform="matrix(-1 0 0 1 612 147)" fill="#C9A6FE"/>
<g filter="url(#filter0_d_2280_1010)">
<rect x="583" y="101" width="215" height="188" rx="83" fill="url(#paint11_linear_2280_1010)"/>
</g>
<g filter="url(#filter1_d_2280_1010)">
<path d="M591.5 78.9995C621.001 57.4997 752.5 54.5006 790.5 68.5005C828.5 82.5007 856 182 861 202.001C866.826 225.304 906.5 284.5 920.5 305C931.7 321.4 951.21 343.006 950 355C948.79 366.994 927.8 397.201 903 406.001C878.2 414.8 872.667 398.334 873 389.001C864.333 408.167 842 447.601 822 452.001C802 456.4 809.333 430.834 815.5 417.501C807.167 424.001 785.7 436.201 766.5 433.001C742.5 429.001 741 409 782.5 313.001C796.5 230 790 233.5 790 222C790 210.5 790.5 194.001 790.5 194.001L728 109.001C692.167 110.167 619.9 112.401 617.5 112.001L588 165.501L553.5 182.001C551 152.834 567.9 96.1996 591.5 78.9995Z" fill="#1A1A1A"/>
<path d="M715.896 24.1558C721.914 10.815 732.507 2.57727 739.555 5.75639C746.603 8.93569 747.438 22.3284 741.42 35.6695C735.402 49.0105 724.81 57.2482 717.762 54.0689C710.714 50.8896 709.879 37.4968 715.896 24.1558Z" fill="#1A1A1A"/>
</g>
<path d="M658 262C659.476 264 663.702 267.5 670 267.5C676.298 267.5 679 264.5 681.5 262" stroke="#E97A9D" stroke-width="7" stroke-linecap="round"/>
<ellipse cx="668.5" cy="239" rx="49.5" ry="23" fill="url(#paint12_radial_2280_1010)"/>
<g filter="url(#filter2_d_2280_1010)">
<path d="M767.468 185H575.93C573.952 185 572.515 186.882 573.037 188.791L588.896 246.791C589.253 248.096 590.438 249 591.79 249H640.51C641.716 249 642.805 248.278 643.274 247.166L664.726 196.334C665.195 195.222 666.284 194.5 667.49 194.5H672.405C673.664 194.5 674.788 195.285 675.222 196.466L693.778 247.034C694.212 248.215 695.336 249 696.595 249H757.952C759.421 249 760.675 247.936 760.913 246.486L770.428 188.486C770.728 186.659 769.318 185 767.468 185Z" fill="#91AAFF"/>
</g>
<path d="M623.5 249.5L598 185H623.5L639 249.5H623.5Z" fill="url(#paint13_linear_2280_1010)"/>
<path d="M728.5 249L703 185H728.5L744 249H728.5Z" fill="url(#paint14_linear_2280_1010)"/>
<path d="M600.5 80.4999C633.5 62 729.96 62.0941 755 72.4999C787.22 85.8902 804.38 121.927 812.345 150.13C813.057 150.044 813.775 150 814.5 150C818.66 150 822.618 151.432 826.208 154.014C841.068 154.635 853 174.762 853 199.5C853 224.629 840.687 245 825.5 245C825.237 245 824.976 244.992 824.715 244.98C821.532 246.932 818.091 248 814.5 248C798.207 248 785 226.062 785 199C785 180.834 790.951 164.976 799.793 156.514C793.018 138.559 774.092 94.2262 749.5 85.4999C716.333 73.7314 628.35 78.4703 605 90.9999C584.5 102 583.833 136.667 584 156H568C567.666 137.667 574.1 95.3 600.5 80.4999Z" fill="url(#paint15_linear_2280_1010)"/>
<g filter="url(#filter3_d_2280_1010)">
<path d="M611.936 90.4519C628.645 80.4168 649.602 94.6331 657.992 102.996C658.947 103.647 660.465 106.93 661.232 110.5C661.412 109.882 661.696 109.244 662.096 108.589C668.93 100.922 686.996 91.3998 720.596 88.9998C762.596 85.9998 780.596 160.999 788.096 171C795.596 181 814.096 191.588 809.096 203.088C806.834 208.29 795.362 203.669 783.892 196.631C785.483 198.87 786.915 201.059 788.096 203.088C790.263 207.088 794.896 216.288 788.096 219.088C779.596 222.588 764.096 214.088 735.096 196.088C706.097 178.088 700.594 127 692.594 117.5C684.595 108 673.998 119.573 668.094 118.5C665.182 117.97 662.83 116.599 661.708 114.697C661.688 116.97 661.113 118.965 659.594 120C653.704 124.014 641.802 126.998 623.594 127.5C605.386 128.002 607.116 170.734 602.832 191.808C598.547 212.883 538.567 217.901 528.927 208.367C521.216 200.74 539.639 194.15 549.814 191.808C538.925 190.303 529.592 186.634 523.594 177C516.097 164.957 536.425 157.186 555.705 157.688C574.984 158.19 591.05 102.996 611.936 90.4519Z" fill="#FFE4B1"/>
</g>
<path d="M704.798 196.151C707.036 194.295 710.345 194.617 712.189 196.869L724.125 211.445L738.609 199.432C740.846 197.576 744.156 197.896 746 200.148C747.844 202.401 747.525 205.731 745.287 207.588L730.804 219.602L742.741 234.179C744.585 236.431 744.266 239.762 742.029 241.618C739.791 243.475 736.482 243.153 734.638 240.901L722.7 226.324L708.219 238.338C705.981 240.194 702.671 239.873 700.827 237.621C698.983 235.369 699.302 232.038 701.539 230.182L716.022 218.167L704.086 203.591C702.242 201.339 702.561 198.008 704.798 196.151Z" fill="#FF85ED"/>
<path d="M626.972 196.992C628.779 194.709 632.083 194.333 634.351 196.151C636.619 197.97 636.992 201.295 635.186 203.578L623.297 218.597L636.5 232.463C638.506 234.57 638.435 237.916 636.342 239.935C634.248 241.955 630.924 241.883 628.917 239.776L616.695 226.94L605.69 240.846C603.883 243.129 600.579 243.505 598.311 241.687C596.044 239.869 595.669 236.544 597.476 234.261L609.363 219.24L596.162 205.375C594.156 203.268 594.227 199.923 596.32 197.903C598.414 195.884 601.738 195.955 603.744 198.062L615.966 210.897L626.972 196.992Z" fill="#FF85ED"/>
<path d="M831.5 173C832.89 181.207 839.953 185.108 845.289 180.615C841.919 187.729 844.845 197.146 851 199C844.845 200.854 841.919 210.271 845.289 217.385C839.953 212.892 832.89 216.793 831.5 225C830.11 216.793 823.047 212.892 817.711 217.385C821.081 210.271 818.155 200.854 812 199C818.155 197.146 821.081 187.729 817.711 180.615C823.047 185.108 830.11 181.207 831.5 173Z" fill="white"/>
<path d="M1046.75 712.187C1054.39 728.803 1071.73 733.029 1080.6 720.435C1077.43 737.463 1089.05 755.768 1103.28 756.17C1091.16 763.634 1090.25 785.296 1101.51 798.458C1087.53 791.985 1074.63 804.315 1076.32 822.527C1068.67 805.91 1051.33 801.684 1042.46 814.278C1045.63 797.251 1034.01 778.946 1019.78 778.544C1031.91 771.08 1032.82 749.417 1021.56 736.256C1035.54 742.729 1048.44 730.398 1046.75 712.187Z" fill="#A28366"/>
<path d="M862 602.5C862 623.763 833.122 629.5 797.5 629.5C761.878 629.5 733 623.763 733 602.5C733 581.237 761.878 564 797.5 564C833.122 564 862 581.237 862 602.5Z" fill="url(#paint16_linear_2280_1010)"/>
<path d="M525.83 623.951L482.212 651.951C477.171 655.187 479.463 663 485.453 663H761.269C762.579 663 763.852 662.571 764.896 661.78L801.794 633.78C806.374 630.304 803.916 623 798.168 623H529.071C527.922 623 526.797 623.33 525.83 623.951Z" fill="url(#paint17_linear_2280_1010)"/>
<path d="M467.966 664.945L409.722 494.945C408.388 491.051 411.282 487 415.398 487H700.992C703.663 487 706.012 488.765 706.755 491.33L756.027 661.33C757.139 665.168 754.26 669 750.264 669H473.642C471.078 669 468.797 667.37 467.966 664.945Z" fill="#B1B1B1"/>
<path fill-rule="evenodd" clip-rule="evenodd" d="M578.175 609.042C591.045 608.222 600.772 596.473 599.901 582.8C599.3 573.359 593.803 565.469 586.222 561.759C585.029 561.175 583.699 562.055 583.62 563.382L582.788 577.321C582.728 578.328 581.926 579.133 580.918 579.198L571.441 579.801C570.535 579.859 569.703 579.299 569.416 578.437L565.122 565.546C564.708 564.303 563.229 563.788 562.218 564.62C556.329 569.467 552.752 577.243 553.295 585.768C554.166 599.442 565.305 609.862 578.175 609.042Z" fill="#E4E4E4"/>
<path d="M871 539.033L870.45 543.5L871.453 543.623L872.413 543.306L871 539.033ZM987.359 534.958C989.545 536.14 992.275 535.327 993.458 533.141C994.64 530.955 993.827 528.225 991.641 527.042L989.5 531L987.359 534.958ZM806 564.033L810.493 564.292C810.72 560.355 811.783 554.375 814.114 549.389C816.489 544.31 819.59 541.384 823.433 541.012L823 536.533L822.567 532.054C814.01 532.882 808.861 539.374 805.961 545.578C803.017 551.875 801.78 559.045 801.507 563.774L806 564.033ZM823 536.533L823.433 541.012C835.262 539.868 859.542 542.157 870.45 543.5L871 539.033L871.55 534.567C860.791 533.243 835.538 530.799 822.567 532.054L823 536.533ZM871 539.033L872.413 543.306C882.928 539.828 899.685 534.657 915.726 530.462C923.749 528.364 931.541 526.523 938.259 525.259C945.081 523.975 950.444 523.357 953.77 523.527L954 519.033L954.23 514.539C949.756 514.31 943.49 515.117 936.594 516.414C929.594 517.731 921.58 519.628 913.449 521.755C897.182 526.009 880.238 531.238 869.587 534.761L871 539.033ZM954 519.033L953.77 523.527C968.229 524.269 977.136 529.428 987.359 534.958L989.5 531L991.641 527.042C981.531 521.572 970.971 515.398 954.23 514.539L954 519.033Z" fill="#B488D6"/>
<path d="M835.5 392C836.416 400.12 842.88 406.584 851 407.5C842.881 408.416 836.416 414.88 835.5 422.999C834.584 414.879 828.12 408.416 820 407.5C828.12 406.584 834.584 400.12 835.5 392Z" fill="url(#paint18_linear_2280_1010)"/>
<path d="M802 359C803.241 370.001 811.999 378.759 823 380C811.999 381.241 803.241 389.998 802 400.999C800.759 389.999 792.001 381.241 781 380C792.001 378.759 800.759 370.001 802 359Z" fill="url(#paint19_linear_2280_1010)"/>
<path d="M898 329C899.241 340.001 907.999 348.759 919 350C907.999 351.241 899.241 359.998 898 370.999C896.759 359.999 888.001 351.241 877 350C888.001 348.759 896.759 340.001 898 329Z" fill="url(#paint20_linear_2280_1010)"/>
<path d="M761.144 113.877C766.418 121.643 770.858 130.329 774.591 138.571C774.223 137.759 773.849 136.942 773.468 136.123C773.809 141.213 770.612 146.168 765.391 147.985C759.169 150.151 752.432 147.046 750.344 141.048C752.431 147.044 749.08 153.663 742.857 155.829C737.054 157.849 730.805 155.283 728.297 150.063C729.571 155.712 726.266 161.603 720.465 163.623C716.895 164.866 713.157 164.371 710.224 162.593C710.312 162.795 710.401 162.997 710.49 163.199C705.436 151.726 702.005 139.865 699.062 130.89C699.479 130.692 699.912 130.514 700.359 130.36C706.591 128.227 713.313 131.366 715.37 137.374C713.314 131.367 716.699 124.766 722.933 122.632C728.746 120.642 734.981 123.241 737.463 128.473C736.217 122.818 739.554 116.942 745.365 114.952C751.597 112.819 758.319 115.959 760.376 121.967C760.439 122.15 760.495 122.335 760.548 122.52L760.563 122.514C759.559 119.58 759.854 116.505 761.144 113.877Z" fill="#FFFCF6"/>
<path d="M597.85 106C596.797 107.531 595.752 109.117 594.715 110.744C595.218 113.115 594.978 115.638 593.859 117.957C596.618 112.239 603.665 109.921 609.6 112.783C615.134 115.453 617.744 121.683 615.833 127.149C618.921 122.251 625.422 120.416 630.955 123.084C632.783 123.966 634.292 125.238 635.425 126.741C636.057 126.678 636.679 126.611 637.29 126.541C633.367 126.99 629.013 127.296 624.222 127.428C612.892 127.74 609.282 144.403 607.139 162.025C607.24 161.192 607.344 160.361 607.452 159.534C602.481 156.587 600.226 150.523 602.398 145.2C600 151.079 593.11 153.828 587.009 151.339C581.319 149.017 578.328 142.961 579.897 137.387C578.956 139.108 577.6 140.5 576 141.501C583.17 130.894 590.287 116.993 597.85 106Z" fill="#FFFCF6"/>
<path d="M703 492L755.5 664.5" stroke="#D5D5D5" stroke-width="9" stroke-linecap="round"/>
<path d="M415 491.088L702.5 491.088" stroke="#D5D5D5" stroke-width="9" stroke-linecap="round"/>
<path d="M1105.92 781.713C1095.06 800.567 1072.78 847.066 1070.57 882.232" stroke="#ABBDFF" stroke-width="12.9107" stroke-linecap="round"/>
<path d="M1108.69 723C1106.67 733.624 1093.36 737.833 1085.32 730.397C1090.09 740.15 1081.87 751.17 1070.88 749.763C1080.62 754.917 1080.62 768.543 1070.88 773.701C1081.87 772.29 1090.09 783.315 1085.32 793.067C1093.36 785.631 1106.67 789.841 1108.69 800.464C1110.71 789.841 1124.01 785.631 1132.06 793.067C1127.28 783.315 1135.5 772.294 1146.5 773.701C1136.75 768.547 1136.75 754.921 1146.5 749.763C1135.5 751.174 1127.28 740.15 1132.06 730.397C1124.01 737.833 1110.71 733.624 1108.69 723Z" fill="#FF8FEC"/>
<ellipse cx="14.031" cy="58.5087" rx="14.031" ry="58.5087" transform="matrix(-0.6206 -0.784127 -0.784127 0.6206 1160.64 835.379)" fill="url(#paint21_linear_2280_1010)"/>
<ellipse cx="21.7025" cy="81.5228" rx="21.7025" ry="81.5228" transform="matrix(-0.974644 0.223763 0.223763 0.974644 1047.3 736.525)" fill="url(#paint22_linear_2280_1010)"/>
<defs>
<filter id="filter0_d_2280_1010" x="580" y="101" width="223" height="199" filterUnits="userSpaceOnUse" color-interpolation-filters="sRGB">
<feFlood flood-opacity="0" result="BackgroundImageFix"/>
<feColorMatrix in="SourceAlpha" type="matrix" values="0 0 0 0 0 0 0 0 0 0 0 0 0 0 0 0 0 0 127 0" result="hardAlpha"/>
<feOffset dx="1" dy="7"/>
<feGaussianBlur stdDeviation="2"/>
<feComposite in2="hardAlpha" operator="out"/>
<feColorMatrix type="matrix" values="0 0 0 0 0.423558 0 0 0 0 0 0 0 0 0 0 0 0 0 0.25 0"/>
<feBlend mode="normal" in2="BackgroundImageFix" result="effect1_dropShadow_2280_1010"/>
<feBlend mode="normal" in="SourceGraphic" in2="effect1_dropShadow_2280_1010" result="shape"/>
</filter>
<filter id="filter1_d_2280_1010" x="549.255" y="5.07434" width="404.799" height="455.429" filterUnits="userSpaceOnUse" color-interpolation-filters="sRGB">
<feFlood flood-opacity="0" result="BackgroundImageFix"/>
<feColorMatrix in="SourceAlpha" type="matrix" values="0 0 0 0 0 0 0 0 0 0 0 0 0 0 0 0 0 0 127 0" result="hardAlpha"/>
<feOffset dy="4"/>
<feGaussianBlur stdDeviation="2"/>
<feComposite in2="hardAlpha" operator="out"/>
<feColorMatrix type="matrix" values="0 0 0 0 0 0 0 0 0 0 0 0 0 0 0 0 0 0 0.25 0"/>
<feBlend mode="normal" in2="BackgroundImageFix" result="effect1_dropShadow_2280_1010"/>
<feBlend mode="normal" in="SourceGraphic" in2="effect1_dropShadow_2280_1010" result="shape"/>
</filter>
<filter id="filter2_d_2280_1010" x="571.629" y="184.7" width="206.14" height="72.6" filterUnits="userSpaceOnUse" color-interpolation-filters="sRGB">
<feFlood flood-opacity="0" result="BackgroundImageFix"/>
<feColorMatrix in="SourceAlpha" type="matrix" values="0 0 0 0 0 0 0 0 0 0 0 0 0 0 0 0 0 0 127 0" result="hardAlpha"/>
<feOffset dx="3" dy="4"/>
<feGaussianBlur stdDeviation="2.15"/>
<feComposite in2="hardAlpha" operator="out"/>
<feColorMatrix type="matrix" values="0 0 0 0 0.698718 0 0 0 0 0.00705428 0 0 0 0 0.00705428 0 0 0 0.25 0"/>
<feBlend mode="normal" in2="BackgroundImageFix" result="effect1_dropShadow_2280_1010"/>
<feBlend mode="normal" in="SourceGraphic" in2="effect1_dropShadow_2280_1010" result="shape"/>
</filter>
<filter id="filter3_d_2280_1010" x="521" y="87.0004" width="295.941" height="144.861" filterUnits="userSpaceOnUse" color-interpolation-filters="sRGB">
<feFlood flood-opacity="0" result="BackgroundImageFix"/>
<feColorMatrix in="SourceAlpha" type="matrix" values="0 0 0 0 0 0 0 0 0 0 0 0 0 0 0 0 0 0 127 0" result="hardAlpha"/>
<feOffset dx="3" dy="8"/>
<feGaussianBlur stdDeviation="2"/>
<feComposite in2="hardAlpha" operator="out"/>
<feColorMatrix type="matrix" values="0 0 0 0 0.423558 0 0 0 0 0 0 0 0 0 0 0 0 0 0.25 0"/>
<feBlend mode="normal" in2="BackgroundImageFix" result="effect1_dropShadow_2280_1010"/>
<feBlend mode="normal" in="SourceGraphic" in2="effect1_dropShadow_2280_1010" result="shape"/>
</filter>
<linearGradient id="paint0_linear_2280_1010" x1="233.533" y1="730.608" x2="233.533" y2="868.95" gradientUnits="userSpaceOnUse">
<stop stop-color="#ABBDFF"/>
<stop offset="1" stop-color="#91A9FF"/>
</linearGradient>
<linearGradient id="paint1_linear_2280_1010" x1="306.427" y1="656.288" x2="306.427" y2="849.046" gradientUnits="userSpaceOnUse">
<stop stop-color="#ABBDFF"/>
<stop offset="1" stop-color="#91A9FF"/>
</linearGradient>
<linearGradient id="paint2_linear_2280_1010" x1="263.423" y1="783.722" x2="263.423" y2="884.406" gradientUnits="userSpaceOnUse">
<stop stop-color="#ABBDFF"/>
<stop offset="1" stop-color="#91A9FF"/>
</linearGradient>
<linearGradient id="paint3_linear_2280_1010" x1="1067.62" y1="527.124" x2="1067.62" y2="780.124" gradientUnits="userSpaceOnUse">
<stop stop-color="#ABBDFF"/>
<stop offset="1" stop-color="#91A9FF"/>
</linearGradient>
<linearGradient id="paint4_linear_2280_1010" x1="421.536" y1="678.943" x2="321.352" y2="895.932" gradientUnits="userSpaceOnUse">
<stop stop-color="#3C3126"/>
<stop offset="1" stop-color="#A28366"/>
</linearGradient>
<linearGradient id="paint5_linear_2280_1010" x1="675.766" y1="802.076" x2="675.766" y2="919.23" gradientUnits="userSpaceOnUse">
<stop stop-color="white"/>
<stop offset="0.636269" stop-color="#FFF3FD"/>
<stop offset="1" stop-color="#FEA6EF"/>
</linearGradient>
<linearGradient id="paint6_linear_2280_1010" x1="675.766" y1="802.076" x2="675.766" y2="919.23" gradientUnits="userSpaceOnUse">
<stop stop-color="white"/>
<stop offset="0.636269" stop-color="#FFF3FD"/>
<stop offset="1" stop-color="#FEA6EF"/>
</linearGradient>
<linearGradient id="paint7_linear_2280_1010" x1="751.208" y1="157.5" x2="544.903" y2="387.519" gradientUnits="userSpaceOnUse">
<stop stop-color="#A872FF"/>
<stop offset="0.485577" stop-color="#131313"/>
</linearGradient>
<linearGradient id="paint8_linear_2280_1010" x1="754.75" y1="663" x2="754.75" y2="306" gradientUnits="userSpaceOnUse">
<stop stop-color="#AABDFF"/>
<stop offset="1" stop-color="#FFB4F2"/>
</linearGradient>
<linearGradient id="paint9_linear_2280_1010" x1="423" y1="565" x2="423" y2="619.703" gradientUnits="userSpaceOnUse">
<stop stop-color="#FFEFDC"/>
<stop offset="0.865385" stop-color="#FFD5C2"/>
</linearGradient>
<linearGradient id="paint10_linear_2280_1010" x1="705" y1="277" x2="705" y2="323" gradientUnits="userSpaceOnUse">
<stop offset="0.134615" stop-color="#FFD5C2"/>
<stop offset="1" stop-color="#FFEFDC"/>
</linearGradient>
<linearGradient id="paint11_linear_2280_1010" x1="690.5" y1="101" x2="690.5" y2="289" gradientUnits="userSpaceOnUse">
<stop stop-color="#FFD1BE"/>
<stop offset="1" stop-color="#FFEFDC"/>
</linearGradient>
<radialGradient id="paint12_radial_2280_1010" cx="0" cy="0" r="1" gradientUnits="userSpaceOnUse" gradientTransform="translate(668.5 239) scale(49.5 23)">
<stop stop-color="#FF8DB1" stop-opacity="0.7"/>
<stop offset="1" stop-color="#FF8DB1" stop-opacity="0"/>
</radialGradient>
<linearGradient id="paint13_linear_2280_1010" x1="618.5" y1="185" x2="618.5" y2="249.5" gradientUnits="userSpaceOnUse">
<stop stop-color="white"/>
<stop offset="1" stop-color="white" stop-opacity="0"/>
</linearGradient>
<linearGradient id="paint14_linear_2280_1010" x1="723.5" y1="185" x2="723.5" y2="249" gradientUnits="userSpaceOnUse">
<stop stop-color="white"/>
<stop offset="1" stop-color="white" stop-opacity="0"/>
</linearGradient>
<linearGradient id="paint15_linear_2280_1010" x1="710.494" y1="65.4548" x2="710.494" y2="248" gradientUnits="userSpaceOnUse">
<stop stop-color="#AABDFF"/>
<stop offset="1" stop-color="#FFB4F2"/>
</linearGradient>
<linearGradient id="paint16_linear_2280_1010" x1="797.5" y1="564" x2="797.5" y2="618.288" gradientUnits="userSpaceOnUse">
<stop stop-color="#FFEFDC"/>
<stop offset="0.865385" stop-color="#FFD5C2"/>
</linearGradient>
<linearGradient id="paint17_linear_2280_1010" x1="816" y1="643" x2="465" y2="643" gradientUnits="userSpaceOnUse">
<stop stop-color="#B1B1B1"/>
<stop offset="1" stop-color="#4B4B4B"/>
</linearGradient>
<linearGradient id="paint18_linear_2280_1010" x1="824.579" y1="329" x2="875.421" y2="422.999" gradientUnits="userSpaceOnUse">
<stop stop-color="#714FA7"/>
<stop offset="1" stop-color="#2C1F41"/>
</linearGradient>
<linearGradient id="paint19_linear_2280_1010" x1="824.579" y1="329" x2="875.421" y2="422.999" gradientUnits="userSpaceOnUse">
<stop stop-color="#714FA7"/>
<stop offset="1" stop-color="#2C1F41"/>
</linearGradient>
<linearGradient id="paint20_linear_2280_1010" x1="824.579" y1="329" x2="875.421" y2="422.999" gradientUnits="userSpaceOnUse">
<stop stop-color="#714FA7"/>
<stop offset="1" stop-color="#2C1F41"/>
</linearGradient>
<linearGradient id="paint21_linear_2280_1010" x1="14.031" y1="0" x2="14.031" y2="117.017" gradientUnits="userSpaceOnUse">
<stop stop-color="#ABBDFF"/>
<stop offset="1" stop-color="#91A9FF"/>
</linearGradient>
<linearGradient id="paint22_linear_2280_1010" x1="21.7025" y1="0" x2="21.7025" y2="163.046" gradientUnits="userSpaceOnUse">
<stop stop-color="#ABBDFF"/>
<stop offset="1" stop-color="#91A9FF"/>
</linearGradient>
</defs>
</svg>
