<svg width="364" height="83" viewBox="0 0 364 83" fill="none" xmlns="http://www.w3.org/2000/svg">
<path d="M0.725081 80.3068C-0.233338 78.0606 -0.233677 78.0218 0.676536 74.8062C3.13779 66.111 3.91625 62.2239 4.49911 55.7189C4.99676 50.1648 8.56183 36.9536 10.1396 34.8168C11.9072 32.4228 14.4703 32.8031 16.6354 35.7804C17.3471 36.7592 17.9384 38.0321 17.9578 38.627C18.0154 40.3994 18.6037 45.7382 19.1023 49.013C19.6197 52.4111 20.4017 54.3767 21.3035 54.5457C21.9082 54.6589 22.6469 53.8829 22.6688 53.1113C22.6755 52.876 23.3411 51.3487 24.1479 49.7172C24.9547 48.0856 25.7026 46.3128 25.8098 45.7776C25.917 45.2423 26.2899 44.4596 26.6384 44.0382C27.0836 43.4997 27.2228 42.9994 27.1067 42.3546C26.8152 40.7359 28.6019 32.7248 29.372 32.1977C29.6299 32.0211 29.9472 31.3214 30.077 30.6427C30.4558 28.6635 30.9402 27.9611 32.2853 27.4418C33.7751 26.8667 35.3643 27.0844 36.174 27.9744C36.4928 28.3249 37.0019 28.6633 37.3055 28.7265C37.8852 28.8466 38.2747 29.9592 38.9294 33.3628C39.1468 34.4927 39.4885 35.6099 39.6888 35.8454C40.177 36.4196 40.4726 38.5523 40.2377 39.8063C40.1332 40.3643 40.1548 41.1594 40.2857 41.5734C40.4165 41.9873 40.5093 43.6091 40.4919 45.1774C40.4745 46.7457 40.5673 48.3674 40.6982 48.7813C40.8291 49.1953 40.8764 49.8526 40.8035 50.2421C40.7305 50.6316 40.9673 51.9624 41.3297 53.1993C41.6922 54.4363 41.959 55.6068 41.9228 55.8003C41.8083 56.4114 42.2562 60.0511 42.5717 61.0734C42.7659 61.7026 42.6699 62.9636 42.304 64.5914C41.8072 66.8014 41.6338 67.1457 40.9594 67.2609C40.5335 67.3338 40.0502 67.5413 39.8854 67.7223C39.4325 68.2196 38.2661 67.8819 37.3617 66.992C36.9179 66.5551 36.1923 65.9227 35.7493 65.5866C34.573 64.6939 33.1016 62.5772 32.8678 61.4412C32.756 60.8984 32.6047 59.2278 32.5314 57.7288C32.4581 56.2298 32.2698 54.2503 32.1128 53.3298C31.9559 52.4092 31.9316 50.8091 32.0588 49.7739C32.1867 48.733 32.1017 47.5845 31.8685 47.2046C31.6366 46.8266 31.3056 45.8567 31.133 45.0492C30.9033 43.9752 30.7215 43.7029 30.4561 44.0354C30.0727 44.5155 28.4739 50.3874 28.082 52.7547C27.9546 53.523 27.226 55.2386 26.4624 56.567C25.6988 57.8954 25.0962 59.2961 25.1234 59.6799C25.1583 60.173 24.6141 60.7315 23.2665 61.5853C21.5239 62.6893 21.2109 62.7625 19.6213 62.4377C18.6647 62.2431 17.5095 61.7987 17.0537 61.4522C15.5388 60.3003 13.0263 56.6063 12.8462 55.2663C12.7092 54.2475 12.5061 53.9608 11.9025 53.9345C10.8865 53.8903 10.3084 55.7605 10.8996 57.1791C11.2184 57.9441 11.1876 58.6578 10.7723 60.1264C10.4709 61.1923 10.3057 62.3108 10.4053 62.6121C10.5971 63.193 8.3347 72.4429 7.80091 73.2601C7.62805 73.5246 7.4691 74.0251 7.44775 74.3718C7.38864 75.3321 5.909 78.781 5.3572 79.2449C5.08891 79.4703 4.42434 80.237 3.88044 80.9485C2.49562 82.7601 1.70313 82.5989 0.725081 80.3068ZM31.8784 40.7236C32.1735 40.0983 31.9473 38.9464 31.5789 39.1986C31.4714 39.2723 31.195 39.7423 30.9646 40.2433C30.6479 40.932 30.6722 41.1779 31.0646 41.2514C31.35 41.3049 31.7162 41.0674 31.8784 40.7236ZM57.2383 73.0321C56.3652 72.4069 55.4847 71.5955 55.2816 71.2288C55.0784 70.8624 54.5803 70.4944 54.1745 70.4113C53.4703 70.2679 52.4796 68.6094 49.7793 63.0578C48.8755 61.1997 48.2795 58.3867 48.5188 57.1089C48.5894 56.7322 48.4434 55.7813 48.1945 54.9957C47.7095 53.465 47.8497 51.7794 48.4823 51.5352C48.6955 51.4528 49.0425 50.3336 49.2534 49.048C49.4642 47.7623 49.7806 46.4943 49.9565 46.2302C50.1323 45.9663 50.7655 44.8345 51.3635 43.7155C52.4626 41.6592 54.9351 38.7555 56.1646 38.0773C56.5324 37.8744 56.8728 37.4977 56.9211 37.2402C56.9723 36.9668 57.2104 36.8959 57.4931 37.0697C57.7907 37.2527 58.015 37.1669 58.0749 36.8468C58.1509 36.4414 58.7769 36.4055 60.8958 36.6847C64.0245 37.097 64.8163 37.3794 64.6929 38.0385C64.6445 38.2967 65.0419 39.1465 65.576 39.9268C66.1101 40.7071 66.5982 42.0008 66.6607 42.8019C66.7809 44.3427 65.782 49.3475 65.2865 49.6867C65.1256 49.7969 64.9009 50.384 64.7871 50.9916C64.6136 51.9182 64.1738 52.3282 62.0607 53.5334C60.6749 54.3238 58.9732 55.0936 58.279 55.244C57.1281 55.4935 57.0179 55.6189 57.0273 56.6679C57.0391 57.9769 58.248 64.3121 58.6192 65.0103C59.068 65.8543 60.4846 66.2277 62.4915 66.0309C64.5575 65.8283 65.8108 64.8827 66.7659 62.806C67.2284 61.8004 68.6983 60.5423 69.2829 60.6518C69.694 60.7288 70.3941 59.9588 71.2764 58.4594C71.6341 57.8514 72.0916 57.6202 72.8755 57.6511L73.9734 57.6945L73.6596 59.6436C73.4868 60.7157 73.2875 62.149 73.2163 62.8288C73.1222 63.7277 72.4394 64.9396 70.7124 67.2727C69.4065 69.0371 68.3202 70.5754 68.2985 70.6912C68.2355 71.0274 66.9175 71.8317 65.2359 72.5604C63.8059 73.1801 59.549 74.3159 59.0427 74.2129C58.9233 74.1886 58.1113 73.6574 57.2383 73.0321ZM78.9683 68.5121C78.3125 67.9531 78.0923 67.5868 77.0439 65.3108C75.9204 62.8715 75.1781 57.3538 74.9369 49.6489C74.8883 48.093 75.0529 41.9241 75.2381 38.3634C75.3453 36.3041 75.3757 33.6364 75.3058 32.4351C75.1363 29.5238 75.5706 27.2659 76.4695 26.3863C77.1354 25.7345 77.3607 25.7255 79.21 26.2759C81.4506 26.9429 83.1966 28.5058 83.2393 29.8829C83.3878 34.6805 83.399 36.6946 83.2837 37.89C83.078 40.0228 83.0524 41.0868 83.197 41.4926C83.2688 41.694 83.2156 43.0531 83.0789 44.5127C82.9422 45.9724 82.8655 47.7403 82.9084 48.4415C82.9514 49.1426 83.0228 50.5333 83.0671 51.5318C83.1114 52.5302 83.254 54.0151 83.3838 54.8316C83.5137 55.6481 83.5544 57.4379 83.4742 58.8092C83.312 61.5843 83.7364 65.419 84.5219 68.2769C84.5649 68.4334 84.3125 68.5115 83.9609 68.4499C83.6095 68.3879 82.8731 68.5711 82.3247 68.8555C81.2049 69.4366 79.8958 69.3025 78.9683 68.5121ZM92.5911 57.789C92.2796 56.8861 92.0111 56.6312 91.445 56.7007C90.8684 56.7715 90.6642 56.5621 90.5181 55.7419C90.4148 55.1647 90.0831 54.3046 89.781 53.8307C89.4789 53.3568 89.2354 52.5011 89.2399 51.9291C89.2443 51.3571 89.1185 50.8138 88.9602 50.7218C88.8019 50.6298 88.9093 49.7967 89.1989 48.8706C89.5895 47.6211 89.617 47.0055 89.3052 46.4835C88.7973 45.6335 88.8779 42.3418 89.4498 40.5752C89.5254 40.3417 89.5296 39.8818 89.4592 39.553C89.377 39.1685 89.7655 38.6358 90.5473 38.0606C91.5998 37.2863 91.9658 37.2171 93.271 37.5461C94.1004 37.7549 95.0859 38.1763 95.4611 38.4823C95.8364 38.7883 96.4642 39.0985 96.8562 39.1719C98.2769 39.438 99.099 44.8749 98.5479 50.3604C98.4172 51.6616 98.3931 53.1858 98.4942 53.7475C98.6414 54.5646 98.5594 54.8088 98.0841 54.969C97.7575 55.0789 97.433 55.4744 97.3631 55.8475C97.2284 56.5669 97.7017 56.8561 98.1708 56.3411C98.3249 56.1719 98.6373 56.0693 98.865 56.1127C99.4628 56.2273 97.0495 57.5331 95.8278 57.7561C95.2597 57.8597 94.5804 58.2116 94.3185 58.5378C93.6339 59.3905 93.0575 59.1406 92.5911 57.789ZM111.581 58.2455C111.198 57.9276 110.629 57.614 110.316 57.5484C110.003 57.4821 109.722 57.0203 109.692 56.5208C109.656 55.9363 109.237 55.3501 108.515 54.8765C107.185 54.0031 106.985 53.3081 107.777 52.3174C108.588 51.3041 109.465 50.92 110.539 51.1078C112.074 51.3761 113.878 50.7968 116.165 49.3008C118.043 48.0726 118.359 47.7153 118.448 46.7252C118.536 45.736 118.427 45.5651 117.664 45.4993C117.177 45.4573 115.396 45.2674 113.706 45.077L110.633 44.7311L108.77 42.0824C106.664 39.0908 106.436 38.0058 107.124 34.2691C107.523 32.0992 107.771 31.6052 109.736 29.068C111.759 26.4544 112.044 26.2265 113.933 25.7033C115.047 25.3947 116.206 24.9373 116.507 24.687C117.772 23.637 122.199 25.5209 122.326 27.1628C122.457 28.8571 122.12 29.4755 120.867 29.8432C119.333 30.2931 116.172 32.3574 116.05 32.9883C116 33.2447 115.572 33.7941 115.098 34.2089C114.152 35.0375 113.817 36.0514 114.334 36.5224C114.517 36.6889 114.503 37.1819 114.302 37.6178C113.983 38.311 114.058 38.4328 114.901 38.5887C115.431 38.6868 116.382 38.6018 117.014 38.3996C118.573 37.901 121.853 38.3537 122.962 39.2206C123.442 39.5967 124.031 39.9406 124.269 39.9853C124.507 40.0299 125.161 40.6961 125.721 41.4657C129.088 46.088 125.098 54.3147 117.932 57.5276C117.175 57.8668 116.22 58.3536 115.809 58.6093C114.857 59.2013 112.488 58.9976 111.581 58.2455ZM130.427 59.2341C130.311 59.0652 129.418 58.2806 128.443 57.4908C127.377 56.627 126.677 55.7777 126.686 55.3592C126.694 54.9766 126.561 54.0989 126.391 53.4087C126.026 51.9334 126.748 49.9299 127.793 49.5154C128.304 49.3124 128.597 49.4534 129.109 50.1493C130.188 51.614 131.402 51.9717 132.988 51.2914C134.487 50.6479 137.332 48.1487 137.483 47.3419C137.534 47.0667 137.751 46.774 137.964 46.6916C138.669 46.4198 138.49 45.8898 137.64 45.7307C136.504 45.5179 134 42.4003 133.044 40.0091C132.445 38.5077 132.318 37.505 132.492 35.6197C132.796 32.3122 133.844 29.1497 135.336 27.0356C136.017 26.0704 136.624 25.0108 136.686 24.6809C136.928 23.3899 138.362 22.9989 140.909 23.5295C143.562 24.0822 144.073 24.4945 144.482 26.4084C144.773 27.7694 144.58 28.1943 143.421 28.7399C142.593 29.1294 140.55 31.9022 139.971 33.4226C139.752 33.9964 139.711 34.6664 139.878 34.9116C140.046 35.1568 140.148 35.6496 140.104 36.007C140.007 36.7997 142.031 39.513 143.159 40.1025C144.857 40.9895 147.589 43.2974 147.825 44.0442C148.19 45.1974 146.973 48.8246 145.669 50.4722C145.056 51.2469 144.506 52.1348 144.448 52.4454C144.39 52.7559 143.955 53.3493 143.481 53.7641C143.007 54.1789 142.592 54.665 142.558 54.8443C142.525 55.0237 142.134 55.3936 141.689 55.6664C141.244 55.9392 140.598 56.642 140.253 57.228C139.908 57.8141 139.363 58.3338 139.042 58.3828C138.721 58.4319 137.417 58.8395 136.145 59.2889C133.889 60.0855 130.99 60.0578 130.427 59.2341ZM155.339 50.0459C154.701 49.7522 153.989 49.1815 153.756 48.7775C153.524 48.3737 153.015 47.8717 152.624 47.6623C151.47 47.0428 150.886 45.2451 150.667 41.6311C150.5 38.8917 150.62 37.4549 151.285 34.2442C152.046 30.572 152.486 29.4492 153.652 28.2063C153.889 27.9539 154.531 27.0655 155.078 26.2327C155.721 25.255 156.529 24.5457 157.359 24.2309C158.716 23.7168 160.077 23.7861 160.307 24.3807C160.382 24.5755 161.079 24.9686 161.855 25.254C163.008 25.6786 163.386 25.6731 163.929 25.2238C164.555 24.7052 165.82 24.6683 166.121 25.1598C166.197 25.2832 166.825 25.7889 167.516 26.2834C169.006 27.3497 169.772 28.5867 169.592 29.6373C169.513 30.0948 169.732 30.544 170.139 30.7626C170.552 30.9841 170.706 31.3068 170.533 31.5882C170.195 32.1369 171.327 35.8477 172.305 37.3973C172.684 37.9985 173.03 38.7805 173.074 39.1352C173.117 39.4899 173.306 39.8089 173.492 39.8438C173.679 39.8787 174.094 40.2633 174.415 40.699C174.926 41.3912 174.923 41.6479 174.389 42.7404C173.951 43.6361 173.863 44.1428 174.077 44.5289C174.428 45.1598 174.559 45.0685 172.204 45.8376C170.509 46.3909 170.286 46.3866 169.702 45.7899C169.349 45.4297 168.795 45.0849 168.469 45.024C168.144 44.963 167.486 44.4347 167.007 43.85C165.794 42.3685 165.41 42.4121 165.1 44.0673C164.944 44.9005 164.491 45.8247 164.008 46.2931C163.554 46.7338 162.984 47.5673 162.74 48.1455C162.376 49.0114 162.081 49.1966 161.068 49.1969C160.392 49.1972 159.677 49.3862 159.48 49.617C158.815 50.3954 156.598 50.6251 155.339 50.0459ZM159.483 39.0435C159.701 38.2105 160.045 37.3287 160.249 37.084C160.454 36.8392 160.623 35.9787 160.627 35.1715C160.63 34.3643 160.751 33.5123 160.895 33.2782C161.345 32.5465 160.502 32.6865 159.751 33.4682C158.208 35.0757 157.225 40.5677 158.482 40.5613C158.919 40.5589 159.199 40.1352 159.483 39.0435ZM172.085 41.3807C172.121 41.1894 171.993 41.0037 171.802 40.9678C171.611 40.932 171.425 41.0591 171.389 41.2504C171.353 41.4417 171.48 41.6274 171.672 41.6632C171.863 41.6991 172.049 41.572 172.085 41.3807ZM92.7854 31.981C91.526 30.5409 91.4462 30.3135 91.8179 29.227C92.0408 28.5756 92.3701 27.9312 92.5497 27.7948C92.9557 27.4867 98.196 28.3328 98.128 28.6954C98.1008 28.8407 98.3507 29.0205 98.6832 29.0955C99.1462 29.2014 99.0911 29.2707 98.4462 29.3995C97.8274 29.5231 97.5512 29.8527 97.4028 30.6451C97.1364 32.0674 96.4636 32.8581 95.1961 33.2388C94.2162 33.5331 94.0814 33.4628 92.7854 31.981ZM197.948 49.8748C197.426 49.226 197.029 48.5352 197.066 48.3396C197.102 48.1442 196.88 47.6518 196.571 47.2457C195.877 46.3331 195.775 44.452 196.397 44.0265C196.647 43.8553 196.905 43.4286 196.971 43.0782C197.037 42.7278 197.383 42.3896 197.742 42.3267C198.524 42.1893 199.408 41.4556 199.54 40.8347C199.593 40.5872 200.467 39.5359 201.482 38.498C202.497 37.4601 203.433 36.3065 203.562 35.9345C204.085 34.4192 206.349 31.4169 206.859 31.5613C207.622 31.7773 207.571 31.4108 206.624 29.8841C205.769 28.5048 205.8 28.0843 206.927 25.8176C207.18 25.3087 207.09 25.2258 206.379 25.3132C205.91 25.3708 205.147 25.7503 204.683 26.1566C203.677 27.0375 201.047 27.7383 200.317 27.3199C200.032 27.1565 199.45 26.5547 199.024 25.9828C198.518 25.3038 197.988 24.9613 197.498 24.996C196.846 25.0423 196.777 24.888 196.975 23.8323C197.241 22.4149 198.17 21.4633 201.653 19.0442C204.268 17.2277 206.716 16.5368 209.007 16.9693C210.708 17.2906 213.798 18.9205 214.516 19.8753C215.73 21.4909 216.557 25.0156 216.279 27.3945C216.135 28.6219 216.006 29.867 215.992 30.1614C215.923 31.5899 215.47 32.584 214.934 32.4836C214.523 32.4066 214.445 32.5139 214.648 32.8801C215.119 33.7309 214.298 35.2278 213.328 35.2868C212.655 35.3276 212.434 35.5528 212.354 36.2812C212.298 36.799 212.076 37.4152 211.861 37.6506C211.567 37.9741 211.631 38.0493 212.127 37.9583C212.487 37.8924 213.215 37.826 213.744 37.8107C214.273 37.7955 215.132 37.7083 215.652 37.6168C216.322 37.4992 216.924 37.6592 217.71 38.1648C218.321 38.5577 219.005 38.8481 219.23 38.8102C219.455 38.7723 219.793 39.0187 219.982 39.3578C220.17 39.6969 220.677 40.0402 221.108 40.1209C222.768 40.4319 221.523 44.1444 219.679 44.3798C219.323 44.4254 218.486 44.7709 217.819 45.1478C217.152 45.5246 215.814 45.9709 214.845 46.1395C213.854 46.3119 212.873 46.741 212.603 47.1201C212.289 47.5597 211.926 47.6892 211.559 47.4923C211.249 47.3263 210.595 47.3463 210.105 47.536C209.615 47.7261 207.837 48.3102 206.155 48.8338C204.472 49.3574 202.729 50.0132 202.281 50.2911C201.521 50.7623 199.668 51.2462 199.133 51.1129C199.004 51.0809 198.47 50.5235 197.948 49.8748ZM197.043 44.6152C197.079 44.4239 196.942 44.2364 196.74 44.1985C196.537 44.1605 196.439 44.3041 196.521 44.5175C196.604 44.731 196.74 44.9184 196.825 44.9342C196.909 44.95 197.007 44.8066 197.043 44.6152ZM228.453 41.4451C228.553 41.3361 228.504 40.6385 228.345 39.8946C228.109 38.7927 227.873 38.5078 227.071 38.3575C225.948 38.1472 225.434 37.4061 224.917 35.2537C224.719 34.4244 224.235 33.24 223.842 32.622C223.45 32.0039 223.286 31.5275 223.477 31.5634C223.688 31.6028 223.921 30.7881 224.067 29.5006C224.259 27.8014 224.46 27.2575 225.061 26.8006C225.785 26.2501 225.792 26.2059 225.253 25.6314C224.449 24.7764 224.897 22.9072 226.212 21.6267C226.805 21.0487 227.418 20.5456 227.573 20.5086C227.729 20.4716 227.896 20.2598 227.945 20.0381C228.049 19.5603 233.311 16.7146 234.121 16.6978C234.429 16.6912 234.704 16.5591 234.734 16.4039C234.797 16.0666 238.138 15.5862 239.129 15.7719C239.512 15.8436 239.97 15.7444 240.145 15.5513C240.369 15.3067 241.433 15.4484 243.666 16.0204C248.099 17.1561 249.905 18.5614 250.621 21.4327C250.9 22.5527 251.094 24.1214 251.053 24.9187C251.001 25.9269 251.164 26.4563 251.59 26.6572C252.388 27.0339 252.347 27.1294 251.078 27.8649C250.422 28.245 249.877 28.9224 249.666 29.6205C249.476 30.2457 249.152 30.9024 248.945 31.0798C248.738 31.2571 248.335 32.0451 248.049 32.8306C247.764 33.6161 247.094 34.7134 246.562 35.2689C246.029 35.8245 245.187 36.7625 244.69 37.3535C243.729 38.4955 241.345 40.3111 240.912 40.2299C240.769 40.2033 240.094 40.4413 239.411 40.759C236.287 42.2121 234.799 42.4534 231.495 42.0432C229.723 41.8231 228.354 41.5526 228.453 41.4451ZM232.6 36.8727C232.686 36.096 232.183 35.7848 232.043 36.5285C231.966 36.9435 232.178 37.5138 232.428 37.5606C232.48 37.5704 232.557 37.2606 232.6 36.8727ZM233.063 34.8327C233.2 34.6849 234.348 34.3071 235.615 33.9935L237.918 33.4233L238.216 31.6511C238.475 30.1003 238.599 29.8947 239.207 30.0073C239.802 30.1172 239.947 29.9036 240.202 28.5402C240.367 27.6625 240.758 26.7309 241.071 26.47C241.385 26.2091 241.561 25.7881 241.463 25.5346C241.365 25.2809 241.382 24.6288 241.5 24.0854C241.696 23.1831 241.609 23.0776 240.508 22.8713C239.844 22.747 238.827 22.8283 238.247 23.0522C236.929 23.5613 234.143 25.3287 234.074 25.6999C234.045 25.8525 234.579 26.0813 235.26 26.2089C236.042 26.3554 236.389 26.5606 236.201 26.7663C236.03 26.9538 235.491 26.9162 234.929 26.678C234.064 26.3105 233.719 26.436 231.88 27.796C229.625 29.462 229.435 29.82 229.936 31.4639C230.119 32.0654 230.226 32.7848 230.174 33.0625C230.122 33.34 230.191 33.9189 230.326 34.3485C230.524 34.9732 230.798 35.1268 231.695 35.1158C232.312 35.1083 232.927 34.9809 233.063 34.8327ZM239.196 34.8676C239.231 34.6762 239.192 34.5068 239.107 34.491C239.023 34.4753 238.828 34.6007 238.674 34.7698C238.52 34.939 238.559 35.1083 238.762 35.1462C238.964 35.1841 239.16 35.0589 239.196 34.8676ZM244.131 35.4319C244.167 35.2406 244.039 35.0549 243.848 35.0191C243.657 34.9833 243.471 35.1104 243.435 35.3017C243.399 35.493 243.527 35.6788 243.718 35.7146C243.909 35.7504 244.095 35.6233 244.131 35.4319ZM241.625 32.2435C241.802 31.9563 241.769 31.8056 241.549 31.8906C241.338 31.9722 241.138 32.1861 241.104 32.366C241.011 32.8663 241.281 32.8027 241.625 32.2435ZM242.286 29.904C242.3 29.829 242.086 29.6286 241.81 29.4589C241.523 29.2821 241.372 29.3142 241.457 29.5343C241.6 29.9032 242.233 30.1857 242.286 29.904ZM247.604 25.7383C247.317 25.3184 246.925 25.7962 247.128 26.32C247.28 26.7155 247.362 26.7312 247.546 26.3998C247.672 26.1731 247.698 25.8756 247.604 25.7383ZM242.563 23.6164C242.717 23.4472 242.677 23.2779 242.475 23.24C242.272 23.202 242.077 23.3273 242.041 23.5186C242.005 23.71 242.045 23.8794 242.129 23.8952C242.214 23.911 242.409 23.7855 242.563 23.6164ZM249.491 21.4061C249.295 21.1199 248.543 21.4862 248.464 21.9067C248.421 22.1374 248.626 22.1483 249.008 21.9357C249.345 21.7481 249.562 21.5101 249.491 21.4061ZM297.618 52.6583C297.522 52.4116 297.185 52.2576 296.867 52.3157C296.274 52.4243 295.823 51.8495 294.881 49.7848C294.338 48.596 294.2 45.8901 294.686 45.9813C295.376 46.1104 301.53 41.8012 302.518 40.498C303.121 39.7012 304.196 38.7215 304.906 38.3206C305.616 37.9199 306.26 37.3435 306.337 37.0399C306.413 36.7361 306.655 36.1566 306.872 35.7517C307.601 34.394 306.319 34.7501 303.529 36.68C301.682 37.9576 300.873 38.7285 300.949 39.1397C301.03 39.5859 300.921 39.654 300.519 39.4068C300.219 39.2222 299.404 39.2834 298.684 39.5447C297.489 39.978 297.304 39.9569 296.303 39.2734C294.746 38.2096 294.228 37.5201 294.161 36.4243C294.129 35.8941 293.919 35.2388 293.694 34.9681C293.47 34.6976 293.389 34.3627 293.515 34.2244C293.641 34.0861 293.601 33.8445 293.431 33.6883C293.259 33.5319 293.203 32.9524 293.306 32.401C293.41 31.8496 293.377 31.2918 293.234 31.1613C292.962 30.9135 293.398 25.7673 294.047 21.5579C294.255 20.2106 294.691 17.1328 295.017 14.7185C295.467 11.3784 295.742 10.2135 296.165 9.84717C297.625 8.58298 304.324 9.01468 306.053 10.4845C306.48 10.8475 307.224 11.2241 307.706 11.3215C308.188 11.4195 308.795 11.8661 309.054 12.3157C309.676 13.3932 310.448 15.8561 310.342 16.4222C310.205 17.1508 308.475 17.2561 306.542 16.6534C305.397 16.2968 304.629 16.2129 304.437 16.4231C304.271 16.6054 303.937 16.6327 303.694 16.4834C303.451 16.3341 303.129 16.3468 302.977 16.5148C302.607 16.921 300.708 26.5272 300.933 26.8555C301.03 26.9976 301.881 26.9135 302.824 26.6687C303.766 26.4237 304.862 26.2842 305.259 26.3586C305.657 26.4331 306.322 26.3866 306.737 26.2552C307.696 25.952 314.258 26.7751 315.032 27.2956C315.351 27.5108 315.761 27.7627 315.941 27.8557C317.185 28.4963 318.765 29.5439 318.996 29.8817C319.148 30.1031 319.33 31.1397 319.402 32.1855C319.526 33.9867 319.451 34.2376 317.973 36.9384C316.059 40.4373 315.099 41.7277 313.529 42.9157C312.193 43.9259 309.365 46.5363 308.132 47.8974C306.576 49.6143 301.556 52.9007 300.443 52.931C299.846 52.9472 299.005 52.9935 298.574 53.0339C298.14 53.0745 297.714 52.9066 297.618 52.6583ZM310.772 39.1138C310.788 39.0295 310.663 38.8345 310.494 38.6802C310.324 38.5262 310.155 38.5661 310.117 38.7685C310.079 38.971 310.204 39.1663 310.396 39.2021C310.587 39.238 310.756 39.1982 310.772 39.1138ZM304.977 28.8017C305.471 28.2596 305.086 28.0985 304.271 28.5057C303.6 28.8407 303.578 28.9021 304.092 29.0086C304.415 29.0766 304.813 28.982 304.977 28.8017ZM297.392 25.9648C297.428 25.7735 297.301 25.5878 297.11 25.552C296.919 25.5161 296.733 25.6432 296.697 25.8345C296.661 26.0259 296.788 26.2115 296.98 26.2474C297.171 26.2832 297.357 26.1561 297.392 25.9648ZM295.244 23.9806C295.258 23.9055 295.044 23.7051 294.768 23.5354C294.481 23.3586 294.33 23.3908 294.415 23.6109C294.558 23.9798 295.191 24.2622 295.244 23.9806ZM261.24 40.4519C259.904 39.9706 258.693 38.6057 258.83 37.7351C258.853 37.591 258.642 37.4299 258.361 37.3774C257.792 37.2708 257.186 35.7828 257.449 35.1361C257.542 34.906 257.377 34.6725 257.081 34.6172C256.26 34.4634 256.684 33.1878 257.663 32.8654C258.157 32.7029 259.413 32.7902 260.596 33.0693C262.423 33.5003 262.85 33.4684 264.247 32.7966C269.443 30.2992 273.724 25.199 273.296 22.0167C273.203 21.3242 272.937 20.5285 272.704 20.2487C272.472 19.9687 272.394 19.6172 272.53 19.4672C272.792 19.1804 272.741 19.1486 271.381 18.7516C270.12 18.3835 269.885 18.4907 267.576 20.4901C265.292 22.4668 263.66 24.4925 263.883 25.0713C263.959 25.2694 263.773 25.5162 263.464 25.6193C263.14 25.7282 262.737 26.4553 262.502 27.3515C262.118 28.8179 262.036 28.8934 260.881 28.848C260.103 28.8172 259.52 29.0327 259.264 29.4452C258.931 29.9829 258.893 29.9151 259.036 29.0379C259.149 28.3535 258.956 27.7108 258.488 27.1998C258.092 26.7677 257.439 25.3051 257.036 23.9494C256.428 21.9004 256.395 21.3972 256.844 20.9679C257.14 20.6839 257.518 20.2338 257.684 19.9678C258.728 18.2889 261.069 15.6613 262.993 14.0075C264.241 12.9353 267.477 11.3603 268.167 11.4895C268.46 11.5444 268.788 11.4312 268.895 11.2383C269.282 10.5404 276.545 12.3152 276.403 13.0731C276.371 13.2428 276.569 13.4234 276.843 13.4747C277.577 13.6122 279.383 15.4606 279.642 16.3393C279.765 16.7585 280.139 17.8817 280.473 18.8353C281.46 21.6531 280.766 27.2679 278.889 31.6561C278.346 32.9268 277.933 34.0138 277.973 34.0716C278.012 34.1294 279.246 34.2366 280.714 34.3092C283.97 34.4713 289.17 35.4841 289.543 36.0291C289.693 36.2483 290.135 36.499 290.524 36.5866C292.676 37.0696 293.969 39.8279 292.097 39.9418C291.584 39.9732 291.122 40.2164 291.073 40.4827C291.023 40.7491 290.661 40.9067 290.269 40.8333C289.878 40.7599 288.839 40.9002 287.961 41.1455C287.083 41.3906 285.553 41.5985 284.561 41.6075C283.569 41.6163 282.027 41.6322 281.134 41.6426C280.241 41.653 278.663 41.6628 277.628 41.6645C276.593 41.6659 274.801 41.7179 273.646 41.7795C272.491 41.8412 270.992 41.8168 270.316 41.7254C269.641 41.6334 267.81 41.4795 266.25 41.3815C264.689 41.2838 263.255 41.154 263.063 41.0934C262.871 41.0343 262.051 40.7437 261.24 40.4519ZM289.052 39.2777C288.736 39.1285 288.11 39.0079 287.662 39.0097C287.214 39.0119 287.473 39.1342 288.237 39.2812C289.002 39.4283 289.368 39.427 289.052 39.2777ZM275.239 25.056C275.275 24.8646 275.138 24.6772 274.936 24.6392C274.733 24.6013 274.635 24.7447 274.717 24.9582C274.799 25.1716 274.936 25.3591 275.02 25.3749C275.105 25.3907 275.203 25.2473 275.239 25.056ZM263.65 19.6448C263.686 19.4535 263.646 19.2842 263.562 19.2684C263.478 19.2526 263.283 19.378 263.128 19.5471C262.974 19.7163 263.014 19.8856 263.217 19.9235C263.419 19.9614 263.615 19.8362 263.65 19.6448ZM277.978 21.9685C278.059 21.5326 277.69 21.4635 276.934 21.773C276.461 21.9666 276.499 22.0413 277.131 22.1643C277.561 22.2479 277.942 22.1598 277.978 21.9685ZM338.885 46.6528C337.783 45.6624 336.557 44.6403 336.16 44.3814C335.474 43.9341 335.473 43.7219 336.143 40.1486C336.552 37.9643 336.787 35.5249 336.704 34.3317C336.539 31.9636 335.315 27.6817 334.76 27.5319C334.553 27.4778 333.451 27.2196 332.312 26.9618C329.91 26.4187 329.486 26.2184 327.333 24.6116C325.056 22.9123 324.898 22.4964 326.085 21.3427C327.072 20.3836 328.184 20.0795 332.297 19.6444C333.54 19.5131 335.066 19.1494 335.689 18.8366C336.311 18.5238 337.433 18.0051 338.181 17.6839C339.891 16.9503 341.405 15.4327 342.007 13.8479C342.263 13.1753 342.655 12.4657 342.879 12.2711C343.333 11.8762 345.491 2.79915 345.463 1.40203C345.454 0.934101 348.276 -0.135797 349.123 0.0143529C349.444 0.0711743 350.104 0.602904 350.589 1.19594C351.48 2.28325 351.627 3.45642 351.398 7.64533C351.35 8.53264 351.457 9.74601 351.637 10.3417C351.817 10.9373 351.902 11.7569 351.826 12.1629C351.617 13.2792 353.187 18.5571 353.99 19.4376C355.133 20.6912 357.101 21.1661 358.488 20.5235C359.632 19.9939 359.675 19.999 359.758 20.6748C359.805 21.0593 360.258 21.5406 360.764 21.7441C363.492 22.842 363.945 25.7013 361.618 27.1437C360.944 27.5619 359.568 28.0372 358.56 28.1998C357.553 28.3625 356.502 28.6831 356.226 28.9125C355.95 29.1418 355.5 29.2877 355.227 29.2366C354.21 29.046 352.58 29.8183 351.318 31.0897C350.602 31.811 349.704 32.5543 349.322 32.7416C348.94 32.929 348.584 33.3154 348.531 33.6004C348.478 33.8854 347.934 34.293 347.324 34.5062C346.667 34.7354 346.16 35.1851 346.082 35.6071C345.846 36.8834 343.895 43.1637 343.571 43.691C343.397 43.9734 343.403 44.3388 343.584 44.5034C344.212 45.0755 343.487 47.3816 342.475 48.0287C341.954 48.3618 341.384 48.5937 341.208 48.5441C341.032 48.4957 339.987 47.6433 338.885 46.6528ZM344.402 28.0204C345.313 27.2511 346.961 25.9324 348.066 25.0899C349.171 24.2473 350.008 23.3873 349.928 23.1787C349.763 22.7499 346.65 19.3483 346.376 19.297C346.278 19.2787 345.929 19.591 345.601 19.9905C345.272 20.3902 343.933 21.368 342.625 22.1634C340.723 23.32 340.088 23.5364 339.452 23.244C338.35 22.7372 338.309 23.4752 339.403 24.1434C340.519 24.825 341.807 27.0288 341.647 27.9829C341.355 29.7282 342.364 29.742 344.402 28.0204Z" fill="black"/>
</svg>
