<svg width="47" height="818" viewBox="0 0 47 818" fill="none" xmlns="http://www.w3.org/2000/svg">
<mask id="path-1-inside-1_2359_692" fill="white">
<path fill-rule="evenodd" clip-rule="evenodd" d="M38.625 410.869C38.4997 411.653 37.7589 413.932 36.9785 415.935L35.5596 419.575C35.5596 419.575 34.934 423.081 36.4932 424.496C33.9031 424.242 34.3489 424.241 32.5898 425.277C30.2895 426.633 30.6896 426.64 28.1982 429.696C26.9616 431.213 25.7336 432.585 25.4697 432.744C24.5703 433.287 24.99 433.67 28.3418 435.359C33.6326 438.026 36.2234 440.415 38.9648 445.159C40.8973 448.503 41.4597 448.753 41.9268 449.215C42.4278 449.71 43.0599 450.536 44.9873 450.371C43.6776 451.348 42.6483 453.163 42.5674 453.562C42.4866 453.961 42.818 456.109 42.3867 458.446L41.6025 462.696C41.6033 462.7 41.9864 464.89 44.5478 466.023C41.7984 466.353 40.8323 466.85 40.6387 467.137C39.8693 468.274 39.7553 469.259 38.0996 472.042C37.2687 473.439 36.8341 474.557 36.1338 475.721C35.4372 476.879 36.9766 478.805 36.9932 478.826C36.9607 478.826 34.3582 478.801 33.5811 479.273C32.7993 479.749 32.1432 480.719 33.1133 481.786L35.0283 483.894L37.5283 483.956C38.9032 483.991 40.0833 484.036 40.1504 484.056C40.217 484.076 39.769 484.776 39.1543 485.612C37.7605 487.508 37.7584 488.092 39.1426 490.342C42.4004 495.637 44.0362 504.141 43.0469 510.642C42.5936 513.62 42.5505 513.418 44.3564 516.729C44.5448 517.074 45.1957 517.567 45.7148 517.957C46.6882 518.688 45.3787 518.287 43.6592 519.148C42.4286 519.765 40.6436 520.382 39.5537 521.221C38.5163 522.02 36.0806 525.572 34.7812 526.89C32.6109 529.09 29.5125 531.544 25.3525 534.359C21.8043 536.761 21.6279 536.087 27.623 543.034C28.9713 544.597 31.0255 547.261 32.1885 548.955L34.3037 552.035L36.8945 551.928C39.9568 551.8 39.9148 551.699 37.8545 554.229C35.9678 556.545 35.9049 557.062 37.1289 560.186C38.2323 563.001 39.2629 564.175 40.6348 564.175C42.1437 564.175 41.9122 564.76 39.3545 567.409L37.0498 569.797L36.7881 572.59C36.6441 574.126 36.3312 576.245 36.0928 577.298C35.3544 580.56 36.493 584.104 38.2793 584.104C38.5433 584.104 38.7594 584.25 38.7598 584.428C38.7598 584.857 37.8398 585.191 36.6465 585.194C33.6124 585.201 31.171 588.745 33.0117 590.469C34.6851 592.036 36.7605 595.378 37.9033 598.345C39.4037 602.24 41.1239 604.035 43.3574 604.035C44.0839 604.035 43.9284 604.543 42.9092 605.501C41.148 607.156 39.6382 609.958 39.2519 612.007L38.876 614C38.8681 614 38.8292 614 38.7637 614L38.625 614.869C38.4997 615.653 37.7589 617.932 36.9785 619.935L35.5596 623.575C35.5596 623.575 34.934 627.081 36.4932 628.496C33.9031 628.242 34.349 628.241 32.5898 629.277C30.2895 630.633 30.6896 630.64 28.1982 633.696C26.9616 635.213 25.7336 636.585 25.4697 636.744C24.5703 637.287 24.99 637.67 28.3418 639.359C33.6326 642.026 36.2234 644.415 38.9648 649.159C40.8973 652.503 41.4597 652.753 41.9268 653.215C42.4278 653.71 43.0599 654.536 44.9873 654.371C43.6776 655.348 42.6483 657.163 42.5674 657.562C42.4866 657.961 42.818 660.109 42.3867 662.446L41.6025 666.696C41.6032 666.7 41.986 668.89 44.5478 670.023C41.7983 670.353 40.8323 670.85 40.6387 671.137C39.8693 672.274 39.7553 673.259 38.0996 676.042C37.2687 677.439 36.8341 678.557 36.1338 679.721C35.4372 680.879 36.9766 682.805 36.9932 682.826C36.9607 682.826 34.3582 682.801 33.5811 683.273C32.7993 683.749 32.1432 684.719 33.1133 685.786L35.0283 687.894L37.5283 687.956C38.9032 687.991 40.0833 688.036 40.1504 688.056C40.2171 688.076 39.769 688.776 39.1543 689.612C37.7605 691.508 37.7584 692.092 39.1426 694.342C42.4004 699.637 44.0362 708.141 43.0469 714.642C42.5936 717.62 42.5505 717.418 44.3564 720.729C44.5448 721.074 45.1957 721.567 45.7148 721.957C46.6882 722.688 45.3787 722.287 43.6592 723.148C42.4286 723.765 40.6436 724.382 39.5537 725.221C38.5163 726.02 36.0806 729.572 34.7812 730.89C32.6109 733.09 29.5125 735.544 25.3525 738.359C21.8043 740.761 21.6279 740.087 27.623 747.034C28.9713 748.597 31.0255 751.261 32.1885 752.955L34.3037 756.035L36.8945 755.928C39.9568 755.8 39.9148 755.699 37.8545 758.229C35.9678 760.545 35.9049 761.062 37.1289 764.186C38.2323 767.001 39.2629 768.175 40.6348 768.175C42.1437 768.175 41.9122 768.76 39.3545 771.409L37.0498 773.797L36.7881 776.59C36.6441 778.126 36.3312 780.245 36.0928 781.298C35.3544 784.56 36.493 788.104 38.2793 788.104C38.5433 788.104 38.7594 788.25 38.7598 788.428C38.7598 788.857 37.8398 789.191 36.6465 789.194C33.6124 789.201 31.171 792.745 33.0117 794.469C34.6851 796.036 36.7605 799.378 37.9033 802.345C39.4037 806.24 41.1239 808.035 43.3574 808.035C44.0839 808.035 43.9284 808.543 42.9092 809.501C41.148 811.156 39.6382 813.958 39.2519 816.007L38.876 818H26.8213C26.9364 817.906 27.8072 817.8 28.1143 817.665C31.9715 815.969 32.5674 809.767 29.4795 803.455C27.1717 798.738 24.8261 800.584 25.5049 806.584L25.7461 808.713L24.3242 808.155C21.4321 807.02 15.4476 817.992 15.4434 818H6.78808L6.57812 817.185C6.43153 816.616 6.09231 815.821 5.96582 815.372C5.83927 814.924 5.17607 814.13 4.49218 813.608C2.80105 812.319 2.92203 812.024 5.15039 812.006C7.67516 811.986 9.06021 811.176 10.7021 808.76C11.447 807.664 12.5615 806.184 13.1787 805.473C16.1959 801.994 21.0039 795.841 21.0039 795.46C21.0032 794.131 16.1564 791.94 13.1797 791.924L10.6094 791.909L11.0957 790.743C12.0781 788.389 11.7573 786.867 9.71484 784.201C6.96512 780.613 6.78733 780.495 4.13574 780.495C1.67886 780.495 0.816136 779.988 2.30761 779.421C4.09895 778.74 5.23181 775.673 4.71874 772.894C4.47872 771.593 4.18974 768.165 4.07714 765.275C3.84136 759.226 2.86226 756.522 0.621088 755.736C-0.38529 755.383 -0.115191 754.767 1.04589 754.767C2.48601 754.767 5.0755 752.734 5.9121 750.946C6.78419 749.083 9.30703 745.368 11.5605 742.628C13.7432 739.974 13.7285 740.449 11.7256 737.353C10.8075 735.933 9.50355 733.576 8.82812 732.114C7.49337 729.225 6.3661 728.314 4.12597 728.314H2.9414L4.41015 726.114C5.63929 724.274 5.81803 723.785 5.5039 723.125C3.63501 719.199 3.25175 711.056 4.75878 707.297C7.28891 700.986 7.49667 699.114 5.95605 696.506C5.09633 695.05 5.42688 694.724 7.0039 695.473C8.60911 696.234 9.63143 696.221 10.333 695.43C12.1394 693.391 13.7464 691.084 14.9863 688.75C15.761 687.292 17.0148 685.347 17.7715 684.43L19.1465 682.762L17.3564 680.082C14.3613 675.6 11.2329 673.235 8.29882 673.234C7.61776 673.234 7.60833 673.176 8.13085 672.166C8.83076 670.813 8.83641 668.139 8.1455 665.16C7.8494 663.883 7.29054 660.686 6.90429 658.056C6.21806 653.383 4.74624 649.681 3.57324 649.681C2.67574 649.681 3.44529 648.981 4.96972 648.411C7.28271 647.546 7.33875 647.49 9.44921 643.996C10.4629 642.318 11.8685 640.191 12.5723 639.269C13.5937 637.93 13.7703 637.477 13.4463 637.023C13.2229 636.711 12.6965 635.82 12.2773 635.044C10.035 630.898 7.88484 630.273 4.46093 628.727C3.27999 628.568 3.88447 628.326 4.72851 627.941C5.85533 627.427 7.33624 624.821 7.31933 623.382C7.31248 622.799 7.18498 620.325 7.03613 617.884L6.79882 614H6.78808L6.57812 613.185C6.43154 612.616 6.09231 611.821 5.96582 611.372C5.83927 610.924 5.17607 610.13 4.49218 609.608C2.80105 608.319 2.92203 608.024 5.15039 608.006C7.67515 607.986 9.06022 607.176 10.7021 604.76C11.447 603.664 12.5615 602.184 13.1787 601.473C16.1959 597.994 21.0039 591.841 21.0039 591.46C21.0032 590.131 16.1564 587.94 13.1797 587.924L10.6094 587.909L11.0957 586.743C12.0781 584.389 11.7573 582.867 9.71484 580.201C6.96512 576.613 6.78732 576.495 4.13574 576.495C1.67886 576.495 0.816136 575.988 2.30761 575.421C4.09895 574.74 5.23181 571.673 4.71874 568.894C4.47872 567.593 4.18974 564.165 4.07714 561.275C3.84136 555.226 2.86226 552.522 0.621088 551.736C-0.38529 551.383 -0.115191 550.767 1.04589 550.767C2.48601 550.767 5.07551 548.734 5.9121 546.946C6.78419 545.083 9.30703 541.368 11.5605 538.628C13.7432 535.974 13.7285 536.449 11.7256 533.353C10.8075 531.933 9.50355 529.576 8.82812 528.114C7.49337 525.225 6.36609 524.314 4.12597 524.314H2.9414L4.41015 522.114C5.63928 520.274 5.81803 519.785 5.5039 519.125C3.63501 515.199 3.25175 507.056 4.75878 503.297C7.28891 496.986 7.49666 495.114 5.95605 492.506C5.09633 491.05 5.42688 490.724 7.0039 491.473C8.60911 492.234 9.63143 492.221 10.333 491.43C12.1394 489.391 13.7464 487.084 14.9863 484.75C15.761 483.292 17.0148 481.347 17.7715 480.43L19.1465 478.762L17.3564 476.082C14.3613 471.6 11.2329 469.235 8.29882 469.234C7.61776 469.234 7.60833 469.176 8.13085 468.166C8.83075 466.813 8.83641 464.139 8.1455 461.16C7.8494 459.883 7.29054 456.686 6.90429 454.056C6.21806 449.383 4.74624 445.681 3.57324 445.681C2.67574 445.681 3.44529 444.981 4.96972 444.411C7.2827 443.546 7.33875 443.49 9.44921 439.996C10.4629 438.318 11.8685 436.191 12.5723 435.269C13.5937 433.93 13.7703 433.477 13.4463 433.023C13.2229 432.711 12.6965 431.82 12.2773 431.044C10.035 426.898 7.88484 426.273 4.46093 424.727C3.27999 424.568 3.88447 424.326 4.72851 423.941C5.85533 423.427 7.33624 420.821 7.31933 419.382C7.31248 418.799 7.18498 416.325 7.03613 413.884L6.84374 409H6.78808L6.57812 408.185C6.43153 407.616 6.09231 406.821 5.96582 406.372C5.83927 405.924 5.17607 405.13 4.49218 404.608C2.80105 403.319 2.92203 403.024 5.15039 403.006C7.67516 402.986 9.06021 402.176 10.7021 399.76C11.447 398.664 12.5615 397.184 13.1787 396.473C16.1959 392.994 21.0039 386.841 21.0039 386.46C21.0032 385.131 16.1564 382.94 13.1797 382.924L10.6094 382.909L11.0957 381.743C12.0781 379.389 11.7573 377.867 9.71484 375.201C6.96512 371.613 6.78733 371.495 4.13574 371.495C1.67886 371.495 0.816136 370.988 2.30761 370.421C4.09895 369.74 5.23181 366.673 4.71874 363.894C4.47872 362.593 4.18974 359.165 4.07714 356.275C3.84136 350.226 2.86226 347.522 0.621088 346.736C-0.38529 346.383 -0.115191 345.767 1.04589 345.767C2.48601 345.767 5.0755 343.734 5.9121 341.946C6.78419 340.083 9.30703 336.368 11.5605 333.628C13.7432 330.974 13.7285 331.449 11.7256 328.353C10.8075 326.933 9.50355 324.576 8.82812 323.114C7.49337 320.225 6.3661 319.314 4.12597 319.314H2.9414L4.41015 317.114C5.63929 315.274 5.81803 314.785 5.5039 314.125C3.63501 310.199 3.25175 302.056 4.75878 298.297C7.28891 291.986 7.49667 290.114 5.95605 287.506C5.09633 286.05 5.42688 285.724 7.0039 286.473C8.60911 287.234 9.63143 287.221 10.333 286.43C12.1394 284.391 13.7464 282.084 14.9863 279.75C15.761 278.292 17.0148 276.347 17.7715 275.43L19.1465 273.762L17.3564 271.082C14.3613 266.6 11.2329 264.235 8.29882 264.234C7.61776 264.234 7.60833 264.176 8.13085 263.166C8.83076 261.813 8.83641 259.139 8.1455 256.16C7.8494 254.883 7.29054 251.686 6.90429 249.056C6.21806 244.383 4.74624 240.681 3.57324 240.681C2.67574 240.681 3.44529 239.981 4.96972 239.411C7.28271 238.546 7.33875 238.49 9.44921 234.996C10.4629 233.318 11.8685 231.191 12.5723 230.269C13.5937 228.93 13.7703 228.477 13.4463 228.023C13.2229 227.711 12.6965 226.82 12.2773 226.044C10.035 221.898 7.88484 221.273 4.46093 219.727C3.27999 219.568 3.88447 219.326 4.72851 218.941C5.85533 218.427 7.33624 215.821 7.31933 214.382C7.31248 213.799 7.18498 211.325 7.03613 208.884L6.79882 205H6.78808L6.57812 204.185C6.43154 203.616 6.09231 202.821 5.96582 202.372C5.83927 201.924 5.17607 201.13 4.49218 200.608C2.80105 199.319 2.92203 199.024 5.15039 199.006C7.67515 198.986 9.06022 198.176 10.7021 195.76C11.447 194.664 12.5615 193.184 13.1787 192.473C16.1959 188.994 21.0039 182.841 21.0039 182.46C21.0032 181.131 16.1564 178.94 13.1797 178.924L10.6094 178.909L11.0957 177.743C12.0781 175.389 11.7573 173.867 9.71484 171.201C6.96512 167.613 6.78732 167.495 4.13574 167.495C1.67886 167.495 0.816136 166.988 2.30761 166.421C4.09895 165.74 5.23181 162.673 4.71874 159.894C4.47872 158.593 4.18974 155.165 4.07714 152.275C3.84136 146.226 2.86226 143.522 0.621088 142.736C-0.38529 142.383 -0.115191 141.767 1.04589 141.767C2.48601 141.767 5.07551 139.734 5.9121 137.946C6.78419 136.083 9.30703 132.368 11.5605 129.628C13.7432 126.974 13.7285 127.449 11.7256 124.353C10.8075 122.933 9.50355 120.576 8.82812 119.114C7.49337 116.225 6.36609 115.314 4.12597 115.314H2.9414L4.41015 113.114C5.63928 111.274 5.81803 110.785 5.5039 110.125C3.63501 106.199 3.25175 98.0559 4.75878 94.2969C7.28891 87.9859 7.49666 86.1139 5.95605 83.5059C5.09633 82.0504 5.42688 81.7244 7.0039 82.4727C8.60911 83.2344 9.63143 83.2213 10.333 82.4297C12.1394 80.3914 13.7464 78.0841 14.9863 75.75C15.761 74.2918 17.0148 72.3475 17.7715 71.4297L19.1465 69.7617L17.3564 67.082C14.3613 62.6 11.2329 60.2346 8.29882 60.2344C7.61776 60.2344 7.60833 60.1764 8.13085 59.166C8.83075 57.8126 8.83641 55.1394 8.1455 52.1602C7.8494 50.8832 7.29054 47.6862 6.90429 45.0557C6.21806 40.3825 4.74624 36.6814 3.57324 36.6807C2.67574 36.6807 3.44529 35.9813 4.96972 35.4111C7.2827 34.5461 7.33875 34.4901 9.44921 30.9961C10.4629 29.3179 11.8685 27.1906 12.5723 26.2686C13.5937 24.9304 13.7703 24.4775 13.4463 24.0234C13.2229 23.7106 12.6965 22.8196 12.2773 22.0439C10.035 17.8981 7.88484 17.2734 4.46093 15.7266C3.27999 15.5683 3.88447 15.326 4.72851 14.9414C5.85533 14.4273 7.33624 11.8213 7.31933 10.3818C7.31248 9.79936 7.18498 7.3251 7.03613 4.88379L6.84374 0H15.5L18.1728 3.2627L17.0576 3.9209C14.1118 5.66132 14.4504 9.9493 18.0986 17.1006C19.2556 19.3685 19.1413 19.4496 24.0391 12.9463C29.3851 5.84773 29.8168 4.61272 27.8867 1.94824L26.876 0H38.9307L38.625 1.86914C38.4997 2.65273 37.7589 4.93218 36.9785 6.93457L35.5596 10.5752C35.5596 10.5752 34.934 14.0805 36.4932 15.4961C33.9031 15.2418 34.3489 15.2407 32.5898 16.2773C30.2895 17.6329 30.6896 17.6403 28.1982 20.6963C26.9616 22.2132 25.7336 23.5847 25.4697 23.7441C24.5703 24.2874 24.99 24.6701 28.3418 26.3594C33.6326 29.0259 36.2234 31.4152 38.9648 36.1592C40.8973 39.5033 41.4597 39.7534 41.9268 40.2148C42.4278 40.71 43.0599 41.5356 44.9873 41.3711C43.6776 42.348 42.6483 44.1629 42.5674 44.5615C42.4866 44.9607 42.818 47.1093 42.3867 49.4463L41.6025 53.6963C41.6033 53.7005 41.9864 55.8901 44.5478 57.0234C41.7984 57.3528 40.8323 57.8505 40.6387 58.1367C39.8693 59.2745 39.7553 60.2589 38.0996 63.042C37.2687 64.4387 36.8341 65.5566 36.1338 66.7207C35.4372 67.8787 36.9766 69.8055 36.9932 69.8262C36.9607 69.8258 34.3582 69.8013 33.5811 70.2734C32.7993 70.7486 32.1432 71.7187 33.1133 72.7861L35.0283 74.8936L37.5283 74.9561C38.9032 74.9906 40.0833 75.0357 40.1504 75.0557C40.217 75.0761 39.769 75.7764 39.1543 76.6123C37.7605 78.5076 37.7584 79.0917 39.1426 81.3418C42.4004 86.6365 44.0362 95.1407 43.0469 101.642C42.5936 104.62 42.5505 104.418 44.3564 107.729C44.5448 108.074 45.1957 108.567 45.7148 108.957C46.6882 109.688 45.3787 109.287 43.6592 110.148C42.4286 110.765 40.6436 111.382 39.5537 112.221C38.5163 113.02 36.0806 116.572 34.7812 117.89C32.6109 120.09 29.5125 122.544 25.3525 125.359C21.8043 127.761 21.6279 127.087 27.623 134.034C28.9713 135.597 31.0255 138.261 32.1885 139.955L34.3037 143.035L36.8945 142.928C39.9568 142.8 39.9148 142.699 37.8545 145.229C35.9678 147.545 35.9049 148.062 37.1289 151.186C38.2323 154.001 39.2629 155.175 40.6348 155.175C42.1437 155.175 41.9122 155.76 39.3545 158.409L37.0498 160.797L36.7881 163.59C36.6441 165.126 36.3312 167.245 36.0928 168.298C35.3544 171.56 36.493 175.104 38.2793 175.104C38.5433 175.104 38.7594 175.25 38.7598 175.428C38.7598 175.857 37.8398 176.191 36.6465 176.194C33.6124 176.201 31.171 179.745 33.0117 181.469C34.6851 183.036 36.7605 186.378 37.9033 189.345C39.4037 193.24 41.1239 195.035 43.3574 195.035C44.0839 195.035 43.9284 195.543 42.9092 196.501C41.148 198.156 39.6382 200.958 39.2519 203.007L38.876 205C38.8681 205 38.8292 205 38.7637 205L38.625 205.869C38.4997 206.653 37.7589 208.932 36.9785 210.935L35.5596 214.575C35.5596 214.575 34.934 218.081 36.4932 219.496C33.9031 219.242 34.349 219.241 32.5898 220.277C30.2895 221.633 30.6896 221.64 28.1982 224.696C26.9616 226.213 25.7336 227.585 25.4697 227.744C24.5703 228.287 24.99 228.67 28.3418 230.359C33.6326 233.026 36.2234 235.415 38.9648 240.159C40.8973 243.503 41.4597 243.753 41.9268 244.215C42.4278 244.71 43.0599 245.536 44.9873 245.371C43.6776 246.348 42.6483 248.163 42.5674 248.562C42.4866 248.961 42.818 251.109 42.3867 253.446L41.6025 257.696C41.6032 257.7 41.986 259.89 44.5478 261.023C41.7983 261.353 40.8323 261.85 40.6387 262.137C39.8693 263.274 39.7553 264.259 38.0996 267.042C37.2687 268.439 36.8341 269.557 36.1338 270.721C35.4372 271.879 36.9766 273.805 36.9932 273.826C36.9607 273.826 34.3582 273.801 33.5811 274.273C32.7993 274.749 32.1432 275.719 33.1133 276.786L35.0283 278.894L37.5283 278.956C38.9032 278.991 40.0833 279.036 40.1504 279.056C40.2171 279.076 39.769 279.776 39.1543 280.612C37.7605 282.508 37.7584 283.092 39.1426 285.342C42.4004 290.637 44.0362 299.141 43.0469 305.642C42.5936 308.62 42.5505 308.418 44.3564 311.729C44.5448 312.074 45.1957 312.567 45.7148 312.957C46.6882 313.688 45.3787 313.287 43.6592 314.148C42.4286 314.765 40.6436 315.382 39.5537 316.221C38.5163 317.02 36.0806 320.572 34.7812 321.89C32.6109 324.09 29.5125 326.544 25.3525 329.359C21.8043 331.761 21.6279 331.087 27.623 338.034C28.9713 339.597 31.0255 342.261 32.1885 343.955L34.3037 347.035L36.8945 346.928C39.9568 346.8 39.9148 346.699 37.8545 349.229C35.9678 351.545 35.9049 352.062 37.1289 355.186C38.2323 358.001 39.2629 359.175 40.6348 359.175C42.1437 359.175 41.9122 359.76 39.3545 362.409L37.0498 364.797L36.7881 367.59C36.6441 369.126 36.3312 371.245 36.0928 372.298C35.3544 375.56 36.493 379.104 38.2793 379.104C38.5433 379.104 38.7594 379.25 38.7598 379.428C38.7598 379.857 37.8398 380.191 36.6465 380.194C33.6124 380.201 31.171 383.745 33.0117 385.469C34.6851 387.036 36.7605 390.378 37.9033 393.345C39.4037 397.24 41.1239 399.035 43.3574 399.035C44.0839 399.035 43.9284 399.543 42.9092 400.501C41.148 402.156 39.6382 404.958 39.2519 407.007L38.876 409H38.9307L38.625 410.869ZM18.1728 412.263L17.0576 412.921C14.1118 414.661 14.4504 418.949 18.0986 426.101C19.2556 428.369 19.1413 428.45 24.0391 421.946C29.3851 414.848 29.8168 413.613 27.8867 410.948L26.876 409H26.8213C26.9364 408.906 27.8072 408.8 28.1143 408.665C31.9715 406.969 32.5674 400.767 29.4795 394.455C27.1717 389.738 24.8261 391.584 25.5049 397.584L25.7461 399.713L24.3242 399.155C21.4321 398.02 15.4476 408.992 15.4434 409H15.5L18.1728 412.263ZM19.5312 748.924C18.5176 746.937 18.3087 746.965 17.0977 749.248C16.492 750.39 15.5737 752.123 15.0576 753.1C14.5415 754.076 14.1191 755.126 14.1191 755.432C14.1188 755.738 13.773 756.703 13.3506 757.575C11.4349 761.533 12.1835 765.134 15.0176 765.595C16.9489 765.909 16.9748 766.506 15.0957 767.416C11.9196 768.954 11.6441 771.707 14.1367 777.01C15.7822 780.51 25.3934 788.733 25.9521 787.119C26.0747 786.764 26.4789 785.76 26.8506 784.888C27.8973 782.431 26.442 779.308 23.8701 778.491C22.9428 778.197 22.9893 777.596 23.9394 777.596C28.1424 777.595 30.089 772.323 28.5547 765.095C28.0796 762.857 27.1798 761.185 24.5088 757.579C22.2844 754.576 21.5971 754.181 19.1709 754.507C17.5882 754.719 17.4337 754.516 18.3857 753.477C19.9366 751.783 20.2844 750.4 19.5312 748.924ZM23.6338 690.865C22.1477 691.711 22.1555 691.789 23.9033 693.485C25.8149 695.341 25.7442 695.548 23.206 695.533C20.644 695.518 19.5931 696.155 17.8105 698.808C17.1504 699.79 15.9273 701.396 15.0928 702.377C12.8116 705.058 12.738 705.173 12.1152 707.007C11.3888 709.146 11.7696 709.991 13.874 710.907C15.1694 711.471 15.2833 711.603 14.6631 711.82C13.3859 712.267 12.5146 712.756 11.417 713.644L10.3457 714.51L10.7998 717.652C11.2451 720.732 12.5899 724.351 14.0576 726.419C14.4437 726.963 15.374 728.55 16.125 729.945C16.876 731.34 17.8753 733.092 18.3447 733.838L19.1982 735.193L21.3564 733.656C24.1297 731.681 24.954 729.496 23.8447 727.062C23.2987 725.863 23.621 725.576 24.7109 726.29C25.1898 726.604 26.327 726.963 27.2383 727.088L28.8955 727.314L30.6934 724.644C34.2669 719.334 35.7718 710.045 33.415 707.846C32.867 707.334 31.7667 706.728 30.9697 706.498C29.06 705.947 29.0864 706.002 30.1924 704.896C30.7222 704.366 31.4892 703.391 31.8975 702.73L32.6406 701.529L31.7685 699.975C30.2649 697.291 27.6255 693.409 26.1894 691.771L24.8086 690.196L23.6338 690.865ZM18.2002 644.864C15.1081 648.486 14.6087 652.582 16.9766 654.895L18.3838 656.269L16.7949 657.857C14.9901 659.662 14.9123 660.126 15.8105 663.738C17.509 670.568 28.9761 678.374 28.9766 672.7C28.9766 671.627 28.5739 671.12 28.2432 670.509C27.5609 669.248 27.1725 669.419 29.2471 669.395C31.4691 669.368 33.2323 668.389 33.6924 666.763C35.2398 661.292 35.3728 658.821 34.2402 656.586C33.0946 654.325 31.8297 653.441 29.2812 653.123L27.2402 652.868L27.4277 650.791C27.6885 647.915 27.3473 647.486 23.0957 645.355L19.374 643.49L18.2002 644.864ZM29.4795 599.455C27.1717 594.738 24.8261 596.584 25.5049 602.584L25.7461 604.713L24.3242 604.155C21.7356 603.139 16.6705 611.823 15.6328 613.662L16.7978 614.854L18.1728 616.263L17.0576 616.921C14.1118 618.661 14.4504 622.949 18.0986 630.101C19.2556 632.369 19.1413 632.45 24.0391 625.946C29.3851 618.848 29.8169 617.613 27.8867 614.948L27.1992 614C26.9939 614 26.8601 614 26.8213 614C26.8589 613.969 26.9777 613.939 27.1309 613.905L26.7978 613.444H28.5518C32.0119 611.482 32.4465 605.52 29.4795 599.455ZM19.5312 544.924C18.5176 542.937 18.3087 542.965 17.0977 545.248C16.492 546.39 15.5737 548.123 15.0576 549.1C14.5415 550.076 14.1191 551.126 14.1191 551.432C14.1188 551.738 13.773 552.703 13.3506 553.575C11.4349 557.533 12.1835 561.134 15.0176 561.595C16.9488 561.909 16.9748 562.506 15.0957 563.416C11.9196 564.954 11.6441 567.707 14.1367 573.01C15.7822 576.51 25.3934 584.733 25.9521 583.119C26.0747 582.764 26.4789 581.76 26.8506 580.888C27.8973 578.431 26.442 575.308 23.8701 574.491C22.9428 574.197 22.9893 573.596 23.9394 573.596C28.1424 573.595 30.089 568.323 28.5547 561.095C28.0796 558.857 27.1798 557.185 24.5088 553.579C22.2844 550.576 21.5971 550.181 19.1709 550.507C17.5882 550.719 17.4337 550.516 18.3857 549.477C19.9366 547.783 20.2844 546.4 19.5312 544.924ZM23.6338 486.865C22.1477 487.711 22.1555 487.789 23.9033 489.485C25.8149 491.341 25.7442 491.548 23.206 491.533C20.644 491.518 19.5931 492.155 17.8105 494.808C17.1504 495.79 15.9273 497.396 15.0928 498.377C12.8116 501.058 12.738 501.173 12.1152 503.007C11.3888 505.146 11.7696 505.991 13.874 506.907C15.1694 507.471 15.2833 507.603 14.6631 507.82C13.3859 508.267 12.5146 508.756 11.417 509.644L10.3457 510.51L10.7998 513.652C11.2451 516.732 12.5899 520.351 14.0576 522.419C14.4437 522.963 15.374 524.55 16.125 525.945C16.876 527.34 17.8753 529.092 18.3447 529.838L19.1982 531.193L21.3564 529.656C24.1297 527.681 24.954 525.496 23.8447 523.062C23.2987 521.863 23.621 521.576 24.7109 522.29C25.1898 522.604 26.327 522.963 27.2383 523.088L28.8955 523.314L30.6934 520.644C34.2669 515.334 35.7718 506.045 33.415 503.846C32.867 503.334 31.7667 502.728 30.9697 502.498C29.06 501.947 29.0864 502.002 30.1924 500.896C30.7222 500.366 31.4892 499.391 31.8975 498.73L32.6406 497.529L31.7685 495.975C30.2649 493.291 27.6255 489.409 26.1894 487.771L24.8086 486.196L23.6338 486.865ZM18.2002 440.864C15.1081 444.486 14.6087 448.582 16.9766 450.895L18.3838 452.269L16.7949 453.857C14.9901 455.662 14.9123 456.126 15.8105 459.738C17.509 466.568 28.9761 474.374 28.9766 468.7C28.9766 467.627 28.5739 467.12 28.2432 466.509C27.5609 465.248 27.1725 465.419 29.2471 465.395C31.4691 465.368 33.2323 464.389 33.6924 462.763C35.2398 457.292 35.3727 454.821 34.2402 452.586C33.0946 450.325 31.8297 449.441 29.2812 449.123L27.2402 448.868L27.4277 446.791C27.6885 443.915 27.3473 443.486 23.0957 441.355L19.374 439.49L18.2002 440.864ZM19.5312 339.924C18.5176 337.937 18.3087 337.965 17.0977 340.248C16.492 341.39 15.5737 343.123 15.0576 344.1C14.5415 345.076 14.1191 346.126 14.1191 346.432C14.1188 346.738 13.773 347.703 13.3506 348.575C11.4349 352.533 12.1835 356.134 15.0176 356.595C16.9489 356.909 16.9748 357.506 15.0957 358.416C11.9196 359.954 11.6441 362.707 14.1367 368.01C15.7822 371.51 25.3934 379.733 25.9521 378.119C26.0747 377.764 26.4789 376.76 26.8506 375.888C27.8973 373.431 26.442 370.308 23.8701 369.491C22.9428 369.197 22.9893 368.596 23.9394 368.596C28.1424 368.595 30.089 363.323 28.5547 356.095C28.0796 353.857 27.1798 352.185 24.5088 348.579C22.2844 345.576 21.5971 345.181 19.1709 345.507C17.5882 345.719 17.4337 345.516 18.3857 344.477C19.9366 342.783 20.2844 341.4 19.5312 339.924ZM23.6338 281.865C22.1477 282.711 22.1555 282.789 23.9033 284.485C25.8149 286.341 25.7442 286.548 23.206 286.533C20.644 286.518 19.5931 287.155 17.8105 289.808C17.1504 290.79 15.9273 292.396 15.0928 293.377C12.8116 296.058 12.738 296.173 12.1152 298.007C11.3888 300.146 11.7696 300.991 13.874 301.907C15.1694 302.471 15.2833 302.603 14.6631 302.82C13.3859 303.267 12.5146 303.756 11.417 304.644L10.3457 305.51L10.7998 308.652C11.2451 311.732 12.5899 315.351 14.0576 317.419C14.4437 317.963 15.374 319.55 16.125 320.945C16.876 322.34 17.8753 324.092 18.3447 324.838L19.1982 326.193L21.3564 324.656C24.1297 322.681 24.954 320.496 23.8447 318.062C23.2987 316.863 23.621 316.576 24.7109 317.29C25.1898 317.604 26.327 317.963 27.2383 318.088L28.8955 318.314L30.6934 315.644C34.2669 310.334 35.7718 301.045 33.415 298.846C32.867 298.334 31.7667 297.728 30.9697 297.498C29.06 296.947 29.0864 297.002 30.1924 295.896C30.7222 295.366 31.4892 294.391 31.8975 293.73L32.6406 292.529L31.7685 290.975C30.2649 288.291 27.6255 284.409 26.1894 282.771L24.8086 281.196L23.6338 281.865ZM18.2002 235.864C15.1081 239.486 14.6087 243.582 16.9766 245.895L18.3838 247.269L16.7949 248.857C14.9901 250.662 14.9123 251.126 15.8105 254.738C17.509 261.568 28.9761 269.374 28.9766 263.7C28.9766 262.627 28.5739 262.12 28.2432 261.509C27.5609 260.248 27.1725 260.419 29.2471 260.395C31.4691 260.368 33.2323 259.389 33.6924 257.763C35.2398 252.292 35.3728 249.821 34.2402 247.586C33.0946 245.325 31.8297 244.441 29.2812 244.123L27.2402 243.868L27.4277 241.791C27.6885 238.915 27.3473 238.486 23.0957 236.355L19.374 234.49L18.2002 235.864ZM29.4795 190.455C27.1717 185.738 24.8261 187.584 25.5049 193.584L25.7461 195.713L24.3242 195.155C21.7356 194.139 16.6705 202.823 15.6328 204.662L16.7978 205.854L18.1728 207.263L17.0576 207.921C14.1118 209.661 14.4504 213.949 18.0986 221.101C19.2556 223.369 19.1413 223.45 24.0391 216.946C29.3851 209.848 29.8169 208.613 27.8867 205.948L27.1992 205C26.9939 205 26.8601 205 26.8213 205C26.8589 204.969 26.9777 204.939 27.1309 204.905L26.7978 204.444H28.5518C32.0119 202.482 32.4465 196.52 29.4795 190.455ZM19.5312 135.924C18.5176 133.937 18.3087 133.965 17.0977 136.248C16.492 137.39 15.5737 139.123 15.0576 140.1C14.5415 141.076 14.1191 142.126 14.1191 142.432C14.1188 142.738 13.773 143.703 13.3506 144.575C11.4349 148.533 12.1835 152.134 15.0176 152.595C16.9488 152.909 16.9748 153.506 15.0957 154.416C11.9196 155.954 11.6441 158.707 14.1367 164.01C15.7822 167.51 25.3934 175.733 25.9521 174.119C26.0747 173.764 26.4789 172.76 26.8506 171.888C27.8973 169.431 26.442 166.308 23.8701 165.491C22.9428 165.197 22.9893 164.596 23.9394 164.596C28.1424 164.595 30.089 159.323 28.5547 152.095C28.0796 149.857 27.1798 148.185 24.5088 144.579C22.2844 141.576 21.5971 141.181 19.1709 141.507C17.5882 141.719 17.4337 141.516 18.3857 140.477C19.9366 138.783 20.2844 137.4 19.5312 135.924ZM23.6338 77.8652C22.1477 78.7114 22.1555 78.7891 23.9033 80.4854C25.8149 82.3405 25.7442 82.5482 23.206 82.5332C20.644 82.518 19.5931 83.1554 17.8105 85.8076C17.1504 86.7898 15.9273 88.3962 15.0928 89.377C12.8116 92.0577 12.738 92.1729 12.1152 94.0068C11.3888 96.1461 11.7696 96.9906 13.874 97.9072C15.1694 98.4715 15.2833 98.6034 14.6631 98.8203C13.3859 99.2669 12.5146 99.756 11.417 100.644L10.3457 101.51L10.7998 104.652C11.2451 107.732 12.5899 111.351 14.0576 113.419C14.4437 113.963 15.374 115.55 16.125 116.945C16.876 118.34 17.8753 120.092 18.3447 120.838L19.1982 122.193L21.3564 120.656C24.1297 118.681 24.954 116.496 23.8447 114.062C23.2987 112.863 23.621 112.576 24.7109 113.29C25.1898 113.604 26.327 113.963 27.2383 114.088L28.8955 114.314L30.6934 111.644C34.2669 106.334 35.7718 97.0447 33.415 94.8457C32.867 94.3345 31.7667 93.7283 30.9697 93.498C29.06 92.9467 29.0864 93.0015 30.1924 91.8955C30.7222 91.3656 31.4892 90.391 31.8975 89.7305L32.6406 88.5293L31.7685 86.9746C30.2649 84.2909 27.6255 80.4088 26.1894 78.7705L24.8086 77.1963L23.6338 77.8652ZM18.2002 31.8643C15.1081 35.486 14.6087 39.5824 16.9766 41.8945L18.3838 43.2686L16.7949 44.8574C14.9901 46.6623 14.9123 47.1263 15.8105 50.7383C17.509 57.5684 28.9761 65.3738 28.9766 59.7002C28.9766 58.6272 28.5739 58.1202 28.2432 57.5088C27.5609 56.2476 27.1725 56.4188 29.2471 56.3945C31.4691 56.3684 33.2323 55.3891 33.6924 53.7627C35.2398 48.2919 35.3727 45.821 34.2402 43.5859C33.0946 41.3251 31.8297 40.4415 29.2812 40.123L27.2402 39.8682L27.4277 37.791C27.6885 34.9148 27.3473 34.4861 23.0957 32.3555L19.374 30.4902L18.2002 31.8643Z"/>
</mask>
<path fill-rule="evenodd" clip-rule="evenodd" d="M38.625 410.869C38.4997 411.653 37.7589 413.932 36.9785 415.935L35.5596 419.575C35.5596 419.575 34.934 423.081 36.4932 424.496C33.9031 424.242 34.3489 424.241 32.5898 425.277C30.2895 426.633 30.6896 426.64 28.1982 429.696C26.9616 431.213 25.7336 432.585 25.4697 432.744C24.5703 433.287 24.99 433.67 28.3418 435.359C33.6326 438.026 36.2234 440.415 38.9648 445.159C40.8973 448.503 41.4597 448.753 41.9268 449.215C42.4278 449.71 43.0599 450.536 44.9873 450.371C43.6776 451.348 42.6483 453.163 42.5674 453.562C42.4866 453.961 42.818 456.109 42.3867 458.446L41.6025 462.696C41.6033 462.7 41.9864 464.89 44.5478 466.023C41.7984 466.353 40.8323 466.85 40.6387 467.137C39.8693 468.274 39.7553 469.259 38.0996 472.042C37.2687 473.439 36.8341 474.557 36.1338 475.721C35.4372 476.879 36.9766 478.805 36.9932 478.826C36.9607 478.826 34.3582 478.801 33.5811 479.273C32.7993 479.749 32.1432 480.719 33.1133 481.786L35.0283 483.894L37.5283 483.956C38.9032 483.991 40.0833 484.036 40.1504 484.056C40.217 484.076 39.769 484.776 39.1543 485.612C37.7605 487.508 37.7584 488.092 39.1426 490.342C42.4004 495.637 44.0362 504.141 43.0469 510.642C42.5936 513.62 42.5505 513.418 44.3564 516.729C44.5448 517.074 45.1957 517.567 45.7148 517.957C46.6882 518.688 45.3787 518.287 43.6592 519.148C42.4286 519.765 40.6436 520.382 39.5537 521.221C38.5163 522.02 36.0806 525.572 34.7812 526.89C32.6109 529.09 29.5125 531.544 25.3525 534.359C21.8043 536.761 21.6279 536.087 27.623 543.034C28.9713 544.597 31.0255 547.261 32.1885 548.955L34.3037 552.035L36.8945 551.928C39.9568 551.8 39.9148 551.699 37.8545 554.229C35.9678 556.545 35.9049 557.062 37.1289 560.186C38.2323 563.001 39.2629 564.175 40.6348 564.175C42.1437 564.175 41.9122 564.76 39.3545 567.409L37.0498 569.797L36.7881 572.59C36.6441 574.126 36.3312 576.245 36.0928 577.298C35.3544 580.56 36.493 584.104 38.2793 584.104C38.5433 584.104 38.7594 584.25 38.7598 584.428C38.7598 584.857 37.8398 585.191 36.6465 585.194C33.6124 585.201 31.171 588.745 33.0117 590.469C34.6851 592.036 36.7605 595.378 37.9033 598.345C39.4037 602.24 41.1239 604.035 43.3574 604.035C44.0839 604.035 43.9284 604.543 42.9092 605.501C41.148 607.156 39.6382 609.958 39.2519 612.007L38.876 614C38.8681 614 38.8292 614 38.7637 614L38.625 614.869C38.4997 615.653 37.7589 617.932 36.9785 619.935L35.5596 623.575C35.5596 623.575 34.934 627.081 36.4932 628.496C33.9031 628.242 34.349 628.241 32.5898 629.277C30.2895 630.633 30.6896 630.64 28.1982 633.696C26.9616 635.213 25.7336 636.585 25.4697 636.744C24.5703 637.287 24.99 637.67 28.3418 639.359C33.6326 642.026 36.2234 644.415 38.9648 649.159C40.8973 652.503 41.4597 652.753 41.9268 653.215C42.4278 653.71 43.0599 654.536 44.9873 654.371C43.6776 655.348 42.6483 657.163 42.5674 657.562C42.4866 657.961 42.818 660.109 42.3867 662.446L41.6025 666.696C41.6032 666.7 41.986 668.89 44.5478 670.023C41.7983 670.353 40.8323 670.85 40.6387 671.137C39.8693 672.274 39.7553 673.259 38.0996 676.042C37.2687 677.439 36.8341 678.557 36.1338 679.721C35.4372 680.879 36.9766 682.805 36.9932 682.826C36.9607 682.826 34.3582 682.801 33.5811 683.273C32.7993 683.749 32.1432 684.719 33.1133 685.786L35.0283 687.894L37.5283 687.956C38.9032 687.991 40.0833 688.036 40.1504 688.056C40.2171 688.076 39.769 688.776 39.1543 689.612C37.7605 691.508 37.7584 692.092 39.1426 694.342C42.4004 699.637 44.0362 708.141 43.0469 714.642C42.5936 717.62 42.5505 717.418 44.3564 720.729C44.5448 721.074 45.1957 721.567 45.7148 721.957C46.6882 722.688 45.3787 722.287 43.6592 723.148C42.4286 723.765 40.6436 724.382 39.5537 725.221C38.5163 726.02 36.0806 729.572 34.7812 730.89C32.6109 733.09 29.5125 735.544 25.3525 738.359C21.8043 740.761 21.6279 740.087 27.623 747.034C28.9713 748.597 31.0255 751.261 32.1885 752.955L34.3037 756.035L36.8945 755.928C39.9568 755.8 39.9148 755.699 37.8545 758.229C35.9678 760.545 35.9049 761.062 37.1289 764.186C38.2323 767.001 39.2629 768.175 40.6348 768.175C42.1437 768.175 41.9122 768.76 39.3545 771.409L37.0498 773.797L36.7881 776.59C36.6441 778.126 36.3312 780.245 36.0928 781.298C35.3544 784.56 36.493 788.104 38.2793 788.104C38.5433 788.104 38.7594 788.25 38.7598 788.428C38.7598 788.857 37.8398 789.191 36.6465 789.194C33.6124 789.201 31.171 792.745 33.0117 794.469C34.6851 796.036 36.7605 799.378 37.9033 802.345C39.4037 806.24 41.1239 808.035 43.3574 808.035C44.0839 808.035 43.9284 808.543 42.9092 809.501C41.148 811.156 39.6382 813.958 39.2519 816.007L38.876 818H26.8213C26.9364 817.906 27.8072 817.8 28.1143 817.665C31.9715 815.969 32.5674 809.767 29.4795 803.455C27.1717 798.738 24.8261 800.584 25.5049 806.584L25.7461 808.713L24.3242 808.155C21.4321 807.02 15.4476 817.992 15.4434 818H6.78808L6.57812 817.185C6.43153 816.616 6.09231 815.821 5.96582 815.372C5.83927 814.924 5.17607 814.13 4.49218 813.608C2.80105 812.319 2.92203 812.024 5.15039 812.006C7.67516 811.986 9.06021 811.176 10.7021 808.76C11.447 807.664 12.5615 806.184 13.1787 805.473C16.1959 801.994 21.0039 795.841 21.0039 795.46C21.0032 794.131 16.1564 791.94 13.1797 791.924L10.6094 791.909L11.0957 790.743C12.0781 788.389 11.7573 786.867 9.71484 784.201C6.96512 780.613 6.78733 780.495 4.13574 780.495C1.67886 780.495 0.816136 779.988 2.30761 779.421C4.09895 778.74 5.23181 775.673 4.71874 772.894C4.47872 771.593 4.18974 768.165 4.07714 765.275C3.84136 759.226 2.86226 756.522 0.621088 755.736C-0.38529 755.383 -0.115191 754.767 1.04589 754.767C2.48601 754.767 5.0755 752.734 5.9121 750.946C6.78419 749.083 9.30703 745.368 11.5605 742.628C13.7432 739.974 13.7285 740.449 11.7256 737.353C10.8075 735.933 9.50355 733.576 8.82812 732.114C7.49337 729.225 6.3661 728.314 4.12597 728.314H2.9414L4.41015 726.114C5.63929 724.274 5.81803 723.785 5.5039 723.125C3.63501 719.199 3.25175 711.056 4.75878 707.297C7.28891 700.986 7.49667 699.114 5.95605 696.506C5.09633 695.05 5.42688 694.724 7.0039 695.473C8.60911 696.234 9.63143 696.221 10.333 695.43C12.1394 693.391 13.7464 691.084 14.9863 688.75C15.761 687.292 17.0148 685.347 17.7715 684.43L19.1465 682.762L17.3564 680.082C14.3613 675.6 11.2329 673.235 8.29882 673.234C7.61776 673.234 7.60833 673.176 8.13085 672.166C8.83076 670.813 8.83641 668.139 8.1455 665.16C7.8494 663.883 7.29054 660.686 6.90429 658.056C6.21806 653.383 4.74624 649.681 3.57324 649.681C2.67574 649.681 3.44529 648.981 4.96972 648.411C7.28271 647.546 7.33875 647.49 9.44921 643.996C10.4629 642.318 11.8685 640.191 12.5723 639.269C13.5937 637.93 13.7703 637.477 13.4463 637.023C13.2229 636.711 12.6965 635.82 12.2773 635.044C10.035 630.898 7.88484 630.273 4.46093 628.727C3.27999 628.568 3.88447 628.326 4.72851 627.941C5.85533 627.427 7.33624 624.821 7.31933 623.382C7.31248 622.799 7.18498 620.325 7.03613 617.884L6.79882 614H6.78808L6.57812 613.185C6.43154 612.616 6.09231 611.821 5.96582 611.372C5.83927 610.924 5.17607 610.13 4.49218 609.608C2.80105 608.319 2.92203 608.024 5.15039 608.006C7.67515 607.986 9.06022 607.176 10.7021 604.76C11.447 603.664 12.5615 602.184 13.1787 601.473C16.1959 597.994 21.0039 591.841 21.0039 591.46C21.0032 590.131 16.1564 587.94 13.1797 587.924L10.6094 587.909L11.0957 586.743C12.0781 584.389 11.7573 582.867 9.71484 580.201C6.96512 576.613 6.78732 576.495 4.13574 576.495C1.67886 576.495 0.816136 575.988 2.30761 575.421C4.09895 574.74 5.23181 571.673 4.71874 568.894C4.47872 567.593 4.18974 564.165 4.07714 561.275C3.84136 555.226 2.86226 552.522 0.621088 551.736C-0.38529 551.383 -0.115191 550.767 1.04589 550.767C2.48601 550.767 5.07551 548.734 5.9121 546.946C6.78419 545.083 9.30703 541.368 11.5605 538.628C13.7432 535.974 13.7285 536.449 11.7256 533.353C10.8075 531.933 9.50355 529.576 8.82812 528.114C7.49337 525.225 6.36609 524.314 4.12597 524.314H2.9414L4.41015 522.114C5.63928 520.274 5.81803 519.785 5.5039 519.125C3.63501 515.199 3.25175 507.056 4.75878 503.297C7.28891 496.986 7.49666 495.114 5.95605 492.506C5.09633 491.05 5.42688 490.724 7.0039 491.473C8.60911 492.234 9.63143 492.221 10.333 491.43C12.1394 489.391 13.7464 487.084 14.9863 484.75C15.761 483.292 17.0148 481.347 17.7715 480.43L19.1465 478.762L17.3564 476.082C14.3613 471.6 11.2329 469.235 8.29882 469.234C7.61776 469.234 7.60833 469.176 8.13085 468.166C8.83075 466.813 8.83641 464.139 8.1455 461.16C7.8494 459.883 7.29054 456.686 6.90429 454.056C6.21806 449.383 4.74624 445.681 3.57324 445.681C2.67574 445.681 3.44529 444.981 4.96972 444.411C7.2827 443.546 7.33875 443.49 9.44921 439.996C10.4629 438.318 11.8685 436.191 12.5723 435.269C13.5937 433.93 13.7703 433.477 13.4463 433.023C13.2229 432.711 12.6965 431.82 12.2773 431.044C10.035 426.898 7.88484 426.273 4.46093 424.727C3.27999 424.568 3.88447 424.326 4.72851 423.941C5.85533 423.427 7.33624 420.821 7.31933 419.382C7.31248 418.799 7.18498 416.325 7.03613 413.884L6.84374 409H6.78808L6.57812 408.185C6.43153 407.616 6.09231 406.821 5.96582 406.372C5.83927 405.924 5.17607 405.13 4.49218 404.608C2.80105 403.319 2.92203 403.024 5.15039 403.006C7.67516 402.986 9.06021 402.176 10.7021 399.76C11.447 398.664 12.5615 397.184 13.1787 396.473C16.1959 392.994 21.0039 386.841 21.0039 386.46C21.0032 385.131 16.1564 382.94 13.1797 382.924L10.6094 382.909L11.0957 381.743C12.0781 379.389 11.7573 377.867 9.71484 375.201C6.96512 371.613 6.78733 371.495 4.13574 371.495C1.67886 371.495 0.816136 370.988 2.30761 370.421C4.09895 369.74 5.23181 366.673 4.71874 363.894C4.47872 362.593 4.18974 359.165 4.07714 356.275C3.84136 350.226 2.86226 347.522 0.621088 346.736C-0.38529 346.383 -0.115191 345.767 1.04589 345.767C2.48601 345.767 5.0755 343.734 5.9121 341.946C6.78419 340.083 9.30703 336.368 11.5605 333.628C13.7432 330.974 13.7285 331.449 11.7256 328.353C10.8075 326.933 9.50355 324.576 8.82812 323.114C7.49337 320.225 6.3661 319.314 4.12597 319.314H2.9414L4.41015 317.114C5.63929 315.274 5.81803 314.785 5.5039 314.125C3.63501 310.199 3.25175 302.056 4.75878 298.297C7.28891 291.986 7.49667 290.114 5.95605 287.506C5.09633 286.05 5.42688 285.724 7.0039 286.473C8.60911 287.234 9.63143 287.221 10.333 286.43C12.1394 284.391 13.7464 282.084 14.9863 279.75C15.761 278.292 17.0148 276.347 17.7715 275.43L19.1465 273.762L17.3564 271.082C14.3613 266.6 11.2329 264.235 8.29882 264.234C7.61776 264.234 7.60833 264.176 8.13085 263.166C8.83076 261.813 8.83641 259.139 8.1455 256.16C7.8494 254.883 7.29054 251.686 6.90429 249.056C6.21806 244.383 4.74624 240.681 3.57324 240.681C2.67574 240.681 3.44529 239.981 4.96972 239.411C7.28271 238.546 7.33875 238.49 9.44921 234.996C10.4629 233.318 11.8685 231.191 12.5723 230.269C13.5937 228.93 13.7703 228.477 13.4463 228.023C13.2229 227.711 12.6965 226.82 12.2773 226.044C10.035 221.898 7.88484 221.273 4.46093 219.727C3.27999 219.568 3.88447 219.326 4.72851 218.941C5.85533 218.427 7.33624 215.821 7.31933 214.382C7.31248 213.799 7.18498 211.325 7.03613 208.884L6.79882 205H6.78808L6.57812 204.185C6.43154 203.616 6.09231 202.821 5.96582 202.372C5.83927 201.924 5.17607 201.13 4.49218 200.608C2.80105 199.319 2.92203 199.024 5.15039 199.006C7.67515 198.986 9.06022 198.176 10.7021 195.76C11.447 194.664 12.5615 193.184 13.1787 192.473C16.1959 188.994 21.0039 182.841 21.0039 182.46C21.0032 181.131 16.1564 178.94 13.1797 178.924L10.6094 178.909L11.0957 177.743C12.0781 175.389 11.7573 173.867 9.71484 171.201C6.96512 167.613 6.78732 167.495 4.13574 167.495C1.67886 167.495 0.816136 166.988 2.30761 166.421C4.09895 165.74 5.23181 162.673 4.71874 159.894C4.47872 158.593 4.18974 155.165 4.07714 152.275C3.84136 146.226 2.86226 143.522 0.621088 142.736C-0.38529 142.383 -0.115191 141.767 1.04589 141.767C2.48601 141.767 5.07551 139.734 5.9121 137.946C6.78419 136.083 9.30703 132.368 11.5605 129.628C13.7432 126.974 13.7285 127.449 11.7256 124.353C10.8075 122.933 9.50355 120.576 8.82812 119.114C7.49337 116.225 6.36609 115.314 4.12597 115.314H2.9414L4.41015 113.114C5.63928 111.274 5.81803 110.785 5.5039 110.125C3.63501 106.199 3.25175 98.0559 4.75878 94.2969C7.28891 87.9859 7.49666 86.1139 5.95605 83.5059C5.09633 82.0504 5.42688 81.7244 7.0039 82.4727C8.60911 83.2344 9.63143 83.2213 10.333 82.4297C12.1394 80.3914 13.7464 78.0841 14.9863 75.75C15.761 74.2918 17.0148 72.3475 17.7715 71.4297L19.1465 69.7617L17.3564 67.082C14.3613 62.6 11.2329 60.2346 8.29882 60.2344C7.61776 60.2344 7.60833 60.1764 8.13085 59.166C8.83075 57.8126 8.83641 55.1394 8.1455 52.1602C7.8494 50.8832 7.29054 47.6862 6.90429 45.0557C6.21806 40.3825 4.74624 36.6814 3.57324 36.6807C2.67574 36.6807 3.44529 35.9813 4.96972 35.4111C7.2827 34.5461 7.33875 34.4901 9.44921 30.9961C10.4629 29.3179 11.8685 27.1906 12.5723 26.2686C13.5937 24.9304 13.7703 24.4775 13.4463 24.0234C13.2229 23.7106 12.6965 22.8196 12.2773 22.0439C10.035 17.8981 7.88484 17.2734 4.46093 15.7266C3.27999 15.5683 3.88447 15.326 4.72851 14.9414C5.85533 14.4273 7.33624 11.8213 7.31933 10.3818C7.31248 9.79936 7.18498 7.3251 7.03613 4.88379L6.84374 0H15.5L18.1728 3.2627L17.0576 3.9209C14.1118 5.66132 14.4504 9.9493 18.0986 17.1006C19.2556 19.3685 19.1413 19.4496 24.0391 12.9463C29.3851 5.84773 29.8168 4.61272 27.8867 1.94824L26.876 0H38.9307L38.625 1.86914C38.4997 2.65273 37.7589 4.93218 36.9785 6.93457L35.5596 10.5752C35.5596 10.5752 34.934 14.0805 36.4932 15.4961C33.9031 15.2418 34.3489 15.2407 32.5898 16.2773C30.2895 17.6329 30.6896 17.6403 28.1982 20.6963C26.9616 22.2132 25.7336 23.5847 25.4697 23.7441C24.5703 24.2874 24.99 24.6701 28.3418 26.3594C33.6326 29.0259 36.2234 31.4152 38.9648 36.1592C40.8973 39.5033 41.4597 39.7534 41.9268 40.2148C42.4278 40.71 43.0599 41.5356 44.9873 41.3711C43.6776 42.348 42.6483 44.1629 42.5674 44.5615C42.4866 44.9607 42.818 47.1093 42.3867 49.4463L41.6025 53.6963C41.6033 53.7005 41.9864 55.8901 44.5478 57.0234C41.7984 57.3528 40.8323 57.8505 40.6387 58.1367C39.8693 59.2745 39.7553 60.2589 38.0996 63.042C37.2687 64.4387 36.8341 65.5566 36.1338 66.7207C35.4372 67.8787 36.9766 69.8055 36.9932 69.8262C36.9607 69.8258 34.3582 69.8013 33.5811 70.2734C32.7993 70.7486 32.1432 71.7187 33.1133 72.7861L35.0283 74.8936L37.5283 74.9561C38.9032 74.9906 40.0833 75.0357 40.1504 75.0557C40.217 75.0761 39.769 75.7764 39.1543 76.6123C37.7605 78.5076 37.7584 79.0917 39.1426 81.3418C42.4004 86.6365 44.0362 95.1407 43.0469 101.642C42.5936 104.62 42.5505 104.418 44.3564 107.729C44.5448 108.074 45.1957 108.567 45.7148 108.957C46.6882 109.688 45.3787 109.287 43.6592 110.148C42.4286 110.765 40.6436 111.382 39.5537 112.221C38.5163 113.02 36.0806 116.572 34.7812 117.89C32.6109 120.09 29.5125 122.544 25.3525 125.359C21.8043 127.761 21.6279 127.087 27.623 134.034C28.9713 135.597 31.0255 138.261 32.1885 139.955L34.3037 143.035L36.8945 142.928C39.9568 142.8 39.9148 142.699 37.8545 145.229C35.9678 147.545 35.9049 148.062 37.1289 151.186C38.2323 154.001 39.2629 155.175 40.6348 155.175C42.1437 155.175 41.9122 155.76 39.3545 158.409L37.0498 160.797L36.7881 163.59C36.6441 165.126 36.3312 167.245 36.0928 168.298C35.3544 171.56 36.493 175.104 38.2793 175.104C38.5433 175.104 38.7594 175.25 38.7598 175.428C38.7598 175.857 37.8398 176.191 36.6465 176.194C33.6124 176.201 31.171 179.745 33.0117 181.469C34.6851 183.036 36.7605 186.378 37.9033 189.345C39.4037 193.24 41.1239 195.035 43.3574 195.035C44.0839 195.035 43.9284 195.543 42.9092 196.501C41.148 198.156 39.6382 200.958 39.2519 203.007L38.876 205C38.8681 205 38.8292 205 38.7637 205L38.625 205.869C38.4997 206.653 37.7589 208.932 36.9785 210.935L35.5596 214.575C35.5596 214.575 34.934 218.081 36.4932 219.496C33.9031 219.242 34.349 219.241 32.5898 220.277C30.2895 221.633 30.6896 221.64 28.1982 224.696C26.9616 226.213 25.7336 227.585 25.4697 227.744C24.5703 228.287 24.99 228.67 28.3418 230.359C33.6326 233.026 36.2234 235.415 38.9648 240.159C40.8973 243.503 41.4597 243.753 41.9268 244.215C42.4278 244.71 43.0599 245.536 44.9873 245.371C43.6776 246.348 42.6483 248.163 42.5674 248.562C42.4866 248.961 42.818 251.109 42.3867 253.446L41.6025 257.696C41.6032 257.7 41.986 259.89 44.5478 261.023C41.7983 261.353 40.8323 261.85 40.6387 262.137C39.8693 263.274 39.7553 264.259 38.0996 267.042C37.2687 268.439 36.8341 269.557 36.1338 270.721C35.4372 271.879 36.9766 273.805 36.9932 273.826C36.9607 273.826 34.3582 273.801 33.5811 274.273C32.7993 274.749 32.1432 275.719 33.1133 276.786L35.0283 278.894L37.5283 278.956C38.9032 278.991 40.0833 279.036 40.1504 279.056C40.2171 279.076 39.769 279.776 39.1543 280.612C37.7605 282.508 37.7584 283.092 39.1426 285.342C42.4004 290.637 44.0362 299.141 43.0469 305.642C42.5936 308.62 42.5505 308.418 44.3564 311.729C44.5448 312.074 45.1957 312.567 45.7148 312.957C46.6882 313.688 45.3787 313.287 43.6592 314.148C42.4286 314.765 40.6436 315.382 39.5537 316.221C38.5163 317.02 36.0806 320.572 34.7812 321.89C32.6109 324.09 29.5125 326.544 25.3525 329.359C21.8043 331.761 21.6279 331.087 27.623 338.034C28.9713 339.597 31.0255 342.261 32.1885 343.955L34.3037 347.035L36.8945 346.928C39.9568 346.8 39.9148 346.699 37.8545 349.229C35.9678 351.545 35.9049 352.062 37.1289 355.186C38.2323 358.001 39.2629 359.175 40.6348 359.175C42.1437 359.175 41.9122 359.76 39.3545 362.409L37.0498 364.797L36.7881 367.59C36.6441 369.126 36.3312 371.245 36.0928 372.298C35.3544 375.56 36.493 379.104 38.2793 379.104C38.5433 379.104 38.7594 379.25 38.7598 379.428C38.7598 379.857 37.8398 380.191 36.6465 380.194C33.6124 380.201 31.171 383.745 33.0117 385.469C34.6851 387.036 36.7605 390.378 37.9033 393.345C39.4037 397.24 41.1239 399.035 43.3574 399.035C44.0839 399.035 43.9284 399.543 42.9092 400.501C41.148 402.156 39.6382 404.958 39.2519 407.007L38.876 409H38.9307L38.625 410.869ZM18.1728 412.263L17.0576 412.921C14.1118 414.661 14.4504 418.949 18.0986 426.101C19.2556 428.369 19.1413 428.45 24.0391 421.946C29.3851 414.848 29.8168 413.613 27.8867 410.948L26.876 409H26.8213C26.9364 408.906 27.8072 408.8 28.1143 408.665C31.9715 406.969 32.5674 400.767 29.4795 394.455C27.1717 389.738 24.8261 391.584 25.5049 397.584L25.7461 399.713L24.3242 399.155C21.4321 398.02 15.4476 408.992 15.4434 409H15.5L18.1728 412.263ZM19.5312 748.924C18.5176 746.937 18.3087 746.965 17.0977 749.248C16.492 750.39 15.5737 752.123 15.0576 753.1C14.5415 754.076 14.1191 755.126 14.1191 755.432C14.1188 755.738 13.773 756.703 13.3506 757.575C11.4349 761.533 12.1835 765.134 15.0176 765.595C16.9489 765.909 16.9748 766.506 15.0957 767.416C11.9196 768.954 11.6441 771.707 14.1367 777.01C15.7822 780.51 25.3934 788.733 25.9521 787.119C26.0747 786.764 26.4789 785.76 26.8506 784.888C27.8973 782.431 26.442 779.308 23.8701 778.491C22.9428 778.197 22.9893 777.596 23.9394 777.596C28.1424 777.595 30.089 772.323 28.5547 765.095C28.0796 762.857 27.1798 761.185 24.5088 757.579C22.2844 754.576 21.5971 754.181 19.1709 754.507C17.5882 754.719 17.4337 754.516 18.3857 753.477C19.9366 751.783 20.2844 750.4 19.5312 748.924ZM23.6338 690.865C22.1477 691.711 22.1555 691.789 23.9033 693.485C25.8149 695.341 25.7442 695.548 23.206 695.533C20.644 695.518 19.5931 696.155 17.8105 698.808C17.1504 699.79 15.9273 701.396 15.0928 702.377C12.8116 705.058 12.738 705.173 12.1152 707.007C11.3888 709.146 11.7696 709.991 13.874 710.907C15.1694 711.471 15.2833 711.603 14.6631 711.82C13.3859 712.267 12.5146 712.756 11.417 713.644L10.3457 714.51L10.7998 717.652C11.2451 720.732 12.5899 724.351 14.0576 726.419C14.4437 726.963 15.374 728.55 16.125 729.945C16.876 731.34 17.8753 733.092 18.3447 733.838L19.1982 735.193L21.3564 733.656C24.1297 731.681 24.954 729.496 23.8447 727.062C23.2987 725.863 23.621 725.576 24.7109 726.29C25.1898 726.604 26.327 726.963 27.2383 727.088L28.8955 727.314L30.6934 724.644C34.2669 719.334 35.7718 710.045 33.415 707.846C32.867 707.334 31.7667 706.728 30.9697 706.498C29.06 705.947 29.0864 706.002 30.1924 704.896C30.7222 704.366 31.4892 703.391 31.8975 702.73L32.6406 701.529L31.7685 699.975C30.2649 697.291 27.6255 693.409 26.1894 691.771L24.8086 690.196L23.6338 690.865ZM18.2002 644.864C15.1081 648.486 14.6087 652.582 16.9766 654.895L18.3838 656.269L16.7949 657.857C14.9901 659.662 14.9123 660.126 15.8105 663.738C17.509 670.568 28.9761 678.374 28.9766 672.7C28.9766 671.627 28.5739 671.12 28.2432 670.509C27.5609 669.248 27.1725 669.419 29.2471 669.395C31.4691 669.368 33.2323 668.389 33.6924 666.763C35.2398 661.292 35.3728 658.821 34.2402 656.586C33.0946 654.325 31.8297 653.441 29.2812 653.123L27.2402 652.868L27.4277 650.791C27.6885 647.915 27.3473 647.486 23.0957 645.355L19.374 643.49L18.2002 644.864ZM29.4795 599.455C27.1717 594.738 24.8261 596.584 25.5049 602.584L25.7461 604.713L24.3242 604.155C21.7356 603.139 16.6705 611.823 15.6328 613.662L16.7978 614.854L18.1728 616.263L17.0576 616.921C14.1118 618.661 14.4504 622.949 18.0986 630.101C19.2556 632.369 19.1413 632.45 24.0391 625.946C29.3851 618.848 29.8169 617.613 27.8867 614.948L27.1992 614C26.9939 614 26.8601 614 26.8213 614C26.8589 613.969 26.9777 613.939 27.1309 613.905L26.7978 613.444H28.5518C32.0119 611.482 32.4465 605.52 29.4795 599.455ZM19.5312 544.924C18.5176 542.937 18.3087 542.965 17.0977 545.248C16.492 546.39 15.5737 548.123 15.0576 549.1C14.5415 550.076 14.1191 551.126 14.1191 551.432C14.1188 551.738 13.773 552.703 13.3506 553.575C11.4349 557.533 12.1835 561.134 15.0176 561.595C16.9488 561.909 16.9748 562.506 15.0957 563.416C11.9196 564.954 11.6441 567.707 14.1367 573.01C15.7822 576.51 25.3934 584.733 25.9521 583.119C26.0747 582.764 26.4789 581.76 26.8506 580.888C27.8973 578.431 26.442 575.308 23.8701 574.491C22.9428 574.197 22.9893 573.596 23.9394 573.596C28.1424 573.595 30.089 568.323 28.5547 561.095C28.0796 558.857 27.1798 557.185 24.5088 553.579C22.2844 550.576 21.5971 550.181 19.1709 550.507C17.5882 550.719 17.4337 550.516 18.3857 549.477C19.9366 547.783 20.2844 546.4 19.5312 544.924ZM23.6338 486.865C22.1477 487.711 22.1555 487.789 23.9033 489.485C25.8149 491.341 25.7442 491.548 23.206 491.533C20.644 491.518 19.5931 492.155 17.8105 494.808C17.1504 495.79 15.9273 497.396 15.0928 498.377C12.8116 501.058 12.738 501.173 12.1152 503.007C11.3888 505.146 11.7696 505.991 13.874 506.907C15.1694 507.471 15.2833 507.603 14.6631 507.82C13.3859 508.267 12.5146 508.756 11.417 509.644L10.3457 510.51L10.7998 513.652C11.2451 516.732 12.5899 520.351 14.0576 522.419C14.4437 522.963 15.374 524.55 16.125 525.945C16.876 527.34 17.8753 529.092 18.3447 529.838L19.1982 531.193L21.3564 529.656C24.1297 527.681 24.954 525.496 23.8447 523.062C23.2987 521.863 23.621 521.576 24.7109 522.29C25.1898 522.604 26.327 522.963 27.2383 523.088L28.8955 523.314L30.6934 520.644C34.2669 515.334 35.7718 506.045 33.415 503.846C32.867 503.334 31.7667 502.728 30.9697 502.498C29.06 501.947 29.0864 502.002 30.1924 500.896C30.7222 500.366 31.4892 499.391 31.8975 498.73L32.6406 497.529L31.7685 495.975C30.2649 493.291 27.6255 489.409 26.1894 487.771L24.8086 486.196L23.6338 486.865ZM18.2002 440.864C15.1081 444.486 14.6087 448.582 16.9766 450.895L18.3838 452.269L16.7949 453.857C14.9901 455.662 14.9123 456.126 15.8105 459.738C17.509 466.568 28.9761 474.374 28.9766 468.7C28.9766 467.627 28.5739 467.12 28.2432 466.509C27.5609 465.248 27.1725 465.419 29.2471 465.395C31.4691 465.368 33.2323 464.389 33.6924 462.763C35.2398 457.292 35.3727 454.821 34.2402 452.586C33.0946 450.325 31.8297 449.441 29.2812 449.123L27.2402 448.868L27.4277 446.791C27.6885 443.915 27.3473 443.486 23.0957 441.355L19.374 439.49L18.2002 440.864ZM19.5312 339.924C18.5176 337.937 18.3087 337.965 17.0977 340.248C16.492 341.39 15.5737 343.123 15.0576 344.1C14.5415 345.076 14.1191 346.126 14.1191 346.432C14.1188 346.738 13.773 347.703 13.3506 348.575C11.4349 352.533 12.1835 356.134 15.0176 356.595C16.9489 356.909 16.9748 357.506 15.0957 358.416C11.9196 359.954 11.6441 362.707 14.1367 368.01C15.7822 371.51 25.3934 379.733 25.9521 378.119C26.0747 377.764 26.4789 376.76 26.8506 375.888C27.8973 373.431 26.442 370.308 23.8701 369.491C22.9428 369.197 22.9893 368.596 23.9394 368.596C28.1424 368.595 30.089 363.323 28.5547 356.095C28.0796 353.857 27.1798 352.185 24.5088 348.579C22.2844 345.576 21.5971 345.181 19.1709 345.507C17.5882 345.719 17.4337 345.516 18.3857 344.477C19.9366 342.783 20.2844 341.4 19.5312 339.924ZM23.6338 281.865C22.1477 282.711 22.1555 282.789 23.9033 284.485C25.8149 286.341 25.7442 286.548 23.206 286.533C20.644 286.518 19.5931 287.155 17.8105 289.808C17.1504 290.79 15.9273 292.396 15.0928 293.377C12.8116 296.058 12.738 296.173 12.1152 298.007C11.3888 300.146 11.7696 300.991 13.874 301.907C15.1694 302.471 15.2833 302.603 14.6631 302.82C13.3859 303.267 12.5146 303.756 11.417 304.644L10.3457 305.51L10.7998 308.652C11.2451 311.732 12.5899 315.351 14.0576 317.419C14.4437 317.963 15.374 319.55 16.125 320.945C16.876 322.34 17.8753 324.092 18.3447 324.838L19.1982 326.193L21.3564 324.656C24.1297 322.681 24.954 320.496 23.8447 318.062C23.2987 316.863 23.621 316.576 24.7109 317.29C25.1898 317.604 26.327 317.963 27.2383 318.088L28.8955 318.314L30.6934 315.644C34.2669 310.334 35.7718 301.045 33.415 298.846C32.867 298.334 31.7667 297.728 30.9697 297.498C29.06 296.947 29.0864 297.002 30.1924 295.896C30.7222 295.366 31.4892 294.391 31.8975 293.73L32.6406 292.529L31.7685 290.975C30.2649 288.291 27.6255 284.409 26.1894 282.771L24.8086 281.196L23.6338 281.865ZM18.2002 235.864C15.1081 239.486 14.6087 243.582 16.9766 245.895L18.3838 247.269L16.7949 248.857C14.9901 250.662 14.9123 251.126 15.8105 254.738C17.509 261.568 28.9761 269.374 28.9766 263.7C28.9766 262.627 28.5739 262.12 28.2432 261.509C27.5609 260.248 27.1725 260.419 29.2471 260.395C31.4691 260.368 33.2323 259.389 33.6924 257.763C35.2398 252.292 35.3728 249.821 34.2402 247.586C33.0946 245.325 31.8297 244.441 29.2812 244.123L27.2402 243.868L27.4277 241.791C27.6885 238.915 27.3473 238.486 23.0957 236.355L19.374 234.49L18.2002 235.864ZM29.4795 190.455C27.1717 185.738 24.8261 187.584 25.5049 193.584L25.7461 195.713L24.3242 195.155C21.7356 194.139 16.6705 202.823 15.6328 204.662L16.7978 205.854L18.1728 207.263L17.0576 207.921C14.1118 209.661 14.4504 213.949 18.0986 221.101C19.2556 223.369 19.1413 223.45 24.0391 216.946C29.3851 209.848 29.8169 208.613 27.8867 205.948L27.1992 205C26.9939 205 26.8601 205 26.8213 205C26.8589 204.969 26.9777 204.939 27.1309 204.905L26.7978 204.444H28.5518C32.0119 202.482 32.4465 196.52 29.4795 190.455ZM19.5312 135.924C18.5176 133.937 18.3087 133.965 17.0977 136.248C16.492 137.39 15.5737 139.123 15.0576 140.1C14.5415 141.076 14.1191 142.126 14.1191 142.432C14.1188 142.738 13.773 143.703 13.3506 144.575C11.4349 148.533 12.1835 152.134 15.0176 152.595C16.9488 152.909 16.9748 153.506 15.0957 154.416C11.9196 155.954 11.6441 158.707 14.1367 164.01C15.7822 167.51 25.3934 175.733 25.9521 174.119C26.0747 173.764 26.4789 172.76 26.8506 171.888C27.8973 169.431 26.442 166.308 23.8701 165.491C22.9428 165.197 22.9893 164.596 23.9394 164.596C28.1424 164.595 30.089 159.323 28.5547 152.095C28.0796 149.857 27.1798 148.185 24.5088 144.579C22.2844 141.576 21.5971 141.181 19.1709 141.507C17.5882 141.719 17.4337 141.516 18.3857 140.477C19.9366 138.783 20.2844 137.4 19.5312 135.924ZM23.6338 77.8652C22.1477 78.7114 22.1555 78.7891 23.9033 80.4854C25.8149 82.3405 25.7442 82.5482 23.206 82.5332C20.644 82.518 19.5931 83.1554 17.8105 85.8076C17.1504 86.7898 15.9273 88.3962 15.0928 89.377C12.8116 92.0577 12.738 92.1729 12.1152 94.0068C11.3888 96.1461 11.7696 96.9906 13.874 97.9072C15.1694 98.4715 15.2833 98.6034 14.6631 98.8203C13.3859 99.2669 12.5146 99.756 11.417 100.644L10.3457 101.51L10.7998 104.652C11.2451 107.732 12.5899 111.351 14.0576 113.419C14.4437 113.963 15.374 115.55 16.125 116.945C16.876 118.34 17.8753 120.092 18.3447 120.838L19.1982 122.193L21.3564 120.656C24.1297 118.681 24.954 116.496 23.8447 114.062C23.2987 112.863 23.621 112.576 24.7109 113.29C25.1898 113.604 26.327 113.963 27.2383 114.088L28.8955 114.314L30.6934 111.644C34.2669 106.334 35.7718 97.0447 33.415 94.8457C32.867 94.3345 31.7667 93.7283 30.9697 93.498C29.06 92.9467 29.0864 93.0015 30.1924 91.8955C30.7222 91.3656 31.4892 90.391 31.8975 89.7305L32.6406 88.5293L31.7685 86.9746C30.2649 84.2909 27.6255 80.4088 26.1894 78.7705L24.8086 77.1963L23.6338 77.8652ZM18.2002 31.8643C15.1081 35.486 14.6087 39.5824 16.9766 41.8945L18.3838 43.2686L16.7949 44.8574C14.9901 46.6623 14.9123 47.1263 15.8105 50.7383C17.509 57.5684 28.9761 65.3738 28.9766 59.7002C28.9766 58.6272 28.5739 58.1202 28.2432 57.5088C27.5609 56.2476 27.1725 56.4188 29.2471 56.3945C31.4691 56.3684 33.2323 55.3891 33.6924 53.7627C35.2398 48.2919 35.3727 45.821 34.2402 43.5859C33.0946 41.3251 31.8297 40.4415 29.2812 40.123L27.2402 39.8682L27.4277 37.791C27.6885 34.9148 27.3473 34.4861 23.0957 32.3555L19.374 30.4902L18.2002 31.8643Z" fill="url(#paint0_linear_2359_692)" stroke="#4C30A1" stroke-width="2" mask="url(#path-1-inside-1_2359_692)"/>
<defs>
<linearGradient id="paint0_linear_2359_692" x1="23.0236" y1="0" x2="23.0236" y2="818" gradientUnits="userSpaceOnUse">
<stop stop-color="#4C30A1"/>
<stop offset="0.524038" stop-color="#000B32"/>
<stop offset="1" stop-color="#4C30A1"/>
</linearGradient>
</defs>
</svg>
