<svg width="47" height="817" viewBox="0 0 47 817" fill="none" xmlns="http://www.w3.org/2000/svg">
<path fill-rule="evenodd" clip-rule="evenodd" d="M1.04586 141.322C-0.115221 141.322 -0.385319 141.939 0.621059 142.292C2.86224 143.078 3.84133 145.781 4.07711 151.831C4.18971 154.721 4.47869 158.149 4.71872 159.449C5.23178 162.228 4.09892 165.295 2.30758 165.977C0.816107 166.544 1.67884 167.051 4.13571 167.051C6.78731 167.051 6.96509 167.168 9.71481 170.757C11.7573 173.422 12.0781 174.945 11.0957 177.299L10.6093 178.465L13.1797 178.479C16.1564 178.496 21.0032 180.686 21.0039 182.016C21.0039 182.397 16.1959 188.549 13.1787 192.028C12.5615 192.74 11.4469 194.219 10.7021 195.315C9.06019 197.732 7.67513 198.541 5.15036 198.562C2.922 198.579 2.80102 198.874 4.49216 200.164C5.17605 200.686 5.83924 201.479 5.96579 201.928C6.02134 202.125 6.11792 202.389 6.22119 202.671C6.35308 203.031 6.49588 203.421 6.57809 203.74L6.78805 204.556L6.7988 204.556L7.0361 208.439C7.18495 210.881 7.31246 213.355 7.3193 213.937C7.33621 215.377 5.8553 217.983 4.72848 218.497L4.61825 218.547C3.83457 218.903 3.33209 219.131 4.46091 219.282C4.78124 219.427 5.09043 219.564 5.38958 219.696C8.28796 220.977 10.2448 221.842 12.2773 225.6C12.6965 226.375 13.2229 227.266 13.4463 227.579C13.7702 228.033 13.5937 228.486 12.5722 229.824C11.8684 230.746 10.4628 232.874 9.44919 234.552C7.33872 238.046 7.28269 238.102 4.9697 238.967C3.44527 239.537 2.67572 240.236 3.57321 240.236C4.74622 240.237 6.21803 243.938 6.90427 248.611C7.29051 251.242 7.84937 254.439 8.14548 255.716C8.83638 258.695 8.83073 261.368 8.13083 262.722C7.60831 263.732 7.61773 263.79 8.2988 263.79C11.2329 263.79 14.3612 266.156 17.3564 270.638L19.1465 273.317L17.7715 274.985C17.0147 275.903 15.7609 277.848 14.9863 279.306C13.7463 281.64 12.1394 283.947 10.333 285.985C9.6314 286.777 8.60909 286.79 7.00388 286.028C5.42686 285.28 5.09631 285.606 5.95603 287.062C7.49665 289.67 7.28889 291.542 4.75876 297.853C3.25173 301.612 3.63499 309.754 5.50388 313.681C5.81801 314.341 5.63927 314.829 4.41013 316.67L2.94138 318.87L4.12595 318.87C6.36608 318.87 7.49334 319.781 8.8281 322.67C9.50353 324.132 10.8075 326.489 11.7256 327.908C12.7492 329.491 13.2535 330.14 13.2106 330.751C13.1696 331.336 12.6277 331.886 11.5605 333.184C9.30701 335.924 6.78417 339.639 5.91208 341.502C5.07548 343.289 2.48599 345.322 1.04587 345.322C-0.115212 345.322 -0.38531 345.939 0.621068 346.292C2.86225 347.078 3.84134 349.781 4.07712 355.831C4.18972 358.721 4.4787 362.149 4.71872 363.449C5.23179 366.228 4.09893 369.295 2.30759 369.977C0.816116 370.544 1.67884 371.051 4.13572 371.051C6.78732 371.051 6.9651 371.168 9.71482 374.757C11.7573 377.422 12.0781 378.945 11.0957 381.299L10.6094 382.465L13.1797 382.479C16.1564 382.496 21.0032 384.686 21.0039 386.016C21.0039 386.397 16.1959 392.549 13.1787 396.028C12.5615 396.74 11.447 398.219 10.7021 399.315C9.0602 401.732 7.67514 402.541 5.15037 402.562C2.92201 402.579 2.80103 402.874 4.49216 404.164C5.17606 404.686 5.83925 405.479 5.9658 405.928C6.02135 406.125 6.11793 406.389 6.2212 406.671C6.35309 407.031 6.49589 407.421 6.5781 407.74L6.78806 408.556L6.79881 408.556L7.03611 412.439C7.18496 414.881 7.31247 417.355 7.31931 417.937C7.33622 419.377 5.85531 421.983 4.72849 422.497L4.61835 422.547C3.83461 422.903 3.33206 423.131 4.46092 423.282C4.78123 423.427 5.0904 423.564 5.38954 423.696C8.28795 424.977 10.2448 425.842 12.2773 429.6C12.6965 430.375 13.2229 431.266 13.4463 431.579C13.7703 432.033 13.5937 432.486 12.5722 433.824C11.8685 434.746 10.4628 436.874 9.4492 438.552C7.33873 442.046 7.2827 442.102 4.9697 442.967C3.44528 443.537 2.67573 444.236 3.57322 444.236C4.74623 444.237 6.21804 447.938 6.90428 452.611C7.29052 455.242 7.84938 458.439 8.14549 459.716C8.83639 462.695 8.83074 465.368 8.13084 466.722C7.60832 467.732 7.61774 467.79 8.29881 467.79C11.2329 467.79 14.3612 470.156 17.3564 474.638L19.1465 477.317L17.7715 478.985C17.0147 479.903 15.7609 481.848 14.9863 483.306C13.7464 485.64 12.1394 487.947 10.333 489.985C9.63141 490.777 8.6091 490.79 7.00389 490.028C5.42687 489.28 5.09632 489.606 5.95604 491.062C7.49665 493.67 7.2889 495.542 4.75877 501.853C3.25174 505.612 3.635 513.754 5.50389 517.681C5.81802 518.341 5.63928 518.829 4.41014 520.67L2.94139 522.87L4.12596 522.87C6.36609 522.87 7.49335 523.781 8.82811 526.67C9.50354 528.132 10.8075 530.489 11.7256 531.908C12.7492 533.491 13.2535 534.14 13.2106 534.751C13.1696 535.336 12.6277 535.886 11.5605 537.184C9.30702 539.924 6.78418 543.639 5.91209 545.502C5.07549 547.289 2.486 549.322 1.04588 549.322C-0.115203 549.322 -0.385301 549.939 0.621077 550.292C2.86225 551.078 3.84135 553.781 4.07713 559.831C4.18973 562.721 4.47871 566.149 4.71873 567.449C5.2318 570.228 4.09894 573.295 2.3076 573.977C0.816125 574.544 1.67885 575.051 4.13573 575.051C6.78732 575.051 6.96511 575.168 9.71483 578.757C11.7573 581.422 12.0781 582.945 11.0957 585.299L10.6094 586.465L13.1797 586.479C16.1564 586.496 21.0032 588.686 21.0039 590.016C21.0039 590.397 16.1959 596.549 13.1787 600.028C12.5615 600.74 11.447 602.219 10.7021 603.315C9.0602 605.732 7.67515 606.541 5.15038 606.562C2.92202 606.579 2.80104 606.874 4.49217 608.164C5.17606 608.686 5.83926 609.479 5.96581 609.928C6.02136 610.125 6.11794 610.389 6.22122 610.671C6.3531 611.031 6.4959 611.421 6.57811 611.74L6.78807 612.556L6.79881 612.556L7.03612 616.439C7.18497 618.881 7.31247 621.355 7.31932 621.937C7.33623 623.377 5.85532 625.983 4.7285 626.497C4.6913 626.514 4.65457 626.531 4.61844 626.547C3.83465 626.903 3.33203 627.131 4.46092 627.282C4.78126 627.427 5.09045 627.564 5.3896 627.696C8.28798 628.977 10.2448 629.842 12.2773 633.6C12.6965 634.375 13.2229 635.266 13.4463 635.579C13.7703 636.033 13.5937 636.486 12.5723 637.824C11.8685 638.746 10.4629 640.874 9.44921 642.552C7.33874 646.046 7.28271 646.102 4.96971 646.967C3.44529 647.537 2.67574 648.236 3.57323 648.236C4.74624 648.237 6.21805 651.938 6.90428 656.611C7.29053 659.242 7.84939 662.439 8.1455 663.716C8.8364 666.695 8.83075 669.368 8.13085 670.722C7.60833 671.732 7.61775 671.79 8.29882 671.79C11.2329 671.79 14.3613 674.156 17.3564 678.638L19.1465 681.317L17.7715 682.985C17.0148 683.903 15.7609 685.848 14.9863 687.306C13.7464 689.64 12.1394 691.947 10.333 693.985C9.63142 694.777 8.60911 694.79 7.0039 694.028C5.42688 693.28 5.09633 693.606 5.95604 695.062C7.49666 697.67 7.2889 699.542 4.75878 705.853C3.25174 709.612 3.63501 717.754 5.5039 721.681C5.81803 722.341 5.63929 722.829 4.41015 724.67L2.9414 726.87L4.12597 726.87C6.3661 726.87 7.49336 727.781 8.82812 730.67C9.50355 732.132 10.8075 734.489 11.7256 735.908C12.7492 737.49 13.2535 738.14 13.2106 738.751C13.1696 739.336 12.6277 739.886 11.5605 741.184C9.30703 743.924 6.78419 747.639 5.9121 749.502C5.0755 751.289 2.48601 753.322 1.04589 753.322C-0.115194 753.322 -0.385292 753.939 0.621086 754.292C2.86226 755.078 3.84136 757.781 4.07714 763.831C4.18973 766.721 4.47871 770.149 4.71874 771.449C5.23181 774.228 4.09895 777.295 2.30761 777.977C0.816134 778.544 1.67886 779.051 4.13574 779.051C6.78733 779.051 6.96512 779.168 9.71484 782.757C11.7573 785.422 12.0781 786.945 11.0957 789.299L10.6094 790.465L13.1797 790.479C16.1564 790.496 21.0032 792.686 21.0039 794.016C21.0039 794.397 16.1959 800.549 13.1787 804.028C12.5615 804.74 11.447 806.219 10.7021 807.315C9.06021 809.732 7.67516 810.541 5.15039 810.562C2.92203 810.579 2.80105 810.874 4.49218 812.164C5.17607 812.686 5.83927 813.479 5.96581 813.928C6.02137 814.125 6.11795 814.389 6.22123 814.671C6.35311 815.031 6.49591 815.421 6.57812 815.74L6.78808 816.556L15.4434 816.556C15.4478 816.547 21.4322 805.576 24.3242 806.711L25.7461 807.269L25.5049 805.14C24.8261 799.14 27.1717 797.294 29.4795 802.011C32.5674 808.323 31.9715 814.524 28.1143 816.221C27.9599 816.289 27.6632 816.349 27.3915 816.404C27.1227 816.459 26.8785 816.509 26.8213 816.556L38.876 816.556L39.2519 814.562C39.6382 812.514 41.148 809.711 42.9092 808.057C43.9284 807.099 44.0839 806.591 43.3574 806.591C41.1239 806.591 39.4037 804.795 37.9033 800.9C36.7605 797.933 34.6851 794.592 33.0117 793.024C31.171 791.3 33.6124 787.757 36.6465 787.75C37.8398 787.747 38.7598 787.413 38.7598 786.983C38.7594 786.806 38.5433 786.66 38.2793 786.66C36.493 786.66 35.3544 783.116 36.0928 779.854C36.3312 778.8 36.6441 776.682 36.7881 775.146L37.0498 772.353L39.3545 769.965C41.9122 767.315 42.1437 766.73 40.6348 766.73C39.2629 766.73 38.2323 765.557 37.1289 762.741C35.9049 759.618 35.9678 759.101 37.8545 756.784C38.9007 755.5 39.4265 754.894 39.2896 754.625C39.157 754.364 38.4018 754.421 36.8945 754.483L34.3037 754.591L32.1885 751.511C31.0255 749.817 28.9713 747.152 27.623 745.59C24.0079 741.4 22.6369 739.982 22.8961 738.99C23.0667 738.337 23.9439 737.868 25.3525 736.915C29.5125 734.1 32.6109 731.645 34.7812 729.445C35.3629 728.856 36.1721 727.818 36.9818 726.78C37.9809 725.499 38.9807 724.218 39.5537 723.776C40.3001 723.202 41.3725 722.731 42.3696 722.294C42.8284 722.093 43.2713 721.898 43.6592 721.704C44.3819 721.342 45.0322 721.203 45.471 721.109C46.0762 720.98 46.2791 720.937 45.7148 720.513C45.1957 720.123 44.5448 719.63 44.3564 719.285C43.3672 717.471 42.9328 716.712 42.8166 715.906C42.7208 715.241 42.8419 714.544 43.0469 713.197C44.0362 706.696 42.4004 698.192 39.1426 692.897C37.7584 690.647 37.7604 690.063 39.1543 688.168C39.769 687.332 40.2171 686.632 40.1504 686.611C40.0833 686.591 38.9032 686.546 37.5283 686.512L35.0283 686.449L33.1133 684.342C32.1432 683.274 32.7993 682.304 33.581 681.829C34.3582 681.357 36.9607 681.382 36.9932 681.382C36.9766 681.361 35.4371 679.434 36.1338 678.276C36.4739 677.711 36.7514 677.156 37.0421 676.575C37.3498 675.96 37.6723 675.316 38.0996 674.598C39.0212 673.048 39.4652 672.057 39.8103 671.285C40.0853 670.671 40.2976 670.197 40.6387 669.692C40.8323 669.406 41.7983 668.908 44.5478 668.579C41.9852 667.445 41.6029 665.254 41.6025 665.252L42.3867 661.002C42.6885 659.366 42.6168 657.823 42.5743 656.907C42.556 656.514 42.5431 656.237 42.5674 656.117C42.6483 655.719 43.6776 653.904 44.9873 652.927C43.2113 653.078 42.5352 652.389 42.0479 651.893C42.0063 651.85 41.9661 651.809 41.9267 651.771C41.8624 651.707 41.7963 651.647 41.725 651.583C41.2788 651.182 40.6312 650.598 38.9648 647.715C36.2234 642.971 33.6326 640.582 28.3418 637.915C24.99 636.226 24.5703 635.843 25.4697 635.3C25.7336 635.14 26.9616 633.769 28.1982 632.252C28.8075 631.505 29.2438 630.94 29.589 630.493C30.6554 629.112 30.852 628.857 32.5898 627.833C33.3975 627.357 33.7403 627.1 34.1256 626.985C34.5794 626.851 35.0922 626.914 36.4932 627.052C34.934 625.636 35.5596 622.131 35.5596 622.131L36.9785 618.49C37.7589 616.488 38.4997 614.208 38.625 613.425L38.7637 612.556C38.8292 612.556 38.8681 612.555 38.876 612.556L39.2519 610.562C39.6382 608.514 41.148 605.711 42.9092 604.057C43.9284 603.099 44.0839 602.591 43.3574 602.591C41.1239 602.591 39.4037 600.795 37.9033 596.9C36.7605 593.933 34.6851 590.592 33.0117 589.024C31.171 587.3 33.6124 583.757 36.6465 583.75C37.8398 583.747 38.7598 583.413 38.7598 582.983C38.7594 582.806 38.5433 582.66 38.2793 582.66C36.493 582.66 35.3544 579.116 36.0928 575.854C36.3312 574.8 36.6441 572.682 36.7881 571.146L37.0498 568.353L39.3545 565.965C41.9122 563.315 42.1437 562.73 40.6348 562.73C39.2629 562.73 38.2322 561.557 37.1289 558.741C35.9049 555.618 35.9678 555.101 37.8545 552.784C38.9007 551.5 39.4265 550.894 39.2896 550.625C39.157 550.364 38.4018 550.421 36.8945 550.483L34.3037 550.591L32.1885 547.511C31.0255 545.817 28.9713 543.152 27.623 541.59C24.0079 537.4 22.6369 535.982 22.8961 534.99C23.0667 534.337 23.9439 533.868 25.3525 532.915C29.5125 530.1 32.6109 527.645 34.7812 525.445C35.3629 524.856 36.1721 523.818 36.9818 522.78C37.9809 521.499 38.9807 520.218 39.5537 519.776C40.3001 519.202 41.3725 518.731 42.3696 518.294C42.8284 518.093 43.2713 517.898 43.6592 517.704C44.3819 517.342 45.0321 517.203 45.4709 517.109C46.0762 516.98 46.2791 516.937 45.7148 516.513C45.1957 516.123 44.5448 515.63 44.3564 515.285C43.3672 513.471 42.9328 512.712 42.8166 511.906C42.7208 511.241 42.8419 510.544 43.0469 509.197C44.0362 502.696 42.4004 494.192 39.1426 488.897C37.7584 486.647 37.7604 486.063 39.1543 484.168C39.769 483.332 40.2171 482.632 40.1504 482.611C40.0833 482.591 38.9032 482.546 37.5283 482.512L35.0283 482.449L33.1133 480.342C32.1432 479.274 32.7993 478.304 33.581 477.829C34.3582 477.357 36.9607 477.382 36.9931 477.382C36.9766 477.361 35.4371 475.434 36.1338 474.276C36.4739 473.711 36.7514 473.156 37.0421 472.575C37.3498 471.96 37.6723 471.316 38.0996 470.598C39.0212 469.048 39.4652 468.057 39.8103 467.285C40.0853 466.671 40.2976 466.197 40.6387 465.692C40.8323 465.406 41.7983 464.908 44.5478 464.579C41.9852 463.445 41.6029 461.254 41.6025 461.252L42.3867 457.002C42.6885 455.366 42.6168 453.823 42.5743 452.907C42.556 452.514 42.5431 452.237 42.5674 452.117C42.6483 451.719 43.6776 449.904 44.9873 448.927C43.2114 449.078 42.5352 448.389 42.0479 447.893C42.0063 447.85 41.9661 447.809 41.9267 447.771C41.8624 447.707 41.7963 447.647 41.725 447.583C41.2788 447.182 40.6312 446.599 38.9648 443.715C36.2234 438.971 33.6326 436.582 28.3418 433.915C24.99 432.226 24.5703 431.843 25.4697 431.3C25.7336 431.14 26.9616 429.769 28.1982 428.252C28.8075 427.505 29.2438 426.94 29.589 426.493C30.6554 425.112 30.852 424.857 32.5898 423.833C33.3974 423.357 33.7403 423.1 34.1255 422.985C34.5794 422.851 35.0922 422.914 36.4931 423.052C34.934 421.636 35.5595 418.131 35.5595 418.131L36.9785 414.49C37.7588 412.488 38.4997 410.208 38.625 409.425L38.7637 408.556L38.876 408.556L39.2519 406.562C39.6382 404.514 41.148 401.711 42.9092 400.057C43.9284 399.099 44.0839 398.591 43.3574 398.591C41.1239 398.591 39.4037 396.795 37.9033 392.9C36.7605 389.933 34.6851 386.592 33.0117 385.024C31.171 383.3 33.6123 379.757 36.6465 379.75C37.8398 379.747 38.7597 379.413 38.7597 378.983C38.7594 378.806 38.5432 378.66 38.2793 378.66C36.4929 378.66 35.3544 375.116 36.0928 371.854C36.3312 370.8 36.6441 368.682 36.7881 367.146L37.0498 364.353L39.3545 361.965C41.9122 359.315 42.1437 358.73 40.6347 358.73C39.2629 358.73 38.2322 357.557 37.1289 354.741C35.9049 351.618 35.9678 351.101 37.8545 348.784C38.9007 347.5 39.4265 346.894 39.2896 346.625C39.157 346.364 38.4018 346.421 36.8945 346.483L34.3037 346.591L32.1885 343.511C31.0255 341.817 28.9713 339.152 27.623 337.59C24.0079 333.4 22.6369 331.982 22.8961 330.99C23.0667 330.337 23.9439 329.868 25.3525 328.915C29.5124 326.1 32.6108 323.645 34.7812 321.445C35.3628 320.856 36.1721 319.818 36.9818 318.78C37.9809 317.499 38.9806 316.218 39.5537 315.776C40.3001 315.202 41.3725 314.731 42.3696 314.294C42.8284 314.093 43.2713 313.898 43.6592 313.704C44.3819 313.342 45.0321 313.203 45.4709 313.109C46.0762 312.98 46.2791 312.937 45.7148 312.513C45.1957 312.123 44.5448 311.63 44.3564 311.285C43.3672 309.471 42.9328 308.712 42.8166 307.906C42.7207 307.241 42.8419 306.544 43.0468 305.197C44.0362 298.696 42.4004 290.192 39.1426 284.897C37.7584 282.647 37.7604 282.063 39.1543 280.168C39.769 279.332 40.2171 278.632 40.1504 278.611C40.0833 278.591 38.9032 278.546 37.5283 278.512L35.0283 278.449L33.1133 276.342C32.1432 275.274 32.7993 274.304 33.581 273.829C34.3582 273.357 36.9607 273.382 36.9931 273.382C36.9766 273.361 35.4371 271.434 36.1338 270.276C36.4739 269.711 36.7514 269.156 37.0421 268.575C37.3498 267.96 37.6723 267.316 38.0996 266.598C39.0212 265.048 39.4651 264.057 39.8103 263.285C40.0853 262.671 40.2975 262.197 40.6386 261.692C40.8323 261.406 41.7983 260.908 44.5478 260.579C41.9852 259.445 41.6029 257.254 41.6025 257.252L42.3867 253.002C42.6885 251.366 42.6168 249.823 42.5743 248.907C42.556 248.514 42.5431 248.237 42.5674 248.117C42.6483 247.719 43.6776 245.904 44.9873 244.927C43.2114 245.078 42.5352 244.389 42.0479 243.893C42.0063 243.85 41.9661 243.809 41.9267 243.771C41.8624 243.707 41.7963 243.647 41.725 243.583C41.2788 243.182 40.6311 242.598 38.9648 239.715C36.2234 234.971 33.6326 232.582 28.3418 229.915C24.99 228.226 24.5703 227.843 25.4697 227.3C25.7336 227.14 26.9616 225.769 28.1982 224.252C28.8075 223.505 29.2438 222.94 29.5891 222.492C30.6554 221.112 30.852 220.857 32.5898 219.833C33.3974 219.357 33.7403 219.1 34.1255 218.985C34.5794 218.851 35.0922 218.914 36.4931 219.052C34.934 217.636 35.5595 214.131 35.5595 214.131L36.9785 210.49C37.7588 208.488 38.4997 206.208 38.625 205.425L38.7636 204.556C38.8008 204.556 38.8295 204.556 38.8487 204.556C38.8633 204.556 38.8726 204.556 38.8759 204.556L39.2519 202.562C39.6382 200.514 41.148 197.711 42.9091 196.057C43.9284 195.099 44.0839 194.591 43.3574 194.591C41.1239 194.591 39.4036 192.795 37.9033 188.9C36.7605 185.933 34.6851 182.592 33.0117 181.024C31.171 179.3 33.6123 175.757 36.6465 175.75C37.8398 175.747 38.7597 175.413 38.7597 174.983C38.7594 174.806 38.5432 174.66 38.2793 174.66C36.4929 174.66 35.3544 171.116 36.0927 167.854C36.3312 166.8 36.6441 164.682 36.7881 163.146L37.0498 160.353L39.3545 157.965C41.9122 155.315 42.1437 154.73 40.6347 154.73C39.2629 154.73 38.2322 153.557 37.1289 150.741C35.9049 147.618 35.9678 147.101 37.8545 144.784C38.9007 143.5 39.4264 142.894 39.2896 142.625C39.157 142.364 38.4018 142.421 36.8945 142.483L34.3037 142.591L32.1884 139.511C31.0255 137.817 28.9713 135.152 27.623 133.59C24.0079 129.4 22.6369 127.982 22.8961 126.99C23.0667 126.337 23.9439 125.868 25.3525 124.915C29.5124 122.1 32.6108 119.645 34.7812 117.445C35.3628 116.856 36.1721 115.818 36.9817 114.78C37.9809 113.499 38.9806 112.218 39.5537 111.776C40.3001 111.202 41.3725 110.731 42.3696 110.294C42.8284 110.093 43.2713 109.898 43.6591 109.704C44.3819 109.342 45.0322 109.203 45.471 109.109C46.0762 108.98 46.2791 108.937 45.7148 108.513C45.1957 108.123 44.5448 107.63 44.3564 107.285C43.3672 105.471 42.9327 104.712 42.8166 103.906C42.7207 103.241 42.8418 102.544 43.0468 101.197C44.0362 94.6964 42.4004 86.1922 39.1425 80.8975C37.7583 78.6474 37.7604 78.0633 39.1543 76.168C39.769 75.332 40.2171 74.6317 40.1504 74.6113C40.0833 74.5913 38.9032 74.5462 37.5283 74.5117L35.0283 74.4492L33.1132 72.3418C32.1432 71.2744 32.7993 70.3043 33.581 69.8291C34.3581 69.357 36.9607 69.3815 36.9931 69.3818C36.9765 69.3611 35.4371 67.4343 36.1338 66.2764C36.4739 65.7109 36.7514 65.1563 37.0421 64.5754C37.3498 63.9604 37.6723 63.3159 38.0996 62.5977C39.0212 61.0485 39.4651 60.0566 39.8103 59.2854C40.0852 58.6711 40.2975 58.1968 40.6386 57.6924C40.8323 57.4061 41.7983 56.9084 44.5478 56.5791C41.9852 55.4452 41.6029 53.2541 41.6025 53.252L42.3867 49.002C42.6885 47.3665 42.6168 45.8232 42.5742 44.9073C42.556 44.5145 42.5431 44.237 42.5673 44.1172C42.6482 43.7186 43.6776 41.9037 44.9873 40.9268C43.2114 41.0784 42.5352 40.3893 42.0479 39.8928C42.0063 39.8504 41.9661 39.8094 41.9267 39.7705C41.8624 39.707 41.7963 39.6474 41.725 39.5833C41.2788 39.1815 40.6311 38.5984 38.9648 35.7148C36.2234 30.9708 33.6326 28.5816 28.3418 25.915C24.99 24.2258 24.5703 23.8431 25.4697 23.2998C25.7336 23.1404 26.9616 21.7688 28.1982 20.252C28.8075 19.5046 29.2438 18.9395 29.589 18.4925C30.6554 17.1117 30.852 16.8571 32.5898 15.833C33.3974 15.3571 33.7403 15.0999 34.1255 14.9855C34.5794 14.8508 35.0921 14.9142 36.4931 15.0518C34.934 13.6362 35.5595 10.1309 35.5595 10.1309L36.9785 6.49023C37.7588 4.48784 38.4997 2.20839 38.625 1.4248L38.8525 -1.6983e-06L26.7978 -1.17137e-06L27.8867 1.50391C29.8168 4.16839 29.3851 5.40338 24.039 12.502C20.8241 16.7708 19.7687 18.2026 19.0958 18.0411C18.7436 17.9565 18.4961 17.4355 18.0986 16.6562C14.4504 9.50496 14.1117 5.21698 17.0576 3.47656L18.1728 2.81836L15.4218 -6.74111e-07L6.76558 -2.95735e-07L7.03609 4.43945C7.18494 6.88076 7.31245 9.35503 7.3193 9.9375C7.3362 11.377 5.8553 13.983 4.72848 14.4971L4.61825 14.5472C3.83456 14.9029 3.33208 15.1309 4.4609 15.2822C4.78123 15.4269 5.09042 15.5636 5.38957 15.6958C8.28795 16.9769 10.2448 17.8417 12.2773 21.5996C12.6965 22.3753 13.2229 23.2663 13.4462 23.5791C13.7702 24.0332 13.5937 24.486 12.5722 25.8242C11.8684 26.7463 10.4628 28.8736 9.44918 30.5518C7.33872 34.0457 7.28268 34.1018 4.96969 34.9668C3.44526 35.5369 2.67571 36.2363 3.5732 36.2363C4.74621 36.237 6.21802 39.9382 6.90426 44.6113C7.2905 47.2419 7.84937 50.4389 8.14547 51.7158C8.83637 54.6951 8.83072 57.3682 8.13082 58.7217C7.6083 59.7321 7.61772 59.79 8.29879 59.79C11.2329 59.7902 14.3612 62.1556 17.3564 66.6377L19.1464 69.3174L17.7714 70.9854C17.0147 71.9031 15.7609 73.8475 14.9863 75.3057C13.7463 77.6397 12.1394 79.947 10.333 81.9854C9.63139 82.777 8.60908 82.79 7.00387 82.0283C5.42685 81.2801 5.0963 81.6061 5.95602 83.0615C7.49664 85.6696 7.28888 87.5416 4.75875 93.8525C3.25172 97.6115 3.63498 105.754 5.50387 109.681C5.818 110.341 5.63926 110.829 4.41012 112.67L2.94137 114.87L4.12594 114.87C6.36607 114.87 7.49333 115.781 8.82809 118.67C9.50352 120.132 10.8075 122.489 11.7255 123.908C12.7491 125.49 13.2535 126.14 13.2106 126.751C13.1696 127.336 12.6277 127.886 11.5605 129.184C9.307 131.924 6.78416 135.639 5.91207 137.502C5.07547 139.289 2.48598 141.322 1.04586 141.322ZM15.8105 662.294C14.9123 658.682 14.9901 658.218 16.7949 656.413L18.3838 654.824L16.9765 653.45C14.6087 651.138 15.1081 647.042 18.2002 643.42L19.374 642.046L23.0957 643.911C27.3473 646.042 27.6885 646.47 27.4277 649.347L27.2402 651.424L29.2812 651.679C31.8297 651.997 33.0946 652.881 34.2402 655.142C35.3727 657.377 35.2398 659.848 33.6924 665.318C33.2323 666.945 31.4691 667.924 29.2471 667.95C28.1834 667.963 27.7672 667.924 27.7061 668.053C27.6481 668.175 27.9107 668.45 28.2432 669.064C28.2939 669.158 28.3463 669.25 28.3987 669.341C28.688 669.845 28.9766 670.347 28.9766 671.256C28.9761 676.929 17.509 669.124 15.8105 662.294ZM15.8105 458.294C14.9123 454.682 14.9901 454.218 16.7949 452.413L18.3838 450.824L16.9765 449.45C14.6087 447.138 15.1081 443.042 18.2002 439.42L19.374 438.046L23.0957 439.911C27.3473 442.042 27.6885 442.47 27.4277 445.347L27.2402 447.424L29.2812 447.679C31.8296 447.997 33.0946 448.881 34.2402 451.142C35.3727 453.377 35.2398 455.848 33.6924 461.318C33.2322 462.945 31.4691 463.924 29.247 463.95C28.1834 463.963 27.7672 463.924 27.7061 464.053C27.648 464.176 27.9107 464.45 28.2431 465.064C28.2939 465.158 28.3463 465.25 28.3987 465.341C28.6879 465.845 28.9765 466.347 28.9765 467.256C28.9761 472.929 17.509 465.124 15.8105 458.294ZM15.8105 254.294C14.9123 250.682 14.9901 250.218 16.7949 248.413L18.3838 246.824L16.9765 245.45C14.6087 243.138 15.1081 239.042 18.2002 235.42L19.374 234.046L23.0957 235.911C27.3472 238.042 27.6885 238.47 27.4277 241.347L27.2402 243.424L29.2812 243.679C31.8296 243.997 33.0945 244.881 34.2402 247.142C35.3727 249.377 35.2398 251.848 33.6924 257.318C33.2322 258.945 31.4691 259.924 29.247 259.95C28.1834 259.963 27.7672 259.924 27.7061 260.053C27.648 260.175 27.9107 260.45 28.2431 261.064C28.2939 261.158 28.3463 261.25 28.3987 261.341C28.6879 261.845 28.9765 262.347 28.9765 263.256C28.9761 268.929 17.509 261.124 15.8105 254.294ZM15.8105 50.2939C14.9123 46.6819 14.9901 46.2179 16.7949 44.4131L18.3837 42.8242L16.9765 41.4502C14.6087 39.1381 15.1081 35.0416 18.2002 31.4199L19.374 30.0459L23.0957 31.9111C27.3472 34.0417 27.6885 34.4705 27.4277 37.3467L27.2402 39.4238L29.2812 39.6787C31.8296 39.9971 33.0945 40.8808 34.2402 43.1416C35.3727 45.3766 35.2398 47.8476 33.6923 53.3184C33.2322 54.9447 31.4691 55.9241 29.247 55.9502C28.1834 55.9626 27.7672 55.9237 27.7061 56.0528C27.648 56.1755 27.9107 56.4499 28.2431 57.0645C28.2939 57.1582 28.3463 57.2495 28.3987 57.3408C28.6879 57.8447 28.9765 58.3475 28.9765 59.2559C28.9761 64.9294 17.509 57.124 15.8105 50.2939ZM14.0576 724.975C12.5899 722.907 11.2451 719.288 10.7998 716.208L10.3457 713.065L11.417 712.199C12.5146 711.312 13.3858 710.823 14.6631 710.376C15.2833 710.159 15.1694 710.027 13.874 709.463C11.7696 708.546 11.3888 707.702 12.1152 705.562C12.738 703.729 12.8116 703.613 15.0928 700.933C15.9273 699.952 17.1504 698.345 17.8105 697.363C19.5931 694.711 20.644 694.074 23.206 694.089C25.7442 694.104 25.8149 693.896 23.9033 692.041C22.1555 690.345 22.1477 690.267 23.6338 689.421L24.8086 688.752L26.1894 690.326C27.6255 691.964 30.2649 695.847 31.7685 698.53L32.6406 700.085L31.8975 701.286C31.4892 701.947 30.7222 702.921 30.1924 703.451C29.6749 703.969 29.3938 704.232 29.4367 704.422C29.4855 704.639 29.9535 704.76 30.9697 705.054C31.7667 705.284 32.867 705.89 33.415 706.401C35.7718 708.6 34.2669 717.89 30.6933 723.199L28.8955 725.87L27.2383 725.644C26.327 725.519 25.1898 725.159 24.7109 724.846C23.621 724.132 23.2987 724.419 23.8447 725.617C24.954 728.052 24.1297 730.236 21.3564 732.212L19.1982 733.749L18.3447 732.394C17.8753 731.648 16.876 729.896 16.125 728.501C15.374 727.106 14.4437 725.519 14.0576 724.975ZM14.0576 520.975C12.5899 518.907 11.2451 515.288 10.7998 512.208L10.3457 509.065L11.417 508.199C12.5146 507.312 13.3858 506.823 14.6631 506.376C15.2833 506.159 15.1694 506.027 13.874 505.463C11.7696 504.546 11.3888 503.702 12.1152 501.562C12.738 499.729 12.8115 499.613 15.0928 496.933C15.9273 495.952 17.1504 494.345 17.8105 493.363C19.5931 490.711 20.6439 490.074 23.206 490.089C25.7442 490.104 25.8149 489.896 23.9033 488.041C22.1555 486.345 22.1477 486.267 23.6338 485.421L24.8086 484.752L26.1894 486.326C27.6255 487.964 30.2649 491.847 31.7685 494.53L32.6406 496.085L31.8974 497.286C31.4892 497.947 30.7222 498.921 30.1924 499.451C29.6749 499.969 29.3938 500.232 29.4367 500.422C29.4855 500.639 29.9535 500.76 30.9697 501.054C31.7667 501.284 32.867 501.89 33.415 502.401C35.7718 504.6 34.2668 513.89 30.6933 519.199L28.8955 521.87L27.2383 521.644C26.327 521.519 25.1897 521.159 24.7109 520.846C23.621 520.132 23.2987 520.419 23.8447 521.617C24.954 524.052 24.1297 526.236 21.3564 528.212L19.1982 529.749L18.3447 528.394C17.8753 527.648 16.8759 525.896 16.125 524.501C15.374 523.106 14.4437 521.519 14.0576 520.975ZM14.0576 316.975C12.5899 314.907 11.2451 311.288 10.7998 308.208L10.3457 305.065L11.417 304.199C12.5146 303.312 13.3858 302.823 14.6631 302.376C15.2833 302.159 15.1694 302.027 13.874 301.463C11.7696 300.546 11.3888 299.702 12.1152 297.562C12.738 295.729 12.8115 295.613 15.0927 292.933C15.9273 291.952 17.1504 290.345 17.8105 289.363C19.5931 286.711 20.6439 286.074 23.206 286.089C25.7442 286.104 25.8149 285.896 23.9033 284.041C22.1554 282.345 22.1477 282.267 23.6338 281.421L24.8086 280.752L26.1894 282.326C27.6255 283.964 30.2649 287.847 31.7685 290.53L32.6406 292.085L31.8974 293.286C31.4892 293.947 30.7222 294.921 30.1924 295.451C29.6749 295.969 29.3938 296.232 29.4367 296.422C29.4855 296.639 29.9535 296.76 30.9697 297.054C31.7667 297.284 32.8669 297.89 33.415 298.401C35.7718 300.6 34.2668 309.89 30.6933 315.199L28.8955 317.87L27.2383 317.644C26.327 317.519 25.1897 317.159 24.7109 316.846C23.621 316.132 23.2987 316.419 23.8447 317.617C24.954 320.052 24.1297 322.236 21.3564 324.212L19.1982 325.749L18.3447 324.394C17.8752 323.648 16.8759 321.896 16.125 320.501C15.374 319.106 14.4437 317.519 14.0576 316.975ZM14.0576 112.975C12.5899 110.907 11.245 107.288 10.7998 104.208L10.3457 101.065L11.417 100.199C12.5146 99.3116 13.3858 98.8226 14.663 98.376C15.2833 98.1591 15.1694 98.0271 13.874 97.4629C11.7696 96.5462 11.3888 95.7017 12.1152 93.5625C12.738 91.7286 12.8115 91.6133 15.0927 88.9326C15.9273 87.9519 17.1504 86.3455 17.8105 85.3633C19.5931 82.711 20.6439 82.0737 23.206 82.0889C25.7442 82.1039 25.8149 81.8962 23.9033 80.041C22.1554 78.3448 22.1477 78.2671 23.6338 77.4209L24.8086 76.752L26.1894 78.3262C27.6255 79.9644 30.2649 83.8466 31.7685 86.5303L32.6406 88.085L31.8974 89.2861C31.4892 89.9467 30.7222 90.9213 30.1923 91.4512C29.6749 91.9686 29.3937 92.232 29.4367 92.4222C29.4855 92.6385 29.9535 92.7603 30.9697 93.0537C31.7667 93.284 32.8669 93.8901 33.415 94.4014C35.7718 96.6004 34.2668 105.89 30.6933 111.199L28.8955 113.87L27.2382 113.644C26.327 113.519 25.1897 113.159 24.7109 112.846C23.621 112.132 23.2986 112.419 23.8447 113.617C24.954 116.052 24.1297 118.236 21.3564 120.212L19.1982 121.749L18.3447 120.394C17.8752 119.648 16.8759 117.896 16.125 116.501C15.374 115.106 14.4437 113.519 14.0576 112.975ZM18.0986 628.656C14.4504 621.505 14.1117 617.217 17.0576 615.477L18.1728 614.818L16.7978 613.409L15.6328 612.218C16.6705 610.379 21.7356 601.695 24.3242 602.711L25.7461 603.269L25.5049 601.14C24.8261 595.14 27.1717 593.294 29.4795 598.011C32.4465 604.075 32.0119 610.037 28.5517 612L26.7978 612L27.1308 612.461C26.9777 612.495 26.8589 612.525 26.8213 612.556C26.8601 612.556 26.9938 612.555 27.1992 612.556L27.8867 613.504C29.8168 616.168 29.3851 617.403 24.039 624.502C20.8241 628.771 19.7688 630.203 19.0958 630.041C18.7436 629.957 18.4962 629.435 18.0986 628.656ZM18.0986 220.656C14.4504 213.505 14.1117 209.217 17.0576 207.477L18.1728 206.818L16.7978 205.409L15.6328 204.218C16.6705 202.379 21.7356 193.695 24.3242 194.711L25.7461 195.269L25.5048 193.14C24.8261 187.14 27.1716 185.294 29.4795 190.011C32.4465 196.075 32.0119 202.037 28.5517 204L26.7978 204L27.1308 204.461C26.9776 204.495 26.8589 204.525 26.8213 204.556C26.8364 204.556 26.8659 204.556 26.9083 204.556C26.975 204.556 27.0737 204.555 27.1992 204.556L27.8867 205.504C29.8168 208.168 29.3851 209.403 24.039 216.502C20.8241 220.771 19.7687 222.203 19.0958 222.041C18.7436 221.957 18.4961 221.435 18.0986 220.656ZM15.0176 764.15C12.1835 763.69 11.4349 760.089 13.3506 756.131C13.773 755.258 14.1188 754.294 14.1191 753.987C14.1191 753.681 14.5415 752.632 15.0576 751.655C15.5737 750.679 16.492 748.946 17.0976 747.804C18.3087 745.52 18.5176 745.493 19.5312 747.479C20.2844 748.956 19.9366 750.338 18.3857 752.032C17.4337 753.072 17.5882 753.275 19.1709 753.062C21.5971 752.737 22.2844 753.132 24.5088 756.135C27.1798 759.74 28.0796 761.412 28.5547 763.65C30.089 770.879 28.1424 776.151 23.9394 776.151C22.9893 776.151 22.9428 776.753 23.8701 777.047C26.442 777.863 27.8973 780.987 26.8506 783.443C26.4789 784.316 26.0747 785.32 25.9521 785.675C25.3934 787.289 15.7822 779.066 14.1367 775.565C11.6441 770.263 11.9196 767.509 15.0957 765.972C16.9748 765.062 16.9489 764.464 15.0176 764.15ZM15.0176 560.15C12.1834 559.69 11.4349 556.089 13.3506 552.131C13.773 551.258 14.1188 550.294 14.1191 549.987C14.1191 549.681 14.5415 548.632 15.0576 547.655C15.5737 546.679 16.492 544.946 17.0976 543.804C18.3087 541.52 18.5176 541.493 19.5312 543.479C20.2844 544.956 19.9366 546.338 18.3857 548.032C17.4336 549.072 17.5882 549.275 19.1709 549.062C21.5971 548.737 22.2844 549.132 24.5088 552.135C27.1798 555.74 28.0796 557.412 28.5547 559.65C30.089 566.879 28.1424 572.151 23.9394 572.151C22.9893 572.151 22.9428 572.753 23.8701 573.047C26.442 573.863 27.8973 576.987 26.8506 579.443C26.4788 580.316 26.0747 581.32 25.9521 581.675C25.3934 583.289 15.7822 575.066 14.1367 571.565C11.6441 566.263 11.9196 563.509 15.0957 561.972C16.9748 561.062 16.9489 560.464 15.0176 560.15ZM15.0176 356.15C12.1834 355.69 11.4349 352.089 13.3506 348.131C13.773 347.258 14.1188 346.294 14.1191 345.987C14.1191 345.681 14.5415 344.632 15.0576 343.655C15.5737 342.679 16.492 340.946 17.0976 339.804C18.3087 337.52 18.5176 337.493 19.5312 339.479C20.2844 340.956 19.9366 342.338 18.3857 344.032C17.4336 345.072 17.5882 345.275 19.1709 345.062C21.5971 344.737 22.2844 345.132 24.5088 348.135C27.1798 351.74 28.0796 353.412 28.5547 355.65C30.089 362.879 28.1424 368.151 23.9394 368.151C22.9893 368.151 22.9428 368.753 23.8701 369.047C26.442 369.863 27.8973 372.987 26.8506 375.443C26.4788 376.316 26.0747 377.32 25.9521 377.675C25.3934 379.289 15.7822 371.066 14.1367 367.565C11.644 362.263 11.9196 359.509 15.0957 357.972C16.9748 357.062 16.9488 356.464 15.0176 356.15ZM15.0175 152.15C12.1834 151.69 11.4349 148.089 13.3506 144.131C13.773 143.258 14.1188 142.294 14.1191 141.987C14.1191 141.681 14.5414 140.632 15.0576 139.655C15.5737 138.679 16.492 136.946 17.0976 135.804C18.3086 133.52 18.5176 133.493 19.5312 135.479C20.2844 136.956 19.9366 138.338 18.3857 140.032C17.4336 141.072 17.5882 141.275 19.1709 141.062C21.5971 140.737 22.2844 141.132 24.5088 144.135C27.1798 147.74 28.0795 149.412 28.5547 151.65C30.089 158.879 28.1424 164.151 23.9394 164.151C22.9893 164.151 22.9428 164.753 23.8701 165.047C26.442 165.863 27.8973 168.987 26.8506 171.443C26.4788 172.316 26.0747 173.32 25.9521 173.675C25.3934 175.289 15.7822 167.066 14.1367 163.565C11.644 158.263 11.9196 155.509 15.0957 153.972C16.9748 153.062 16.9488 152.464 15.0175 152.15ZM18.0986 424.656C14.4504 417.505 14.1117 413.217 17.0576 411.477L18.1728 410.818L15.6328 408.217C16.672 406.375 21.7361 397.695 24.3242 398.711L25.7461 399.269L25.5049 397.14C24.8261 391.14 27.1717 389.294 29.4795 394.011C32.4465 400.075 32.0119 406.038 28.5517 408L26.7978 408L27.1992 408.556L27.8867 409.504C29.8168 412.168 29.3851 413.403 24.039 420.502C20.8241 424.771 19.7687 426.203 19.0958 426.041C18.7436 425.957 18.4961 425.435 18.0986 424.656Z" fill="url(#paint0_linear_2348_687)"/>
<defs>
<linearGradient id="paint0_linear_2348_687" x1="23.0235" y1="1.58336e-05" x2="23.023" y2="816.556" gradientUnits="userSpaceOnUse">
<stop stop-color="#FEA6EF"/>
<stop offset="0.567308" stop-color="#AABDFF"/>
</linearGradient>
</defs>
</svg>
