<svg xmlns="http://www.w3.org/2000/svg" version="1.1" xmlns:xlink="http://www.w3.org/1999/xlink" width="1000" height="1000"><style>
    #light-icon {
      display: inline;
    }
    #dark-icon {
      display: none;
    }

    @media (prefers-color-scheme: dark) {
      #light-icon {
        display: none;
      }
      #dark-icon {
        display: inline;
      }
    }
  </style><g id="light-icon"><svg xmlns="http://www.w3.org/2000/svg" version="1.1" xmlns:xlink="http://www.w3.org/1999/xlink" width="1000" height="1000"><g><g transform="matrix(17.857142857142858,0,0,17.857142857142858,0,0)"><svg xmlns="http://www.w3.org/2000/svg" version="1.1" xmlns:xlink="http://www.w3.org/1999/xlink" width="56" height="56"><svg width="56" height="56" viewBox="0 0 56 56" fill="none" xmlns="http://www.w3.org/2000/svg">
<path d="M28 0C29.9961 8.83804 40.1383 13.0393 47.7991 8.20089C42.9607 15.8617 47.162 26.0039 56 28C47.162 29.9961 42.9607 40.1383 47.7991 47.7991C40.1383 42.9607 29.9961 47.162 28 56C26.0039 47.162 15.8617 42.9607 8.20089 47.7991C13.0393 40.1383 8.83804 29.9961 0 28C8.83804 26.0039 13.0393 15.8617 8.20089 8.20089C15.8617 13.0393 26.0039 8.83804 28 0Z" fill="#FEA6EF"></path>
<path d="M13.2907 36.8216V20.7334C13.2907 20.0326 13.142 19.4273 12.8447 18.9175C12.5473 18.4078 12.1756 18.153 11.7296 18.153V17.4521C11.8783 17.4309 13.0358 16.7831 15.2021 15.5088C15.3508 15.5512 15.5313 15.615 15.7437 15.6999C15.9561 15.7636 16.2322 15.9654 16.572 16.3052C16.9331 16.645 17.1136 17.0379 17.1136 17.4839C17.241 17.4202 17.6021 17.2185 18.1968 16.8786C19.7684 15.9866 20.7348 15.5406 21.0958 15.5406C21.4781 15.5406 21.8923 15.7318 22.3383 16.1141C22.8055 16.4964 23.156 16.953 23.3896 17.4839C23.4321 17.4627 23.8674 17.2397 24.6958 16.8149C26.3524 15.9654 27.3506 15.5406 27.6904 15.5406C28.37 15.5406 29.0072 15.9866 29.6019 16.8786C30.1965 17.7707 30.4939 18.5883 30.4939 19.3317V35.3562C30.4939 36.5243 31.0142 37.2145 32.0549 37.4269V38.1278L28.5824 40.0711C28.1152 39.88 27.6798 39.572 27.2762 39.1472C26.8727 38.7012 26.6709 38.2871 26.6709 37.9048V22.2945C26.6709 21.0202 26.4586 20.1388 26.0338 19.6503C25.6302 19.1406 24.8869 18.8644 23.8037 18.822V35.3562C23.8037 36.5243 24.3241 37.2145 25.3648 37.4269V38.1278L21.8923 40.0711C21.425 39.88 20.9896 39.572 20.5861 39.1472C20.1826 38.7012 19.9808 38.2871 19.9808 37.9048V22.2945C19.9808 20.9564 19.779 20.0432 19.3755 19.5547C18.9932 19.0662 18.2392 18.822 17.1136 18.822V35.165C17.1136 35.9508 17.1986 36.5137 17.3685 36.8535C17.5384 37.1933 17.8888 37.3632 18.4198 37.3632V38.3508L11.8889 41.0906L11.3792 40.0711C11.8464 40.0711 12.2925 39.795 12.7172 39.2428C13.0995 38.7118 13.2907 37.9048 13.2907 36.8216Z" fill="black"></path>
<path d="M39.1161 37.1402C39.5197 37.1402 39.9338 36.9703 40.3586 36.6305V32.5208C40.3586 31.2253 39.9232 30.4925 39.0524 30.3226V29.6218L42.27 27.8059C42.7161 27.997 43.1514 28.3156 43.5762 28.7616C44.001 29.1864 44.2134 29.5899 44.2134 29.9722V37.1083C44.2134 37.2782 43.0453 37.8198 40.709 38.7331C38.394 39.6251 36.971 40.0711 36.4401 40.0711C35.9303 40.0711 35.3357 39.6145 34.656 38.7012C33.9976 37.788 33.6684 36.6942 33.6684 35.4199V18.4715C33.6684 18.3229 34.879 17.8025 37.3002 16.9105C39.7427 15.9973 41.1444 15.5406 41.5055 15.5406C41.6329 15.5406 41.7816 15.8486 41.9515 16.4645C42.1214 17.0804 42.3125 17.8238 42.5249 18.6945C42.7585 19.5653 42.9922 20.2131 43.2258 20.6379C43.4806 21.0414 43.9479 21.2432 44.6275 21.2432V21.8803C44.1603 22.0927 43.3638 22.475 42.2382 23.0272C41.1338 23.5582 40.5391 23.8236 40.4542 23.8236C40.1356 23.8236 39.732 22.9635 39.2436 21.2432C38.7551 19.5016 38.3622 18.6308 38.0648 18.6308C37.8524 18.6308 37.6613 18.737 37.4914 18.9494V34.7827C37.4914 36.3544 38.033 37.1402 39.1161 37.1402Z" fill="black"></path>
</svg></svg></g></g></svg></g><g id="dark-icon"><svg xmlns="http://www.w3.org/2000/svg" version="1.1" xmlns:xlink="http://www.w3.org/1999/xlink" width="1000" height="1000"><g><g transform="matrix(17.857142857142858,0,0,17.857142857142858,0,0)"><svg xmlns="http://www.w3.org/2000/svg" version="1.1" xmlns:xlink="http://www.w3.org/1999/xlink" width="56" height="56"><svg width="56" height="56" viewBox="0 0 56 56" fill="none" xmlns="http://www.w3.org/2000/svg">
<path d="M28 0C29.9961 8.83804 40.1383 13.0393 47.7991 8.20089C42.9607 15.8617 47.162 26.0039 56 28C47.162 29.9961 42.9607 40.1383 47.7991 47.7991C40.1383 42.9607 29.9961 47.162 28 56C26.0039 47.162 15.8617 42.9607 8.20089 47.7991C13.0393 40.1383 8.83804 29.9961 0 28C8.83804 26.0039 13.0393 15.8617 8.20089 8.20089C15.8617 13.0393 26.0039 8.83804 28 0Z" fill="#E9FF5C"></path>
<path d="M13.2907 36.8216V20.7334C13.2907 20.0326 13.142 19.4273 12.8447 18.9175C12.5473 18.4078 12.1756 18.153 11.7296 18.153V17.4521C11.8783 17.4309 13.0358 16.7831 15.2021 15.5088C15.3508 15.5512 15.5313 15.615 15.7437 15.6999C15.9561 15.7636 16.2322 15.9654 16.572 16.3052C16.9331 16.645 17.1136 17.0379 17.1136 17.4839C17.241 17.4202 17.6021 17.2185 18.1968 16.8786C19.7684 15.9866 20.7348 15.5406 21.0958 15.5406C21.4781 15.5406 21.8923 15.7318 22.3383 16.1141C22.8055 16.4964 23.156 16.953 23.3896 17.4839C23.4321 17.4627 23.8674 17.2397 24.6958 16.8149C26.3524 15.9654 27.3506 15.5406 27.6904 15.5406C28.37 15.5406 29.0072 15.9866 29.6019 16.8786C30.1965 17.7707 30.4939 18.5883 30.4939 19.3317V35.3562C30.4939 36.5243 31.0142 37.2145 32.0549 37.4269V38.1278L28.5824 40.0711C28.1152 39.88 27.6798 39.572 27.2762 39.1472C26.8727 38.7012 26.6709 38.2871 26.6709 37.9048V22.2945C26.6709 21.0202 26.4586 20.1388 26.0338 19.6503C25.6302 19.1406 24.8869 18.8644 23.8037 18.822V35.3562C23.8037 36.5243 24.3241 37.2145 25.3648 37.4269V38.1278L21.8923 40.0711C21.425 39.88 20.9896 39.572 20.5861 39.1472C20.1826 38.7012 19.9808 38.2871 19.9808 37.9048V22.2945C19.9808 20.9564 19.779 20.0432 19.3755 19.5547C18.9932 19.0662 18.2392 18.822 17.1136 18.822V35.165C17.1136 35.9508 17.1986 36.5137 17.3685 36.8535C17.5384 37.1933 17.8888 37.3632 18.4198 37.3632V38.3508L11.8889 41.0906L11.3792 40.0711C11.8464 40.0711 12.2925 39.795 12.7172 39.2428C13.0995 38.7118 13.2907 37.9048 13.2907 36.8216Z" fill="black"></path>
<path d="M39.1161 37.1402C39.5197 37.1402 39.9338 36.9703 40.3586 36.6305V32.5208C40.3586 31.2253 39.9232 30.4925 39.0524 30.3226V29.6218L42.27 27.8059C42.7161 27.997 43.1514 28.3156 43.5762 28.7616C44.001 29.1864 44.2134 29.5899 44.2134 29.9722V37.1083C44.2134 37.2782 43.0453 37.8198 40.709 38.7331C38.394 39.6251 36.971 40.0711 36.4401 40.0711C35.9303 40.0711 35.3357 39.6145 34.656 38.7012C33.9976 37.788 33.6684 36.6942 33.6684 35.4199V18.4715C33.6684 18.3229 34.879 17.8025 37.3002 16.9105C39.7427 15.9973 41.1444 15.5406 41.5055 15.5406C41.6329 15.5406 41.7816 15.8486 41.9515 16.4645C42.1214 17.0804 42.3125 17.8238 42.5249 18.6945C42.7585 19.5653 42.9922 20.2131 43.2258 20.6379C43.4806 21.0414 43.9479 21.2432 44.6275 21.2432V21.8803C44.1603 22.0927 43.3638 22.475 42.2382 23.0272C41.1338 23.5582 40.5391 23.8236 40.4542 23.8236C40.1356 23.8236 39.732 22.9635 39.2436 21.2432C38.7551 19.5016 38.3622 18.6308 38.0648 18.6308C37.8524 18.6308 37.6613 18.737 37.4914 18.9494V34.7827C37.4914 36.3544 38.033 37.1402 39.1161 37.1402Z" fill="black"></path>
</svg></svg></g></g></svg></g></svg>